SplineFontDB: 3.0
FontName: clematisTEST-regular
FullName: ClematisTEST
FamilyName: ClematisTEST
Weight: Regular
Copyright: Copyright 2011 Canonical Ltd.  Licensed under the Ubuntu Font Licence 1.0\nCopyright(c) 2016 M+ FONTS PROJECT\n(C) 2017 Uzuki
Version: 99.4.0
ItalicAngle: 0
UnderlinePosition: -150
UnderlineWidth: 50
Ascent: 860
Descent: 140
InvalidEm: 0
LayerCount: 2
Layer: 0 1 "+gMyXYgAA" 1
Layer: 1 1 "+Uk2XYgAA" 0
XUID: [1021 283 709330389 28537]
FSType: 0
OS2Version: 3
OS2_WeightWidthSlopeOnly: 0
OS2_UseTypoMetrics: 0
CreationTime: 1304432203
ModificationTime: 1498915864
PfmFamily: 17
TTFWeight: 400
TTFWidth: 5
LineGap: 0
VLineGap: 0
Panose: 2 11 5 9 2 2 4 2 2 7
OS2TypoAscent: 860
OS2TypoAOffset: 0
OS2TypoDescent: -140
OS2TypoDOffset: 0
OS2TypoLinegap: 90
OS2WinAscent: 880
OS2WinAOffset: 0
OS2WinDescent: 230
OS2WinDOffset: 0
HheadAscent: 880
HheadAOffset: 0
HheadDescent: -230
HheadDOffset: 0
OS2SubXSize: 650
OS2SubYSize: 699
OS2SubXOff: 0
OS2SubYOff: 140
OS2SupXSize: 650
OS2SupYSize: 699
OS2SupXOff: 0
OS2SupYOff: 479
OS2StrikeYSize: 49
OS2StrikeYPos: 258
OS2FamilyClass: 2057
OS2Vendor: 'UZ  '
OS2CodePages: 2000009f.56010000
OS2UnicodeRanges: e00002ff.5000205b.00000000.00000000
Lookup: 1 0 0 "'locl' +Vv0w+1cwV99W+mcJMG5bV19i in +MOkwxjDzZYdbVwAA lookup 0" { "'locl' +Vv0w+1cwV99W+mcJMG5bV19i in +MOkwxjDzZYdbVwAA lookup 0 +MLUw1jDGMPww1jDr"  } ['locl' ('latn' <'AZE ' > ) ]
Lookup: 1 0 0 "'locl' +Vv0w+1cwV99W+mcJMG5bV19i in +MOkwxjDzZYdbVwAA lookup 1" { "'locl' +Vv0w+1cwV99W+mcJMG5bV19i in +MOkwxjDzZYdbVwAA lookup 1 +MLUw1jDGMPww1jDr"  } ['locl' ('latn' <'TRK ' > ) ]
Lookup: 1 0 0 "'locl' +Vv0w+1cwV99W+mcJMG5bV19i in +MOkwxjDzZYdbVwAA lookup 2" { "'locl' +Vv0w+1cwV99W+mcJMG5bV19i in +MOkwxjDzZYdbVwAA lookup 2 +MLUw1jDGMPww1jDr"  } ['locl' ('latn' <'CRT ' > ) ]
Lookup: 1 0 0 "'locl' +Vv0w+1cwV99W+mcJMG5bV19i in +MK0w6jDrZYdbVwAA lookup 3" { "'locl' +Vv0w+1cwV99W+mcJMG5bV19i in +MK0w6jDrZYdbVwAA lookup 3 +MLUw1jDGMPww1jDr"  } ['locl' ('cyrl' <'BGR ' > ) ]

StartChar: SF030000.001
Encoding: 65536 -1 0
Width: 500
Flags: W
LayerCount: 2
Fore
SplineSet
424 53 m 1,0,-1
 424 742 l 1,1,-1
 106 742 l 1,2,-1
 106 53 l 1,3,-1
 424 53 l 1,0,-1
53 0 m 1,4,-1
 53 795 l 1,5,-1
 477 795 l 1,6,-1
 477 0 l 1,7,-1
 53 0 l 1,4,-1
EndSplineSet
EndChar

StartChar: exclam
Encoding: 33 33 4
Width: 500
Flags: W
LayerCount: 2
Fore
SplineSet
311 478 m 2,0,1
 311 439 311 439 309.5 406 c 128,-1,2
 308 373 308 373 305.5 343.5 c 128,-1,3
 303 314 303 314 300 284.5 c 128,-1,4
 297 255 297 255 294 224 c 1,5,-1
 233 224 l 1,6,7
 230 256 230 256 227 285 c 128,-1,8
 224 314 224 314 221 343.5 c 128,-1,9
 218 373 218 373 217 406 c 128,-1,10
 216 439 216 439 216 478 c 2,11,-1
 216 656 l 1,12,-1
 311 656 l 1,13,-1
 311 478 l 2,0,1
263 -13 m 0,14,15
 234 -13 234 -13 213 6.5 c 128,-1,16
 192 26 192 26 192 59 c 128,-1,17
 192 92 192 92 213 111.5 c 128,-1,18
 234 131 234 131 263 131 c 0,19,20
 293 131 293 131 313.5 111.5 c 128,-1,21
 334 92 334 92 334 59 c 128,-1,22
 334 26 334 26 313.5 6.5 c 128,-1,23
 293 -13 293 -13 263 -13 c 0,14,15
EndSplineSet
EndChar

StartChar: quotedbl
Encoding: 34 34 5
Width: 500
Flags: W
LayerCount: 2
Fore
SplineSet
218 720 m 1,0,-1
 218 672 l 2,1,2
 218 625 218 625 213 565.5 c 128,-1,3
 208 506 208 506 199 456 c 1,4,-1
 155 456 l 1,5,6
 148 506 148 506 142.5 565.5 c 128,-1,7
 137 625 137 625 137 673 c 2,8,-1
 137 720 l 1,9,-1
 218 720 l 1,0,-1
393 720 m 1,10,-1
 393 672 l 2,11,12
 393 625 393 625 388 565.5 c 128,-1,13
 383 506 383 506 375 456 c 1,14,-1
 331 456 l 1,15,16
 323 506 323 506 317.5 565.5 c 128,-1,17
 312 625 312 625 312 673 c 2,18,-1
 312 720 l 1,19,-1
 393 720 l 1,10,-1
EndSplineSet
EndChar

StartChar: numbersign
Encoding: 35 35 6
Width: 500
Flags: W
LayerCount: 2
Fore
SplineSet
340 0 m 1,0,-1
 261 0 l 1,1,-1
 294 173 l 1,2,-1
 176 173 l 1,3,-1
 143 0 l 1,4,-1
 64 0 l 1,5,-1
 96 173 l 1,6,-1
 29 173 l 1,7,-1
 29 244 l 1,8,-1
 110 244 l 1,9,-1
 142 412 l 1,10,-1
 29 412 l 1,11,-1
 29 482 l 1,12,-1
 157 482 l 1,13,-1
 190 656 l 1,14,-1
 269 656 l 1,15,-1
 236 482 l 1,16,-1
 354 482 l 1,17,-1
 386 656 l 1,18,-1
 465 656 l 1,19,-1
 434 482 l 1,20,-1
 501 482 l 1,21,-1
 501 412 l 1,22,-1
 420 412 l 1,23,-1
 387 244 l 1,24,-1
 501 244 l 1,25,-1
 501 173 l 1,26,-1
 373 173 l 1,27,-1
 340 0 l 1,0,-1
339 412 m 1,28,-1
 223 412 l 1,29,-1
 190 244 l 1,30,-1
 306 244 l 1,31,-1
 339 412 l 1,28,-1
EndSplineSet
EndChar

StartChar: dollar
Encoding: 36 36 7
Width: 500
Flags: W
LayerCount: 2
Fore
SplineSet
226 548 m 1,0,1
 206 543 206 543 193 533 c 0,2,3
 163 512 163 512 162 472 c 0,4,5
 162 450 162 450 171 435 c 128,-1,6
 180 420 180 420 197 408 c 0,7,8
 210 400 210 400 226 391 c 1,9,-1
 226 548 l 1,0,1
305 553 m 1,10,-1
 305 360 l 1,11,12
 333 349 333 349 358 337 c 0,13,14
 392 322 392 322 417.5 301 c 128,-1,15
 443 280 443 280 458.5 250 c 128,-1,16
 474 220 474 220 474 179 c 0,17,18
 474 116 474 116 432.5 73 c 128,-1,19
 391 30 391 30 305 19 c 1,20,-1
 305 0 l 1,21,-1
 305 -103 l 1,22,-1
 227 -103 l 1,23,-1
 227 16 l 1,24,25
 160 18 160 18 118.5 30.5 c 128,-1,26
 77 43 77 43 57 55 c 1,27,-1
 81 128 l 1,28,29
 110 114 110 114 148 102 c 0,30,31
 180 92 180 92 227 90 c 1,32,-1
 227 298 l 1,33,-1
 226 298 l 1,34,35
 197 309 197 309 169 321.5 c 128,-1,36
 141 334 141 334 119.5 352.5 c 128,-1,37
 98 371 98 371 84 397 c 128,-1,38
 70 423 70 423 70 461 c 0,39,40
 70 529 70 529 110.5 571.5 c 128,-1,41
 151 614 151 614 227 625 c 1,42,-1
 227 735 l 1,43,-1
 305 735 l 1,44,-1
 305 629 l 1,45,46
 347 627 347 627 383 619 c 128,-1,47
 419 611 419 611 440 602 c 1,48,-1
 422 528 l 1,49,50
 400 536 400 536 366 545 c 0,51,52
 340 551 340 551 305 553 c 1,10,-1
305 94 m 1,53,54
 309 95 309 95 312 95 c 0,55,56
 337 101 337 101 352 112.5 c 128,-1,57
 367 124 367 124 373 139.5 c 128,-1,58
 379 155 379 155 379 173 c 0,59,60
 379 199 379 199 367 218 c 0,61,62
 354 235 354 235 333 250 c 0,63,64
 320 258 320 258 305 266 c 1,65,-1
 305 94 l 1,53,54
EndSplineSet
EndChar

StartChar: percent
Encoding: 37 37 8
Width: 500
Flags: W
LayerCount: 2
Fore
SplineSet
101 0 m 1,0,-1
 26 0 l 1,1,-1
 428 656 l 1,2,-1
 502 656 l 1,3,-1
 101 0 l 1,0,-1
19 505.5 m 128,-1,5
 19 586 19 586 50 628 c 128,-1,6
 81 670 81 670 135 670 c 128,-1,7
 189 670 189 670 219.5 628 c 128,-1,8
 250 586 250 586 250 505.5 c 128,-1,9
 250 425 250 425 219.5 382.5 c 128,-1,10
 189 340 189 340 135 340 c 128,-1,11
 81 340 81 340 50 382.5 c 128,-1,4
 19 425 19 425 19 505.5 c 128,-1,5
184 505.5 m 128,-1,13
 184 553 184 553 171.5 584 c 128,-1,14
 159 615 159 615 134.5 615 c 128,-1,15
 110 615 110 615 97 584 c 128,-1,16
 84 553 84 553 84 505.5 c 128,-1,17
 84 458 84 458 97 427 c 128,-1,18
 110 396 110 396 134.5 396 c 128,-1,19
 159 396 159 396 171.5 427 c 128,-1,12
 184 458 184 458 184 505.5 c 128,-1,13
281 150.5 m 128,-1,21
 281 231 281 231 311 273 c 128,-1,22
 341 315 341 315 395 315 c 128,-1,23
 449 315 449 315 480 273 c 128,-1,24
 511 231 511 231 511 150.5 c 128,-1,25
 511 70 511 70 480 28 c 128,-1,26
 449 -14 449 -14 395 -14 c 128,-1,27
 341 -14 341 -14 311 28 c 128,-1,20
 281 70 281 70 281 150.5 c 128,-1,21
446 150.5 m 128,-1,29
 446 198 446 198 433 229 c 128,-1,30
 420 260 420 260 395.5 260 c 128,-1,31
 371 260 371 260 358.5 229 c 128,-1,32
 346 198 346 198 346 150.5 c 128,-1,33
 346 103 346 103 358.5 72 c 128,-1,34
 371 41 371 41 395.5 41 c 128,-1,35
 420 41 420 41 433 72 c 128,-1,28
 446 103 446 103 446 150.5 c 128,-1,29
EndSplineSet
EndChar

StartChar: ampersand
Encoding: 38 38 9
Width: 500
Flags: W
LayerCount: 2
Fore
SplineSet
288 300 m 2,0,1
 306 279 306 279 326 257 c 128,-1,2
 346 235 346 235 366 211 c 1,3,4
 374 241 374 241 380.5 276 c 128,-1,5
 387 311 387 311 390 353 c 1,6,-1
 463 343 l 1,7,8
 457 282 457 282 444.5 234 c 128,-1,9
 432 186 432 186 414 146 c 1,10,11
 438 112 438 112 460.5 76 c 128,-1,12
 483 40 483 40 501 0 c 1,13,-1
 409 0 l 1,14,15
 391 37 391 37 369 71 c 1,16,17
 335 29 335 29 293 10.5 c 128,-1,18
 251 -8 251 -8 206 -8 c 0,19,20
 166 -8 166 -8 134 5 c 128,-1,21
 102 18 102 18 79.5 41.5 c 128,-1,22
 57 65 57 65 45 95.5 c 128,-1,23
 33 126 33 126 33 160 c 0,24,25
 33 210 33 210 59 261 c 128,-1,26
 85 312 85 312 141 355 c 1,27,28
 113 392 113 392 96.5 430.5 c 128,-1,29
 80 469 80 469 80 509 c 0,30,31
 80 550 80 550 93 581 c 128,-1,32
 106 612 106 612 128.5 631.5 c 128,-1,33
 151 651 151 651 180 661 c 128,-1,34
 209 671 209 671 240 671 c 0,35,36
 268 671 268 671 294 662.5 c 128,-1,37
 320 654 320 654 340 636.5 c 128,-1,38
 360 619 360 619 372.5 593.5 c 128,-1,39
 385 568 385 568 385 535 c 0,40,41
 385 486 385 486 353 435 c 128,-1,42
 321 384 321 384 252 340 c 1,43,-1
 288 300 l 2,0,1
182 302 m 1,44,45
 151 274 151 274 136 238 c 128,-1,46
 121 202 121 202 121 169 c 0,47,48
 121 128 121 128 142 100.5 c 128,-1,49
 163 73 163 73 194 66 c 128,-1,50
 225 59 225 59 261 74.5 c 128,-1,51
 297 90 297 90 326 132 c 1,52,53
 291 180 291 180 253.5 221 c 128,-1,54
 216 262 216 262 182 302 c 1,44,45
305 526 m 0,55,56
 305 564 305 564 284.5 583 c 128,-1,57
 264 602 264 602 237 602 c 0,58,59
 209 602 209 602 185.5 580.5 c 128,-1,60
 162 559 162 559 162 515 c 0,61,62
 162 484 162 484 171.5 457.5 c 128,-1,63
 181 431 181 431 212 391 c 1,64,65
 263 423 263 423 284 459 c 128,-1,66
 305 495 305 495 305 526 c 0,55,56
EndSplineSet
EndChar

StartChar: quotesingle
Encoding: 39 39 10
Width: 500
Flags: W
LayerCount: 2
Fore
SplineSet
311 720 m 1,0,-1
 311 672 l 2,1,2
 311 649 311 649 309 618.5 c 128,-1,3
 307 588 307 588 304.5 556 c 128,-1,4
 302 524 302 524 299 492.5 c 128,-1,5
 296 461 296 461 292 437 c 1,6,-1
 237 437 l 1,7,8
 233 461 233 461 230 492.5 c 128,-1,9
 227 524 227 524 224.5 556 c 128,-1,10
 222 588 222 588 220 619 c 128,-1,11
 218 650 218 650 218 673 c 2,12,-1
 218 720 l 1,13,-1
 311 720 l 1,0,-1
EndSplineSet
EndChar

StartChar: parenleft
Encoding: 40 40 11
Width: 500
Flags: W
LayerCount: 2
Fore
SplineSet
407 679 m 1,0,1
 308 603 308 603 256.5 503.5 c 128,-1,2
 205 404 205 404 205 286 c 0,3,4
 205 227 205 227 217 174 c 128,-1,5
 229 121 229 121 254 72 c 128,-1,6
 279 23 279 23 317.5 -22.5 c 128,-1,7
 356 -68 356 -68 409 -113 c 1,8,-1
 361 -177 l 1,9,10
 239 -87 239 -87 179.5 32.5 c 128,-1,11
 120 152 120 152 120 284 c 0,12,13
 120 415 120 415 180.5 535 c 128,-1,14
 241 655 241 655 361 743 c 1,15,-1
 408 679 l 1,16,-1
 407 679 l 1,0,1
EndSplineSet
Substitution2: "'case' +WSdlh1tXfUQwf3UoMGuKv2V0MFcwX1tXX2IA lookup 17 +MLUw1jDGMPww1jDr" Parenleft
EndChar

StartChar: parenright
Encoding: 41 41 12
Width: 500
Flags: W
LayerCount: 2
Fore
SplineSet
122 -113 m 1,0,1
 221 -37 221 -37 273 62.5 c 128,-1,2
 325 162 325 162 325 280 c 0,3,4
 325 339 325 339 313 392 c 128,-1,5
 301 445 301 445 275.5 494 c 128,-1,6
 250 543 250 543 211.5 588.5 c 128,-1,7
 173 634 173 634 120 679 c 1,8,-1
 167 743 l 1,9,10
 289 653 289 653 349 533.5 c 128,-1,11
 409 414 409 414 409 282 c 0,12,13
 409 216 409 216 393.5 152.5 c 128,-1,14
 378 89 378 89 348 30 c 128,-1,15
 318 -29 318 -29 273 -81.5 c 128,-1,16
 228 -134 228 -134 167 -177 c 1,17,-1
 121 -113 l 1,18,-1
 122 -113 l 1,0,1
EndSplineSet
Substitution2: "'case' +WSdlh1tXfUQwf3UoMGuKv2V0MFcwX1tXX2IA lookup 17 +MLUw1jDGMPww1jDr" Parenright
EndChar

StartChar: asterisk
Encoding: 42 42 13
Width: 500
Flags: W
LayerCount: 2
Fore
SplineSet
304 262 m 1,0,1
 306 259 306 259 364 206 c 0,2,3
 374 197 374 197 416 144 c 2,4,-1
 420 139 l 1,5,-1
 346 85 l 1,6,-1
 340 91 l 2,7,8
 324 110 324 110 300 161 c 0,9,10
 282 199 282 199 266 233 c 1,11,12
 250 200 250 200 231 161 c 0,13,14
 214 123 214 123 189 91 c 1,15,-1
 183 86 l 1,16,-1
 110 139 l 1,17,-1
 116 145 l 1,18,19
 158 196 158 196 169 207 c 0,20,21
 200 236 200 236 227 262 c 1,22,23
 189 267 189 267 146 273 c 0,24,25
 120 278 120 278 68 292 c 2,26,-1
 60 294 l 1,27,-1
 89 381 l 1,28,-1
 96 377 l 1,29,30
 167 346 167 346 171 344 c 0,31,32
 210 326 210 326 243 307 c 1,33,34
 236 345 236 345 227 387 c 0,35,36
 220 420 220 420 220 469 c 2,37,-1
 220 476 l 1,38,-1
 312 476 l 1,39,-1
 312 469 l 2,40,41
 312 432 312 432 305 387 c 0,42,43
 299 346 299 346 289 307 c 1,44,45
 324 327 324 327 360 345 c 0,46,47
 398 362 398 362 435 376 c 2,48,-1
 442 379 l 1,49,-1
 470 293 l 1,50,-1
 463 290 l 2,51,52
 431 279 431 279 384 272 c 0,53,54
 343 266 343 266 304 262 c 1,0,1
EndSplineSet
EndChar

StartChar: plus
Encoding: 43 43 14
Width: 500
Flags: W
LayerCount: 2
Fore
SplineSet
49 316 m 1,0,-1
 227 316 l 1,1,-1
 227 511 l 1,2,-1
 303 511 l 1,3,-1
 303 316 l 1,4,-1
 482 316 l 1,5,-1
 482 242 l 1,6,-1
 303 242 l 1,7,-1
 303 46 l 1,8,-1
 227 46 l 1,9,-1
 227 242 l 1,10,-1
 49 242 l 1,11,-1
 49 316 l 1,0,-1
EndSplineSet
EndChar

StartChar: comma
Encoding: 44 44 15
Width: 500
Flags: W
LayerCount: 2
Fore
SplineSet
158 -84 m 1,0,1
 177 -80 177 -80 195.5 -75.5 c 128,-1,2
 214 -71 214 -71 230 -63 c 128,-1,3
 246 -55 246 -55 258.5 -43 c 128,-1,4
 271 -31 271 -31 279 -10 c 1,5,6
 245 -7 245 -7 229.5 16 c 128,-1,7
 214 39 214 39 214 61 c 0,8,9
 214 103 214 103 238 125 c 128,-1,10
 262 147 262 147 293 147 c 0,11,12
 332 147 332 147 352 119 c 128,-1,13
 372 91 372 91 372 51 c 0,14,15
 372 20 372 20 360 -13.5 c 128,-1,16
 348 -47 348 -47 323 -76 c 128,-1,17
 298 -105 298 -105 261 -125.5 c 128,-1,18
 224 -146 224 -146 173 -153 c 1,19,-1
 158 -84 l 1,0,1
EndSplineSet
EndChar

StartChar: hyphen
Encoding: 45 45 16
Width: 500
Flags: W
LayerCount: 2
Fore
SplineSet
49 316 m 1,0,-1
 482 316 l 1,1,-1
 482 242 l 1,2,-1
 49 242 l 1,3,-1
 49 316 l 1,0,-1
EndSplineSet
Substitution2: "'case' +WSdlh1tXfUQwf3UoMGuKv2V0MFcwX1tXX2IA lookup 17 +MLUw1jDGMPww1jDr" Hyphen
EndChar

StartChar: period
Encoding: 46 46 17
Width: 500
Flags: W
LayerCount: 2
Fore
SplineSet
343 68 m 0,0,1
 343 36 343 36 322 11.5 c 128,-1,2
 301 -13 301 -13 266 -13 c 0,3,4
 230 -13 230 -13 209 11.5 c 128,-1,5
 188 36 188 36 188 68 c 0,6,7
 188 101 188 101 209 125 c 128,-1,8
 230 149 230 149 266 149 c 0,9,10
 301 149 301 149 322 125 c 128,-1,11
 343 101 343 101 343 68 c 0,0,1
EndSplineSet
EndChar

StartChar: slash
Encoding: 47 47 18
Width: 500
Flags: W
LayerCount: 2
Fore
SplineSet
163 -175 m 1,0,-1
 73 -175 l 1,1,-1
 369 741 l 1,2,-1
 457 741 l 1,3,-1
 163 -175 l 1,0,-1
EndSplineSet
Substitution2: "'case' +WSdlh1tXfUQwf3UoMGuKv2V0MFcwX1tXX2IA lookup 17 +MLUw1jDGMPww1jDr" Slash
Substitution2: "'ss02' +MLkwvzCkMOswuzDDMMgA-2 lookup 14 +MLUw1jDGMPww1jDr" fraction
Substitution2: "'frac' +ZZwwgTBuUgZlcAAA lookup 12 +MLUw1jDGMPww1jDr" fraction
EndChar

StartChar: zero
Encoding: 48 48 19
Width: 500
Flags: W
LayerCount: 2
Fore
SplineSet
365 515 m 1,0,1
 350 551 350 551 325.5 572.5 c 128,-1,2
 301 594 301 594 265 594 c 128,-1,3
 229 594 229 594 204.5 572.5 c 128,-1,4
 180 551 180 551 165.5 515 c 128,-1,5
 151 479 151 479 144.5 431 c 128,-1,6
 138 383 138 383 138 329 c 0,7,8
 138 276 138 276 144 229 c 1,9,-1
 365 515 l 1,0,1
387 425 m 1,10,-1
 166 140 l 1,11,12
 181 105 181 105 205 85 c 0,13,14
 229 64 229 64 265 64 c 128,-1,15
 301 64 301 64 325.5 85 c 128,-1,16
 350 106 350 106 364.5 142 c 128,-1,17
 379 178 379 178 385.5 226.5 c 128,-1,18
 392 275 392 275 392 329 c 0,19,20
 392 379 392 379 387 425 c 1,10,-1
49 328.5 m 128,-1,22
 49 494 49 494 105.5 582.5 c 128,-1,23
 162 671 162 671 265 671 c 0,24,25
 369 671 369 671 425 582.5 c 128,-1,26
 481 494 481 494 481 328.5 c 128,-1,27
 481 163 481 163 425 74.5 c 128,-1,28
 369 -14 369 -14 265 -14 c 0,29,30
 162 -14 162 -14 105.5 74.5 c 128,-1,21
 49 163 49 163 49 328.5 c 128,-1,22
EndSplineSet
Substitution2: "'ss02' +MLkwvzCkMOswuzDDMMgA-2 lookup 15 +MLUw1jDGMPww1jDr" zerosuperior
Substitution2: "'sinf' +edFbZmWHcy51KE4LMGQwTWWHW1cA lookup 11 +MLUw1jDGMPww1jDr" zero.sinf
Substitution2: "'subs' +TgswZDBNZYdbVwAA lookup 10 +MLUw1jDGMPww1jDr" zero.sinf
Substitution2: "'sups' +TgowZDBNZYdbVwAA lookup 9 +MLUw1jDGMPww1jDr" zero.sups
Substitution2: "'dnom' +UgZrzQAA lookup 8 +MLUw1jDGMPww1jDr" zeroinferior
Substitution2: "'numr' +UgZbUAAA lookup 6 +MLUw1jDGMPww1jDr" zerosuperior
EndChar

StartChar: one
Encoding: 49 49 20
Width: 500
Flags: W
LayerCount: 2
Fore
SplineSet
80 520 m 1,0,1
 134 541 134 541 184.5 573.5 c 128,-1,2
 235 606 235 606 279 656 c 1,3,-1
 340 656 l 1,4,-1
 340 0 l 1,5,-1
 253 0 l 1,6,-1
 253 534 l 1,7,8
 241 523 241 523 225 512 c 128,-1,9
 209 501 209 501 189.5 490.5 c 128,-1,10
 170 480 170 480 148.5 470.5 c 128,-1,11
 127 461 127 461 107 455 c 1,12,-1
 80 520 l 1,0,1
EndSplineSet
Substitution2: "'ss02' +MLkwvzCkMOswuzDDMMgA-2 lookup 15 +MLUw1jDGMPww1jDr" onesuperior
Substitution2: "'sinf' +edFbZmWHcy51KE4LMGQwTWWHW1cA lookup 11 +MLUw1jDGMPww1jDr" one.sinf
Substitution2: "'subs' +TgswZDBNZYdbVwAA lookup 10 +MLUw1jDGMPww1jDr" one.sinf
Substitution2: "'sups' +TgowZDBNZYdbVwAA lookup 9 +MLUw1jDGMPww1jDr" one.sups
Substitution2: "'dnom' +UgZrzQAA lookup 8 +MLUw1jDGMPww1jDr" oneinferior
Substitution2: "'numr' +UgZbUAAA lookup 6 +MLUw1jDGMPww1jDr" onesuperior
EndChar

StartChar: two
Encoding: 50 50 21
Width: 500
Flags: W
LayerCount: 2
Fore
SplineSet
445 489 m 0,0,1
 445 455 445 455 432 423 c 128,-1,2
 419 391 419 391 397 360.5 c 128,-1,3
 375 330 375 330 347.5 300 c 128,-1,4
 320 270 320 270 292 242 c 0,5,6
 276 226 276 226 254.5 203.5 c 128,-1,7
 233 181 233 181 214 158 c 128,-1,8
 195 135 195 135 182.5 112.5 c 128,-1,9
 170 90 170 90 170 74 c 1,10,-1
 472 74 l 1,11,-1
 472 0 l 1,12,-1
 74 0 l 1,13,14
 73 5 73 5 73 11 c 128,-1,15
 73 17 73 17 73 22 c 0,16,17
 73 67 73 67 88 105 c 128,-1,18
 103 143 103 143 126 177 c 128,-1,19
 149 211 149 211 178.5 241 c 128,-1,20
 208 271 208 271 236 300 c 0,21,22
 259 323 259 323 281 345.5 c 128,-1,23
 303 368 303 368 319.5 390 c 128,-1,24
 336 412 336 412 346 436 c 128,-1,25
 356 460 356 460 356 485 c 0,26,27
 356 514 356 514 347 534 c 128,-1,28
 338 554 338 554 322.5 567.5 c 128,-1,29
 307 581 307 581 287 587.5 c 128,-1,30
 267 594 267 594 244 594 c 0,31,32
 216 594 216 594 193.5 586.5 c 128,-1,33
 171 579 171 579 153.5 568.5 c 128,-1,34
 136 558 136 558 123 547.5 c 128,-1,35
 110 537 110 537 104 531 c 1,36,-1
 60 593 l 1,37,38
 68 603 68 603 85.5 616.5 c 128,-1,39
 103 630 103 630 127 642 c 128,-1,40
 151 654 151 654 180.5 662.5 c 128,-1,41
 210 671 210 671 244 671 c 0,42,43
 347 671 347 671 396 624 c 128,-1,44
 445 577 445 577 445 489 c 0,0,1
EndSplineSet
Substitution2: "'ss02' +MLkwvzCkMOswuzDDMMgA-2 lookup 15 +MLUw1jDGMPww1jDr" twosuperior
Substitution2: "'sinf' +edFbZmWHcy51KE4LMGQwTWWHW1cA lookup 11 +MLUw1jDGMPww1jDr" two.sinf
Substitution2: "'subs' +TgswZDBNZYdbVwAA lookup 10 +MLUw1jDGMPww1jDr" two.sinf
Substitution2: "'sups' +TgowZDBNZYdbVwAA lookup 9 +MLUw1jDGMPww1jDr" two.sups
Substitution2: "'dnom' +UgZrzQAA lookup 8 +MLUw1jDGMPww1jDr" twoinferior
Substitution2: "'numr' +UgZbUAAA lookup 6 +MLUw1jDGMPww1jDr" twosuperior
EndChar

StartChar: three
Encoding: 51 51 22
Width: 500
Flags: W
LayerCount: 2
Fore
SplineSet
225 64 m 0,0,1
 309 64 309 64 344 97 c 128,-1,2
 379 130 379 130 379 187 c 0,3,4
 379 223 379 223 364.5 247 c 128,-1,5
 350 271 350 271 325.5 286 c 128,-1,6
 301 301 301 301 269 307.5 c 128,-1,7
 237 314 237 314 202 314 c 2,8,-1
 180 314 l 1,9,-1
 180 385 l 1,10,-1
 211 385 l 2,11,12
 234 385 234 385 259 389.5 c 128,-1,13
 284 394 284 394 304.5 406.5 c 128,-1,14
 325 419 325 419 338 440 c 128,-1,15
 351 461 351 461 351 494 c 0,16,17
 351 548 351 548 317.5 571 c 128,-1,18
 284 594 284 594 240 594 c 0,19,20
 194 594 194 594 162 580.5 c 128,-1,21
 130 567 130 567 109 553 c 1,22,-1
 75 620 l 1,23,24
 97 636 97 636 142.5 653.5 c 128,-1,25
 188 671 188 671 243 671 c 0,26,27
 295 671 295 671 332 658.5 c 128,-1,28
 369 646 369 646 393 622.5 c 128,-1,29
 417 599 417 599 428.5 567.5 c 128,-1,30
 440 536 440 536 440 499 c 0,31,32
 440 447 440 447 413 411 c 128,-1,33
 386 375 386 375 343 356 c 1,34,35
 394 341 394 341 431.5 298 c 128,-1,36
 469 255 469 255 469 184 c 0,37,38
 469 142 469 142 454.5 105.5 c 128,-1,39
 440 69 440 69 411 42.5 c 128,-1,40
 382 16 382 16 335.5 1 c 128,-1,41
 289 -14 289 -14 226 -14 c 0,42,43
 202 -14 202 -14 175.5 -10 c 128,-1,44
 149 -6 149 -6 127 -0.5 c 128,-1,45
 105 5 105 5 87.5 11 c 128,-1,46
 70 17 70 17 63 20 c 1,47,-1
 80 95 l 1,48,49
 97 87 97 87 134 75.5 c 128,-1,50
 171 64 171 64 225 64 c 0,0,1
EndSplineSet
Substitution2: "'ss02' +MLkwvzCkMOswuzDDMMgA-2 lookup 15 +MLUw1jDGMPww1jDr" threesuperior
Substitution2: "'sinf' +edFbZmWHcy51KE4LMGQwTWWHW1cA lookup 11 +MLUw1jDGMPww1jDr" three.sinf
Substitution2: "'subs' +TgswZDBNZYdbVwAA lookup 10 +MLUw1jDGMPww1jDr" three.sinf
Substitution2: "'sups' +TgowZDBNZYdbVwAA lookup 9 +MLUw1jDGMPww1jDr" three.sups
Substitution2: "'dnom' +UgZrzQAA lookup 8 +MLUw1jDGMPww1jDr" threeinferior
Substitution2: "'numr' +UgZbUAAA lookup 6 +MLUw1jDGMPww1jDr" threesuperior
EndChar

StartChar: four
Encoding: 52 52 23
Width: 500
Flags: W
LayerCount: 2
Fore
SplineSet
38 227 m 1,0,1
 56 269 56 269 87.5 324 c 128,-1,2
 119 379 119 379 158 438 c 128,-1,3
 197 497 197 497 241.5 554 c 128,-1,4
 286 611 286 611 332 656 c 1,5,-1
 417 656 l 1,6,-1
 417 240 l 1,7,-1
 494 240 l 1,8,-1
 494 167 l 1,9,-1
 417 167 l 1,10,-1
 417 0 l 1,11,-1
 332 0 l 1,12,-1
 332 167 l 1,13,-1
 38 167 l 1,14,-1
 38 227 l 1,0,1
332 552 m 1,15,16
 303 521 303 521 274 484 c 128,-1,17
 245 447 245 447 217.5 406.5 c 128,-1,18
 190 366 190 366 166 323.5 c 128,-1,19
 142 281 142 281 123 240 c 1,20,-1
 332 240 l 1,21,-1
 332 552 l 1,15,16
EndSplineSet
Substitution2: "'ss02' +MLkwvzCkMOswuzDDMMgA-2 lookup 15 +MLUw1jDGMPww1jDr" foursuperior
Substitution2: "'sinf' +edFbZmWHcy51KE4LMGQwTWWHW1cA lookup 11 +MLUw1jDGMPww1jDr" four.sinf
Substitution2: "'subs' +TgswZDBNZYdbVwAA lookup 10 +MLUw1jDGMPww1jDr" four.sinf
Substitution2: "'sups' +TgowZDBNZYdbVwAA lookup 9 +MLUw1jDGMPww1jDr" four.sups
Substitution2: "'dnom' +UgZrzQAA lookup 8 +MLUw1jDGMPww1jDr" fourinferior
Substitution2: "'numr' +UgZbUAAA lookup 6 +MLUw1jDGMPww1jDr" foursuperior
EndChar

StartChar: five
Encoding: 53 53 24
Width: 500
Flags: W
LayerCount: 2
Fore
SplineSet
197 403 m 1,0,1
 339 398 339 398 404 340.5 c 128,-1,2
 469 283 469 283 469 187 c 0,3,4
 469 144 469 144 455 106.5 c 128,-1,5
 441 69 441 69 412 42.5 c 128,-1,6
 383 16 383 16 338 1 c 128,-1,7
 293 -14 293 -14 231 -14 c 0,8,9
 206 -14 206 -14 181 -10 c 128,-1,10
 156 -6 156 -6 133.5 -1 c 128,-1,11
 111 4 111 4 94 10 c 128,-1,12
 77 16 77 16 70 20 c 1,13,-1
 87 95 l 1,14,15
 104 87 104 87 139.5 75.5 c 128,-1,16
 175 64 175 64 229 64 c 0,17,18
 271 64 271 64 300 73.5 c 128,-1,19
 329 83 329 83 346.5 99.5 c 128,-1,20
 364 116 364 116 371.5 137 c 128,-1,21
 379 158 379 158 379 181 c 0,22,23
 379 217 379 217 367 245 c 128,-1,24
 355 273 355 273 325 292.5 c 128,-1,25
 295 312 295 312 242.5 322 c 128,-1,26
 190 332 190 332 110 332 c 1,27,28
 116 379 116 379 120 419.5 c 128,-1,29
 124 460 124 460 126.5 498.5 c 128,-1,30
 129 537 129 537 130.5 575.5 c 128,-1,31
 132 614 132 614 135 656 c 1,32,-1
 450 656 l 1,33,-1
 450 582 l 1,34,-1
 211 582 l 1,35,36
 210 567 210 567 208.5 543 c 128,-1,37
 207 519 207 519 204.5 492.5 c 128,-1,38
 202 466 202 466 200 442 c 128,-1,39
 198 418 198 418 197 403 c 1,0,1
EndSplineSet
Substitution2: "'ss02' +MLkwvzCkMOswuzDDMMgA-2 lookup 15 +MLUw1jDGMPww1jDr" fivesuperior
Substitution2: "'sinf' +edFbZmWHcy51KE4LMGQwTWWHW1cA lookup 11 +MLUw1jDGMPww1jDr" five.sinf
Substitution2: "'subs' +TgswZDBNZYdbVwAA lookup 10 +MLUw1jDGMPww1jDr" five.sinf
Substitution2: "'sups' +TgowZDBNZYdbVwAA lookup 9 +MLUw1jDGMPww1jDr" five.sups
Substitution2: "'dnom' +UgZrzQAA lookup 8 +MLUw1jDGMPww1jDr" fiveinferior
Substitution2: "'numr' +UgZbUAAA lookup 6 +MLUw1jDGMPww1jDr" fivesuperior
EndChar

StartChar: six
Encoding: 54 54 25
Width: 500
Flags: W
LayerCount: 2
Fore
SplineSet
57 263 m 0,0,1
 57 358 57 358 83 432 c 128,-1,2
 109 506 109 506 157.5 555.5 c 128,-1,3
 206 605 206 605 274.5 631.5 c 128,-1,4
 343 658 343 658 430 659 c 1,5,-1
 438 585 l 1,6,7
 382 584 382 584 335.5 573 c 128,-1,8
 289 562 289 562 253 537 c 128,-1,9
 217 512 217 512 193 473 c 128,-1,10
 169 434 169 434 156 376 c 1,11,12
 181 388 181 388 211.5 395.5 c 128,-1,13
 242 403 242 403 276 403 c 0,14,15
 331 403 331 403 369.5 386 c 128,-1,16
 408 369 408 369 431.5 341 c 128,-1,17
 455 313 455 313 465.5 275.5 c 128,-1,18
 476 238 476 238 476 199 c 0,19,20
 476 163 476 163 464.5 125.5 c 128,-1,21
 453 88 453 88 428.5 56.5 c 128,-1,22
 404 25 404 25 366 5.5 c 128,-1,23
 328 -14 328 -14 275 -14 c 0,24,25
 166 -14 166 -14 111.5 59.5 c 128,-1,26
 57 133 57 133 57 263 c 0,0,1
266 331 m 0,27,28
 232 331 232 331 204 324.5 c 128,-1,29
 176 318 176 318 147 305 c 1,30,31
 146 294 146 294 146 284.5 c 128,-1,32
 146 275 146 275 146 263 c 0,33,34
 146 222 146 222 152 185 c 128,-1,35
 158 148 158 148 172.5 120 c 128,-1,36
 187 92 187 92 211 75.5 c 128,-1,37
 235 59 235 59 273 59 c 0,38,39
 305 59 305 59 326.5 72.5 c 128,-1,40
 348 86 348 86 361.5 106 c 128,-1,41
 375 126 375 126 381 151 c 128,-1,42
 387 176 387 176 387 198 c 0,43,44
 387 263 387 263 358 297 c 128,-1,45
 329 331 329 331 266 331 c 0,27,28
EndSplineSet
Substitution2: "'ss02' +MLkwvzCkMOswuzDDMMgA-2 lookup 15 +MLUw1jDGMPww1jDr" sixsuperior
Substitution2: "'sinf' +edFbZmWHcy51KE4LMGQwTWWHW1cA lookup 11 +MLUw1jDGMPww1jDr" six.sinf
Substitution2: "'subs' +TgswZDBNZYdbVwAA lookup 10 +MLUw1jDGMPww1jDr" six.sinf
Substitution2: "'sups' +TgowZDBNZYdbVwAA lookup 9 +MLUw1jDGMPww1jDr" six.sups
Substitution2: "'dnom' +UgZrzQAA lookup 8 +MLUw1jDGMPww1jDr" sixinferior
Substitution2: "'numr' +UgZbUAAA lookup 6 +MLUw1jDGMPww1jDr" sixsuperior
EndChar

StartChar: seven
Encoding: 55 55 26
Width: 500
Flags: W
LayerCount: 2
Fore
SplineSet
164 0 m 1,0,1
 169 75 169 75 191 159.5 c 128,-1,2
 213 244 213 244 244 323 c 128,-1,3
 275 402 275 402 312 469 c 128,-1,4
 349 536 349 536 385 580 c 1,5,-1
 67 580 l 1,6,-1
 67 656 l 1,7,-1
 482 656 l 1,8,-1
 482 583 l 1,9,10
 450 546 450 546 413 483.5 c 128,-1,11
 376 421 376 421 343 343 c 128,-1,12
 310 265 310 265 285.5 176.5 c 128,-1,13
 261 88 261 88 254 0 c 1,14,-1
 164 0 l 1,0,1
EndSplineSet
Substitution2: "'ss02' +MLkwvzCkMOswuzDDMMgA-2 lookup 15 +MLUw1jDGMPww1jDr" sevensuperior
Substitution2: "'sinf' +edFbZmWHcy51KE4LMGQwTWWHW1cA lookup 11 +MLUw1jDGMPww1jDr" seven.sinf
Substitution2: "'subs' +TgswZDBNZYdbVwAA lookup 10 +MLUw1jDGMPww1jDr" seven.sinf
Substitution2: "'sups' +TgowZDBNZYdbVwAA lookup 9 +MLUw1jDGMPww1jDr" seven.sups
Substitution2: "'dnom' +UgZrzQAA lookup 8 +MLUw1jDGMPww1jDr" seveninferior
Substitution2: "'numr' +UgZbUAAA lookup 6 +MLUw1jDGMPww1jDr" sevensuperior
EndChar

StartChar: eight
Encoding: 56 56 27
Width: 500
Flags: W
LayerCount: 2
Fore
SplineSet
476 171 m 0,0,1
 476 88 476 88 423.5 37 c 128,-1,2
 371 -14 371 -14 264 -14 c 0,3,4
 203 -14 203 -14 162.5 2.5 c 128,-1,5
 122 19 122 19 98 45 c 128,-1,6
 74 71 74 71 64 103 c 128,-1,7
 54 135 54 135 54 165 c 0,8,9
 54 221 54 221 85 264.5 c 128,-1,10
 116 308 116 308 158 335 c 1,11,12
 68 386 68 386 68 491 c 0,13,14
 68 527 68 527 81.5 560 c 128,-1,15
 95 593 95 593 120.5 617 c 128,-1,16
 146 641 146 641 182.5 656 c 128,-1,17
 219 671 219 671 265 671 c 0,18,19
 318 671 318 671 355.5 655 c 128,-1,20
 393 639 393 639 416.5 614 c 128,-1,21
 440 589 440 589 450.5 559 c 128,-1,22
 461 529 461 529 461 500 c 0,23,24
 461 444 461 444 432.5 403.5 c 128,-1,25
 404 363 404 363 367 338 c 1,26,27
 476 287 476 287 476 171 c 0,0,1
139 164 m 0,28,29
 139 147 139 147 145.5 128.5 c 128,-1,30
 152 110 152 110 166.5 94 c 128,-1,31
 181 78 181 78 205.5 68 c 128,-1,32
 230 58 230 58 265 58 c 0,33,34
 298 58 298 58 322 67 c 128,-1,35
 346 76 346 76 361 91.5 c 128,-1,36
 376 107 376 107 383.5 126 c 128,-1,37
 391 145 391 145 391 164 c 0,38,39
 391 224 391 224 347.5 256.5 c 128,-1,40
 304 289 304 289 228 306 c 1,41,42
 186 283 186 283 162.5 248 c 128,-1,43
 139 213 139 213 139 164 c 0,28,29
376 500 m 0,44,45
 376 514 376 514 370 531.5 c 128,-1,46
 364 549 364 549 350.5 563.5 c 128,-1,47
 337 578 337 578 316 588 c 128,-1,48
 295 598 295 598 265 598 c 0,49,50
 234 598 234 598 213.5 588.5 c 128,-1,51
 193 579 193 579 179 564.5 c 128,-1,52
 165 550 165 550 159.5 532.5 c 128,-1,53
 154 515 154 515 154 498 c 0,54,55
 154 455 154 455 185 417 c 128,-1,56
 216 379 216 379 288 363 c 1,57,58
 328 386 328 386 352 417.5 c 128,-1,59
 376 449 376 449 376 500 c 0,44,45
EndSplineSet
Substitution2: "'ss02' +MLkwvzCkMOswuzDDMMgA-2 lookup 15 +MLUw1jDGMPww1jDr" eightsuperior
Substitution2: "'sinf' +edFbZmWHcy51KE4LMGQwTWWHW1cA lookup 11 +MLUw1jDGMPww1jDr" eight.sinf
Substitution2: "'subs' +TgswZDBNZYdbVwAA lookup 10 +MLUw1jDGMPww1jDr" eight.sinf
Substitution2: "'sups' +TgowZDBNZYdbVwAA lookup 9 +MLUw1jDGMPww1jDr" eight.sups
Substitution2: "'dnom' +UgZrzQAA lookup 8 +MLUw1jDGMPww1jDr" eightinferior
Substitution2: "'numr' +UgZbUAAA lookup 6 +MLUw1jDGMPww1jDr" eightsuperior
EndChar

StartChar: nine
Encoding: 57 57 28
Width: 500
Flags: W
LayerCount: 2
Fore
SplineSet
474 393 m 0,0,1
 474 197 474 197 378.5 98 c 128,-1,2
 283 -1 283 -1 91 -2 c 1,3,-1
 88 72 l 1,4,5
 207 72 207 72 279.5 119 c 128,-1,6
 352 166 352 166 375 282 c 1,7,8
 350 270 350 270 319 263.5 c 128,-1,9
 288 257 288 257 254 257 c 0,10,11
 198 257 198 257 160 273 c 128,-1,12
 122 289 122 289 98.5 317.5 c 128,-1,13
 75 346 75 346 64.5 382 c 128,-1,14
 54 418 54 418 54 458 c 0,15,16
 54 494 54 494 65.5 531.5 c 128,-1,17
 77 569 77 569 101.5 600 c 128,-1,18
 126 631 126 631 164 651 c 128,-1,19
 202 671 202 671 255 671 c 0,20,21
 363 671 363 671 418.5 596.5 c 128,-1,22
 474 522 474 522 474 393 c 0,0,1
264 329 m 0,23,24
 298 329 298 329 327 335 c 128,-1,25
 356 341 356 341 384 353 c 1,26,27
 385 364 385 364 385 373.5 c 128,-1,28
 385 383 385 383 385 393 c 0,29,30
 385 434 385 434 379 471.5 c 128,-1,31
 373 509 373 509 358.5 536.5 c 128,-1,32
 344 564 344 564 319.5 580.5 c 128,-1,33
 295 597 295 597 257 597 c 0,34,35
 225 597 225 597 203.5 583.5 c 128,-1,36
 182 570 182 570 168.5 550.5 c 128,-1,37
 155 531 155 531 149 506.5 c 128,-1,38
 143 482 143 482 143 460 c 0,39,40
 143 395 143 395 172 362 c 128,-1,41
 201 329 201 329 264 329 c 0,23,24
EndSplineSet
Substitution2: "'ss02' +MLkwvzCkMOswuzDDMMgA-2 lookup 15 +MLUw1jDGMPww1jDr" ninesuperior
Substitution2: "'sinf' +edFbZmWHcy51KE4LMGQwTWWHW1cA lookup 11 +MLUw1jDGMPww1jDr" nine.sinf
Substitution2: "'subs' +TgswZDBNZYdbVwAA lookup 10 +MLUw1jDGMPww1jDr" nine.sinf
Substitution2: "'sups' +TgowZDBNZYdbVwAA lookup 9 +MLUw1jDGMPww1jDr" nine.sups
Substitution2: "'dnom' +UgZrzQAA lookup 8 +MLUw1jDGMPww1jDr" nineinferior
Substitution2: "'numr' +UgZbUAAA lookup 6 +MLUw1jDGMPww1jDr" ninesuperior
EndChar

StartChar: colon
Encoding: 58 58 29
Width: 500
Flags: W
LayerCount: 2
Fore
SplineSet
343 410 m 0,0,1
 343 378 343 378 322 354 c 128,-1,2
 301 330 301 330 266 330 c 0,3,4
 230 330 230 330 209 354 c 128,-1,5
 188 378 188 378 188 410 c 0,6,7
 188 443 188 443 209 467.5 c 128,-1,8
 230 492 230 492 266 492 c 0,9,10
 301 492 301 492 322 467.5 c 128,-1,11
 343 443 343 443 343 410 c 0,0,1
343 68 m 0,12,13
 343 36 343 36 322 11.5 c 128,-1,14
 301 -13 301 -13 266 -13 c 0,15,16
 230 -13 230 -13 209 11.5 c 128,-1,17
 188 36 188 36 188 68 c 0,18,19
 188 101 188 101 209 125 c 128,-1,20
 230 149 230 149 266 149 c 0,21,22
 301 149 301 149 322 125 c 128,-1,23
 343 101 343 101 343 68 c 0,12,13
EndSplineSet
EndChar

StartChar: semicolon
Encoding: 59 59 30
Width: 500
Flags: W
LayerCount: 2
Fore
SplineSet
343 410 m 0,0,1
 343 378 343 378 322 354 c 128,-1,2
 301 330 301 330 266 330 c 0,3,4
 230 330 230 330 209 354 c 128,-1,5
 188 378 188 378 188 410 c 0,6,7
 188 443 188 443 209 467.5 c 128,-1,8
 230 492 230 492 266 492 c 0,9,10
 301 492 301 492 322 467.5 c 128,-1,11
 343 443 343 443 343 410 c 0,0,1
132 -84 m 1,12,13
 151 -80 151 -80 170 -75.5 c 128,-1,14
 189 -71 189 -71 204.5 -63 c 128,-1,15
 220 -55 220 -55 233 -43 c 128,-1,16
 246 -31 246 -31 253 -10 c 1,17,18
 219 -7 219 -7 204 16 c 128,-1,19
 189 39 189 39 189 61 c 0,20,21
 189 103 189 103 212.5 125 c 128,-1,22
 236 147 236 147 267 147 c 0,23,24
 306 147 306 147 326.5 119 c 128,-1,25
 347 91 347 91 347 51 c 0,26,27
 347 20 347 20 334.5 -13.5 c 128,-1,28
 322 -47 322 -47 297 -76 c 128,-1,29
 272 -105 272 -105 235 -125.5 c 128,-1,30
 198 -146 198 -146 147 -153 c 1,31,-1
 132 -84 l 1,12,13
EndSplineSet
EndChar

StartChar: less
Encoding: 60 60 31
Width: 500
Flags: W
LayerCount: 2
Fore
SplineSet
149 270 m 1,0,-1
 485 131 l 1,1,-1
 461 58 l 1,2,-1
 52 232 l 1,3,-1
 52 307 l 1,4,-1
 461 481 l 1,5,-1
 485 408 l 1,6,-1
 149 270 l 1,0,-1
EndSplineSet
EndChar

StartChar: equal
Encoding: 61 61 32
Width: 500
Flags: W
LayerCount: 2
Fore
SplineSet
49 215 m 1,0,-1
 482 215 l 1,1,-1
 482 140 l 1,2,-1
 49 140 l 1,3,-1
 49 215 l 1,0,-1
49 417 m 1,4,-1
 482 417 l 1,5,-1
 482 341 l 1,6,-1
 49 341 l 1,7,-1
 49 417 l 1,4,-1
EndSplineSet
EndChar

StartChar: greater
Encoding: 62 62 33
Width: 500
Flags: W
LayerCount: 2
Fore
SplineSet
52 408 m 1,0,-1
 76 481 l 1,1,-1
 485 307 l 1,2,-1
 485 232 l 1,3,-1
 76 58 l 1,4,-1
 52 131 l 1,5,-1
 388 270 l 1,6,-1
 52 408 l 1,0,-1
EndSplineSet
EndChar

StartChar: question
Encoding: 63 63 34
Width: 500
Flags: W
LayerCount: 2
Fore
SplineSet
196 224 m 1,0,-1
 195 244 l 2,1,2
 195 290 195 290 218.5 323 c 128,-1,3
 242 356 242 356 270 384.5 c 128,-1,4
 298 413 298 413 321 442 c 128,-1,5
 344 471 344 471 344 508 c 0,6,7
 344 548 344 548 319 572.5 c 128,-1,8
 294 597 294 597 244 597 c 0,9,10
 213 597 213 597 183 589.5 c 128,-1,11
 153 582 153 582 122 565 c 1,12,-1
 98 633 l 1,13,14
 130 651 130 651 170 661 c 128,-1,15
 210 671 210 671 255 671 c 0,16,17
 309 671 309 671 343.5 656 c 128,-1,18
 378 641 378 641 398.5 618.5 c 128,-1,19
 419 596 419 596 427 568.5 c 128,-1,20
 435 541 435 541 435 515 c 0,21,22
 435 483 435 483 422.5 458.5 c 128,-1,23
 410 434 410 434 392 411.5 c 128,-1,24
 374 389 374 389 353 369 c 128,-1,25
 332 349 332 349 314 327 c 128,-1,26
 296 305 296 305 283.5 279.5 c 128,-1,27
 271 254 271 254 271 224 c 1,28,-1
 196 224 l 1,0,-1
242 -13 m 0,29,30
 212 -13 212 -13 191.5 6.5 c 128,-1,31
 171 26 171 26 171 59 c 128,-1,32
 171 92 171 92 191.5 111.5 c 128,-1,33
 212 131 212 131 242 131 c 0,34,35
 271 131 271 131 292 111.5 c 128,-1,36
 313 92 313 92 313 59 c 128,-1,37
 313 26 313 26 292 6.5 c 128,-1,38
 271 -13 271 -13 242 -13 c 0,29,30
EndSplineSet
EndChar

StartChar: at
Encoding: 64 64 35
Width: 500
Flags: W
LayerCount: 2
Fore
SplineSet
496 67 m 1,0,1
 464 54 464 54 431.5 49.5 c 128,-1,2
 399 45 399 45 371 45 c 0,3,4
 334 45 334 45 302 57 c 128,-1,5
 270 69 270 69 246.5 94.5 c 128,-1,6
 223 120 223 120 209.5 159.5 c 128,-1,7
 196 199 196 199 196 254 c 0,8,9
 196 353 196 353 247 404.5 c 128,-1,10
 298 456 298 456 379 456 c 0,11,12
 387 456 387 456 395.5 455.5 c 128,-1,13
 404 455 404 455 412 454 c 1,14,15
 412 521 412 521 384.5 560 c 128,-1,16
 357 599 357 599 297 599 c 0,17,18
 260 599 260 599 229 581 c 128,-1,19
 198 563 198 563 176 523 c 128,-1,20
 154 483 154 483 141 420.5 c 128,-1,21
 128 358 128 358 128 269 c 0,22,23
 128 202 128 202 141 140 c 128,-1,24
 154 78 154 78 181 31.5 c 128,-1,25
 208 -15 208 -15 250 -43 c 128,-1,26
 292 -71 292 -71 350 -71 c 0,27,28
 392 -71 392 -71 438 -57 c 1,29,-1
 446 -128 l 1,30,31
 390 -143 390 -143 342 -143 c 0,32,33
 265 -143 265 -143 208.5 -108.5 c 128,-1,34
 152 -74 152 -74 115 -18 c 128,-1,35
 78 38 78 38 60 110 c 128,-1,36
 42 182 42 182 42 258 c 0,37,38
 42 367 42 367 62 445.5 c 128,-1,39
 82 524 82 524 116.5 573.5 c 128,-1,40
 151 623 151 623 196.5 647 c 128,-1,41
 242 671 242 671 295 671 c 0,42,43
 388 671 388 671 442 608 c 128,-1,44
 496 545 496 545 496 432 c 2,45,-1
 496 67 l 1,0,1
281 254 m 0,46,47
 281 233 281 233 283.5 208.5 c 128,-1,48
 286 184 286 184 295.5 163.5 c 128,-1,49
 305 143 305 143 322.5 128.5 c 128,-1,50
 340 114 340 114 371 114 c 0,51,52
 379 114 379 114 390 115.5 c 128,-1,53
 401 117 401 117 412 120 c 1,54,-1
 412 379 l 1,55,56
 402 382 402 382 393.5 383.5 c 128,-1,57
 385 385 385 385 376 385 c 0,58,59
 330 385 330 385 305.5 349 c 128,-1,60
 281 313 281 313 281 254 c 0,46,47
EndSplineSet
Substitution2: "'case' +WSdlh1tXfUQwf3UoMGuKv2V0MFcwX1tXX2IA lookup 17 +MLUw1jDGMPww1jDr" At
EndChar

StartChar: A
Encoding: 65 65 36
Width: 500
Flags: W
LayerCount: 2
Fore
SplineSet
428 0 m 1,0,-1
 389 172 l 1,1,-1
 137 172 l 1,2,-1
 99 0 l 1,3,-1
 10 0 l 1,4,5
 28 70 28 70 50 151.5 c 128,-1,6
 72 233 72 233 98 319 c 128,-1,7
 124 405 124 405 152.5 491.5 c 128,-1,8
 181 578 181 578 213 656 c 1,9,-1
 321 656 l 1,10,11
 352 578 352 578 380 491.5 c 128,-1,12
 408 405 408 405 433 319 c 128,-1,13
 458 233 458 233 480 151.5 c 128,-1,14
 502 70 502 70 520 0 c 1,15,-1
 428 0 l 1,0,-1
264 580 m 1,16,17
 240 513 240 513 211 425 c 128,-1,18
 182 337 182 337 157 244 c 1,19,-1
 369 244 l 1,20,21
 345 339 345 339 316.5 427.5 c 128,-1,22
 288 516 288 516 264 580 c 1,16,17
EndSplineSet
EndChar

StartChar: B
Encoding: 66 66 37
Width: 500
Flags: W
LayerCount: 2
Fore
SplineSet
216 -5 m 0,0,1
 200 -5 200 -5 179 -4 c 128,-1,2
 158 -3 158 -3 137 -1.5 c 128,-1,3
 116 0 116 0 94.5 3 c 128,-1,4
 73 6 73 6 57 11 c 1,5,-1
 57 647 l 1,6,7
 73 651 73 651 93.5 654 c 128,-1,8
 114 657 114 657 136 658.5 c 128,-1,9
 158 660 158 660 178.5 661 c 128,-1,10
 199 662 199 662 216 662 c 0,11,12
 265 662 265 662 307.5 654 c 128,-1,13
 350 646 350 646 381 625.5 c 128,-1,14
 412 605 412 605 429.5 572.5 c 128,-1,15
 447 540 447 540 447 491 c 0,16,17
 447 468 447 468 439.5 446 c 128,-1,18
 432 424 432 424 419 405 c 128,-1,19
 406 386 406 386 388.5 371.5 c 128,-1,20
 371 357 371 357 351 350 c 1,21,22
 405 335 405 335 441.5 295 c 128,-1,23
 478 255 478 255 478 192 c 0,24,25
 478 94 478 94 415.5 44.5 c 128,-1,26
 353 -5 353 -5 216 -5 c 0,0,1
144 306 m 1,27,-1
 144 72 l 2,28,29
 146 71 146 71 168 69.5 c 128,-1,30
 190 68 190 68 222.5 68 c 128,-1,31
 255 68 255 68 285.5 73 c 128,-1,32
 316 78 316 78 339.5 92.5 c 128,-1,33
 363 107 363 107 377 130.5 c 128,-1,34
 391 154 391 154 391 191 c 0,35,36
 391 224 391 224 378 246 c 128,-1,37
 365 268 365 268 343 281.5 c 128,-1,38
 321 295 321 295 292.5 300.5 c 128,-1,39
 264 306 264 306 233 306 c 2,40,-1
 144 306 l 1,27,-1
144 378 m 1,41,-1
 213 378 l 2,42,43
 239 378 239 378 266 383.5 c 128,-1,44
 293 389 293 389 314 400.5 c 128,-1,45
 335 412 335 412 347.5 432.5 c 128,-1,46
 360 453 360 453 360 483 c 0,47,48
 360 512 360 512 348.5 532 c 128,-1,49
 337 552 337 552 318 565 c 128,-1,50
 299 578 299 578 274 583 c 128,-1,51
 249 588 249 588 221.5 588 c 128,-1,52
 194 588 194 588 173.5 587.5 c 128,-1,53
 153 587 153 587 144 585 c 1,54,-1
 144 378 l 1,41,-1
EndSplineSet
EndChar

StartChar: C
Encoding: 67 67 38
Width: 500
Flags: W
LayerCount: 2
Fore
SplineSet
488 28 m 1,0,1
 451 7 451 7 409 -3.5 c 128,-1,2
 367 -14 367 -14 319 -14 c 0,3,4
 261 -14 261 -14 211.5 7 c 128,-1,5
 162 28 162 28 126 69.5 c 128,-1,6
 90 111 90 111 69.5 176 c 128,-1,7
 49 241 49 241 49 329 c 0,8,9
 49 413 49 413 70.5 476.5 c 128,-1,10
 92 540 92 540 129 583 c 128,-1,11
 166 626 166 626 216 648.5 c 128,-1,12
 266 671 266 671 322 671 c 0,13,14
 361 671 361 671 402 660.5 c 128,-1,15
 443 650 443 650 482 625 c 1,16,-1
 457 553 l 1,17,18
 387 593 387 593 325 594 c 0,19,20
 282 594 282 594 247.5 575 c 128,-1,21
 213 556 213 556 188.5 521.5 c 128,-1,22
 164 487 164 487 151 438 c 128,-1,23
 138 389 138 389 138 329 c 0,24,25
 138 261 138 261 152 211 c 128,-1,26
 166 161 166 161 191.5 128 c 128,-1,27
 217 95 217 95 252.5 79.5 c 128,-1,28
 288 64 288 64 330 64 c 0,29,30
 361 64 361 64 394.5 72 c 128,-1,31
 428 80 428 80 464 100 c 1,32,-1
 488 28 l 1,0,1
EndSplineSet
EndChar

StartChar: D
Encoding: 68 68 39
Width: 500
Flags: W
LayerCount: 2
Fore
SplineSet
488 329 m 0,0,1
 488 238 488 238 465 174 c 128,-1,2
 442 110 442 110 402.5 70.5 c 128,-1,3
 363 31 363 31 308 13 c 128,-1,4
 253 -5 253 -5 190 -5 c 0,5,6
 124 -5 124 -5 57 11 c 1,7,-1
 57 647 l 1,8,9
 124 662 124 662 190 662 c 0,10,11
 254 662 254 662 308.5 644 c 128,-1,12
 363 626 363 626 402.5 586 c 128,-1,13
 442 546 442 546 465 482.5 c 128,-1,14
 488 419 488 419 488 329 c 0,0,1
144 73 m 1,15,16
 170 70 170 70 198 70 c 0,17,18
 246 70 246 70 283 84.5 c 128,-1,19
 320 99 320 99 345.5 130 c 128,-1,20
 371 161 371 161 385 210.5 c 128,-1,21
 399 260 399 260 399 329 c 0,22,23
 399 463 399 463 347.5 525 c 128,-1,24
 296 587 296 587 195 587 c 0,25,26
 181 587 181 587 168 586.5 c 128,-1,27
 155 586 155 586 144 584 c 1,28,-1
 144 73 l 1,15,16
EndSplineSet
EndChar

StartChar: E
Encoding: 69 69 40
Width: 500
Flags: W
LayerCount: 2
Fore
SplineSet
96 0 m 1,0,-1
 96 656 l 1,1,-1
 464 656 l 1,2,-1
 464 582 l 1,3,-1
 183 582 l 1,4,-1
 183 381 l 1,5,-1
 429 381 l 1,6,-1
 429 306 l 1,7,-1
 183 306 l 1,8,-1
 183 74 l 1,9,-1
 488 74 l 1,10,-1
 488 0 l 1,11,-1
 96 0 l 1,0,-1
EndSplineSet
EndChar

StartChar: F
Encoding: 70 70 41
Width: 500
Flags: W
LayerCount: 2
Fore
SplineSet
96 0 m 1,0,-1
 96 656 l 1,1,-1
 469 656 l 1,2,-1
 469 582 l 1,3,-1
 183 582 l 1,4,-1
 183 377 l 1,5,-1
 435 377 l 1,6,-1
 435 304 l 1,7,-1
 183 304 l 1,8,-1
 183 0 l 1,9,-1
 96 0 l 1,0,-1
EndSplineSet
EndChar

StartChar: G
Encoding: 71 71 42
Width: 500
Flags: W
LayerCount: 2
Fore
SplineSet
395 240 m 1,0,-1
 322 240 l 1,1,-1
 322 324 l 1,2,-1
 482 323 l 1,3,-1
 482 16 l 1,4,5
 462 9 462 9 417.5 -2.5 c 128,-1,6
 373 -14 373 -14 313 -14 c 0,7,8
 254 -14 254 -14 205 9 c 128,-1,9
 156 32 156 32 121.5 75.5 c 128,-1,10
 87 119 87 119 68 183 c 128,-1,11
 49 247 49 247 49 329 c 0,12,13
 49 412 49 412 70 475 c 128,-1,14
 91 538 91 538 127.5 581.5 c 128,-1,15
 164 625 164 625 213 648 c 128,-1,16
 262 671 262 671 318 671 c 0,17,18
 354 671 354 671 381.5 665.5 c 128,-1,19
 409 660 409 660 428.5 653 c 128,-1,20
 448 646 448 646 461 638 c 128,-1,21
 474 630 474 630 480 625 c 1,22,-1
 452 552 l 1,23,24
 428 571 428 571 394 583.5 c 128,-1,25
 360 596 360 596 323 596 c 0,26,27
 283 596 283 596 248.5 577 c 128,-1,28
 214 558 214 558 189.5 523 c 128,-1,29
 165 488 165 488 151.5 438.5 c 128,-1,30
 138 389 138 389 138 329 c 0,31,32
 138 270 138 270 150 221 c 128,-1,33
 162 172 162 172 185.5 137 c 128,-1,34
 209 102 209 102 243.5 82.5 c 128,-1,35
 278 63 278 63 322 63 c 0,36,37
 353 63 353 63 370 67 c 128,-1,38
 387 71 387 71 395 75 c 1,39,-1
 395 240 l 1,0,-1
EndSplineSet
EndChar

StartChar: H
Encoding: 72 72 43
Width: 500
Flags: W
LayerCount: 2
Fore
SplineSet
395 656 m 1,0,-1
 482 656 l 1,1,-1
 482 0 l 1,2,-1
 395 0 l 1,3,-1
 395 305 l 1,4,-1
 135 305 l 1,5,-1
 135 0 l 1,6,-1
 48 0 l 1,7,-1
 48 656 l 1,8,-1
 135 656 l 1,9,-1
 135 379 l 1,10,-1
 395 379 l 1,11,-1
 395 656 l 1,0,-1
EndSplineSet
EndChar

StartChar: I
Encoding: 73 73 44
Width: 500
Flags: W
LayerCount: 2
Fore
SplineSet
308 582 m 1,0,-1
 308 74 l 1,1,-1
 436 74 l 1,2,-1
 436 0 l 1,3,-1
 94 0 l 1,4,-1
 94 74 l 1,5,-1
 222 74 l 1,6,-1
 222 582 l 1,7,-1
 94 582 l 1,8,-1
 94 656 l 1,9,-1
 436 656 l 1,10,-1
 436 582 l 1,11,-1
 308 582 l 1,0,-1
EndSplineSet
EndChar

StartChar: J
Encoding: 74 74 45
Width: 500
Flags: W
LayerCount: 2
Fore
SplineSet
358 582 m 1,0,-1
 358 656 l 1,1,-1
 445 656 l 1,2,-1
 445 211 l 2,3,4
 445 164 445 164 435 123 c 128,-1,5
 425 82 425 82 400 51.5 c 128,-1,6
 375 21 375 21 333.5 3.5 c 128,-1,7
 292 -14 292 -14 228 -14 c 128,-1,8
 164 -14 164 -14 120.5 4 c 128,-1,9
 77 22 77 22 57 39 c 1,10,-1
 92 110 l 1,11,12
 112 95 112 95 145.5 78 c 128,-1,13
 179 61 179 61 224 61 c 0,14,15
 292 61 292 61 325 97.5 c 128,-1,16
 358 134 358 134 358 219 c 2,17,-1
 358 582 l 1,0,-1
EndSplineSet
EndChar

StartChar: K
Encoding: 75 75 46
Width: 500
Flags: W
LayerCount: 2
Fore
SplineSet
498 656 m 1,0,1
 446 579 446 579 384 502.5 c 128,-1,2
 322 426 322 426 250 350 c 1,3,4
 284 321 284 321 322 283 c 128,-1,5
 360 245 360 245 397 200 c 128,-1,6
 434 155 434 155 466 104 c 128,-1,7
 498 53 498 53 520 0 c 1,8,-1
 422 0 l 1,9,10
 396 49 396 49 365 95.5 c 128,-1,11
 334 142 334 142 299.5 182.5 c 128,-1,12
 265 223 265 223 228.5 256 c 128,-1,13
 192 289 192 289 155 314 c 1,14,-1
 155 0 l 1,15,-1
 68 0 l 1,16,-1
 68 656 l 1,17,-1
 155 656 l 1,18,-1
 155 364 l 1,19,20
 224 435 224 435 287 512 c 128,-1,21
 350 589 350 589 398 656 c 1,22,-1
 498 656 l 1,0,1
EndSplineSet
EndChar

StartChar: L
Encoding: 76 76 47
Width: 500
Flags: W
LayerCount: 2
Fore
SplineSet
488 74 m 1,0,-1
 488 0 l 1,1,-1
 96 0 l 1,2,-1
 96 656 l 1,3,-1
 183 656 l 1,4,-1
 183 74 l 1,5,-1
 488 74 l 1,0,-1
EndSplineSet
EndChar

StartChar: M
Encoding: 77 77 48
Width: 500
Flags: W
LayerCount: 2
Fore
SplineSet
266 330 m 1,0,-1
 368 656 l 1,1,-1
 449 656 l 1,2,3
 470 501 470 501 479.5 339 c 128,-1,4
 489 177 489 177 496 0 c 1,5,-1
 411 0 l 1,6,7
 410 57 410 57 409 124 c 128,-1,8
 408 191 408 191 406.5 262 c 128,-1,9
 405 333 405 333 403.5 406 c 128,-1,10
 402 479 402 479 400 548 c 1,11,-1
 304 249 l 1,12,-1
 228 249 l 1,13,-1
 130 548 l 1,14,15
 129 479 129 479 127.5 406.5 c 128,-1,16
 126 334 126 334 124.5 262.5 c 128,-1,17
 123 191 123 191 121.5 124 c 128,-1,18
 120 57 120 57 119 0 c 1,19,-1
 34 0 l 1,20,21
 37 81 37 81 41.5 165.5 c 128,-1,22
 46 250 46 250 51.5 334 c 128,-1,23
 57 418 57 418 65 499.5 c 128,-1,24
 73 581 73 581 83 656 c 1,25,-1
 163 656 l 1,26,-1
 266 330 l 1,0,-1
EndSplineSet
EndChar

StartChar: N
Encoding: 78 78 49
Width: 500
Flags: W
LayerCount: 2
Fore
SplineSet
383 0 m 1,0,1
 347 88 347 88 315 159.5 c 128,-1,2
 283 231 283 231 254 293.5 c 128,-1,3
 225 356 225 356 196 411.5 c 128,-1,4
 167 467 167 467 138 524 c 1,5,-1
 138 0 l 1,6,-1
 58 0 l 1,7,-1
 58 656 l 1,8,-1
 147 656 l 1,9,10
 190 576 190 576 222.5 517 c 128,-1,11
 255 458 255 458 282.5 402.5 c 128,-1,12
 310 347 310 347 335 288 c 128,-1,13
 360 229 360 229 392 152 c 1,14,-1
 392 656 l 1,15,-1
 472 656 l 1,16,-1
 472 0 l 1,17,-1
 383 0 l 1,0,1
EndSplineSet
EndChar

StartChar: O
Encoding: 79 79 50
Width: 500
Flags: W
LayerCount: 2
Fore
SplineSet
31 329 m 128,-1,1
 31 417 31 417 48 481.5 c 128,-1,2
 65 546 65 546 95.5 588 c 128,-1,3
 126 630 126 630 169 650.5 c 128,-1,4
 212 671 212 671 265 671 c 0,5,6
 317 671 317 671 360.5 650.5 c 128,-1,7
 404 630 404 630 434.5 588 c 128,-1,8
 465 546 465 546 482.5 481.5 c 128,-1,9
 500 417 500 417 500 329 c 128,-1,10
 500 241 500 241 482.5 176 c 128,-1,11
 465 111 465 111 434.5 68.5 c 128,-1,12
 404 26 404 26 360.5 6 c 128,-1,13
 317 -14 317 -14 265 -14 c 0,14,15
 212 -14 212 -14 169 6 c 128,-1,16
 126 26 126 26 95.5 68.5 c 128,-1,17
 65 111 65 111 48 176 c 128,-1,0
 31 241 31 241 31 329 c 128,-1,1
120 328.5 m 128,-1,19
 120 199 120 199 155 130 c 128,-1,20
 190 61 190 61 263 61 c 0,21,22
 337 61 337 61 374 130 c 128,-1,23
 411 199 411 199 411 328.5 c 128,-1,24
 411 458 411 458 374 527 c 128,-1,25
 337 596 337 596 263 596 c 0,26,27
 190 596 190 596 155 527 c 128,-1,18
 120 458 120 458 120 328.5 c 128,-1,19
EndSplineSet
EndChar

StartChar: P
Encoding: 80 80 51
Width: 500
Flags: W
LayerCount: 2
Fore
SplineSet
249 662 m 0,0,1
 307 662 307 662 351 647.5 c 128,-1,2
 395 633 395 633 424.5 606 c 128,-1,3
 454 579 454 579 468 542 c 128,-1,4
 482 505 482 505 482 459 c 0,5,6
 482 356 482 356 421.5 300.5 c 128,-1,7
 361 245 361 245 241 245 c 2,8,-1
 164 245 l 1,9,-1
 164 0 l 1,10,-1
 77 0 l 1,11,-1
 77 647 l 1,12,13
 96 651 96 651 119 654 c 128,-1,14
 142 657 142 657 165 659 c 128,-1,15
 188 661 188 661 209.5 661.5 c 128,-1,16
 231 662 231 662 249 662 c 0,0,1
255 587 m 0,17,18
 227 587 227 587 202 586.5 c 128,-1,19
 177 586 177 586 164 584 c 1,20,-1
 164 319 l 1,21,-1
 236 319 l 2,22,23
 316 319 316 319 354.5 351 c 128,-1,24
 393 383 393 383 393 456 c 0,25,26
 393 587 393 587 255 587 c 0,17,18
EndSplineSet
EndChar

StartChar: Q
Encoding: 81 81 52
Width: 500
Flags: W
LayerCount: 2
Fore
SplineSet
31 328 m 0,0,1
 31 416 31 416 48 480.5 c 128,-1,2
 65 545 65 545 95.5 587 c 128,-1,3
 126 629 126 629 169 649.5 c 128,-1,4
 212 670 212 670 265 670 c 0,5,6
 317 670 317 670 360.5 649.5 c 128,-1,7
 404 629 404 629 434.5 587 c 128,-1,8
 465 545 465 545 482.5 480.5 c 128,-1,9
 500 416 500 416 500 328 c 0,10,11
 500 250 500 250 486.5 189.5 c 128,-1,12
 473 129 473 129 447.5 87 c 128,-1,13
 422 45 422 45 386 20.5 c 128,-1,14
 350 -4 350 -4 306 -12 c 1,15,16
 309 -33 309 -33 324 -48.5 c 128,-1,17
 339 -64 339 -64 362 -75 c 128,-1,18
 385 -86 385 -86 414 -93.5 c 128,-1,19
 443 -101 443 -101 475 -105 c 1,20,-1
 455 -175 l 1,21,22
 412 -168 412 -168 372 -156 c 128,-1,23
 332 -144 332 -144 300 -125 c 128,-1,24
 268 -106 268 -106 246 -78.5 c 128,-1,25
 224 -51 224 -51 216 -11 c 1,26,27
 130 7 130 7 80.5 89.5 c 128,-1,28
 31 172 31 172 31 328 c 0,0,1
120 327.5 m 128,-1,30
 120 198 120 198 155 129 c 128,-1,31
 190 60 190 60 263 60 c 0,32,33
 337 60 337 60 374 129 c 128,-1,34
 411 198 411 198 411 327.5 c 128,-1,35
 411 457 411 457 374 526 c 128,-1,36
 337 595 337 595 263 595 c 0,37,38
 190 595 190 595 155 526 c 128,-1,29
 120 457 120 457 120 327.5 c 128,-1,30
EndSplineSet
EndChar

StartChar: R
Encoding: 82 82 53
Width: 500
Flags: W
LayerCount: 2
Fore
SplineSet
457 456 m 0,0,1
 457 396 457 396 425 349.5 c 128,-1,2
 393 303 393 303 339 278 c 1,3,4
 355 253 355 253 374.5 220.5 c 128,-1,5
 394 188 394 188 414.5 151 c 128,-1,6
 435 114 435 114 454.5 75.5 c 128,-1,7
 474 37 474 37 491 0 c 1,8,-1
 398 0 l 1,9,10
 366 76 366 76 328 146 c 128,-1,11
 290 216 290 216 255 260 c 1,12,13
 249 259 249 259 237 259 c 128,-1,14
 225 259 225 259 220 259 c 2,15,-1
 146 259 l 1,16,-1
 146 0 l 1,17,-1
 58 0 l 1,18,-1
 58 647 l 1,19,20
 74 651 74 651 95 654 c 128,-1,21
 116 657 116 657 137.5 658.5 c 128,-1,22
 159 660 159 660 180 661 c 128,-1,23
 201 662 201 662 218 662 c 0,24,25
 337 662 337 662 397 610.5 c 128,-1,26
 457 559 457 559 457 456 c 0,0,1
226 587 m 0,27,28
 202 587 202 587 179 586.5 c 128,-1,29
 156 586 156 586 146 584 c 1,30,-1
 146 331 l 1,31,-1
 202 331 l 2,32,33
 240 331 240 331 270.5 336 c 128,-1,34
 301 341 301 341 322.5 355.5 c 128,-1,35
 344 370 344 370 356 395 c 128,-1,36
 368 420 368 420 368 460 c 0,37,38
 368 498 368 498 356 522.5 c 128,-1,39
 344 547 344 547 325 561.5 c 128,-1,40
 306 576 306 576 280.5 581.5 c 128,-1,41
 255 587 255 587 226 587 c 0,27,28
EndSplineSet
EndChar

StartChar: S
Encoding: 83 83 54
Width: 500
Flags: W
LayerCount: 2
Fore
SplineSet
248 61 m 0,0,1
 315 61 315 61 350 86.5 c 128,-1,2
 385 112 385 112 385 163 c 0,3,4
 385 194 385 194 372 215.5 c 128,-1,5
 359 237 359 237 338 253.5 c 128,-1,6
 317 270 317 270 290.5 282.5 c 128,-1,7
 264 295 264 295 236 305 c 0,8,9
 204 318 204 318 175 334 c 128,-1,10
 146 350 146 350 123.5 371 c 128,-1,11
 101 392 101 392 87.5 420.5 c 128,-1,12
 74 449 74 449 74 489 c 0,13,14
 74 575 74 575 128 623 c 128,-1,15
 182 671 182 671 279 671 c 0,16,17
 305 671 305 671 331 667.5 c 128,-1,18
 357 664 357 664 379.5 658.5 c 128,-1,19
 402 653 402 653 419.5 645.5 c 128,-1,20
 437 638 437 638 447 631 c 1,21,-1
 420 558 l 1,22,23
 399 571 399 571 361.5 583.5 c 128,-1,24
 324 596 324 596 279 596 c 0,25,26
 231 596 231 596 196 572 c 128,-1,27
 161 548 161 548 161 500 c 0,28,29
 161 472 161 472 171 453.5 c 128,-1,30
 181 435 181 435 198.5 420.5 c 128,-1,31
 216 406 216 406 239.5 394.5 c 128,-1,32
 263 383 263 383 290 371 c 0,33,34
 330 354 330 354 364 337 c 128,-1,35
 398 320 398 320 421.5 296.5 c 128,-1,36
 445 273 445 273 458.5 241.5 c 128,-1,37
 472 210 472 210 472 164 c 0,38,39
 472 78 472 78 414 32 c 128,-1,40
 356 -14 356 -14 248 -14 c 0,41,42
 213 -14 213 -14 182.5 -9 c 128,-1,43
 152 -4 152 -4 128 3.5 c 128,-1,44
 104 11 104 11 86 18 c 128,-1,45
 68 25 68 25 58 32 c 1,46,-1
 85 104 l 1,47,48
 106 92 106 92 147.5 76.5 c 128,-1,49
 189 61 189 61 248 61 c 0,0,1
EndSplineSet
EndChar

StartChar: T
Encoding: 84 84 55
Width: 500
Flags: W
LayerCount: 2
Fore
SplineSet
489 656 m 1,0,-1
 489 582 l 1,1,-1
 308 582 l 1,2,-1
 308 0 l 1,3,-1
 222 0 l 1,4,-1
 222 582 l 1,5,-1
 41 582 l 1,6,-1
 41 656 l 1,7,-1
 489 656 l 1,0,-1
EndSplineSet
EndChar

StartChar: U
Encoding: 85 85 56
Width: 500
Flags: W
LayerCount: 2
Fore
SplineSet
265 -14 m 128,-1,1
 207 -14 207 -14 166 3 c 128,-1,2
 125 20 125 20 99.5 51 c 128,-1,3
 74 82 74 82 62.5 126.5 c 128,-1,4
 51 171 51 171 51 226 c 2,5,-1
 51 656 l 1,6,-1
 138 656 l 1,7,-1
 138 235 l 2,8,9
 138 185 138 185 147 152 c 128,-1,10
 156 119 156 119 172.5 98.5 c 128,-1,11
 189 78 189 78 212 69.5 c 128,-1,12
 235 61 235 61 265 61 c 128,-1,13
 295 61 295 61 318 69.5 c 128,-1,14
 341 78 341 78 357.5 98.5 c 128,-1,15
 374 119 374 119 383 152.5 c 128,-1,16
 392 186 392 186 392 235 c 2,17,-1
 392 656 l 1,18,-1
 479 656 l 1,19,-1
 479 226 l 2,20,21
 479 171 479 171 467.5 126.5 c 128,-1,22
 456 82 456 82 430.5 51 c 128,-1,23
 405 20 405 20 364 3 c 128,-1,0
 323 -14 323 -14 265 -14 c 128,-1,1
EndSplineSet
EndChar

StartChar: V
Encoding: 86 86 57
Width: 500
Flags: W
LayerCount: 2
Fore
SplineSet
108 656 m 1,0,1
 121 589 121 589 140.5 510 c 128,-1,2
 160 431 160 431 182 352 c 128,-1,3
 204 273 204 273 226 201 c 128,-1,4
 248 129 248 129 267 75 c 1,5,6
 284 129 284 129 307 202.5 c 128,-1,7
 330 276 330 276 352 355 c 128,-1,8
 374 434 374 434 393.5 512 c 128,-1,9
 413 590 413 590 426 656 c 1,10,-1
 517 656 l 1,11,12
 509 614 509 614 490 542.5 c 128,-1,13
 471 471 471 471 444.5 382.5 c 128,-1,14
 418 294 418 294 385.5 194.5 c 128,-1,15
 353 95 353 95 318 0 c 1,16,-1
 210 0 l 1,17,18
 177 95 177 95 145.5 194 c 128,-1,19
 114 293 114 293 87.5 381.5 c 128,-1,20
 61 470 61 470 42 542 c 128,-1,21
 23 614 23 614 14 656 c 1,22,-1
 108 656 l 1,0,1
EndSplineSet
EndChar

StartChar: W
Encoding: 87 87 58
Width: 500
Flags: W
LayerCount: 2
Fore
SplineSet
162 0 m 1,0,-1
 81 0 l 1,1,2
 71 65 71 65 64 142.5 c 128,-1,3
 57 220 57 220 51.5 305 c 128,-1,4
 46 390 46 390 41.5 479 c 128,-1,5
 37 568 37 568 34 656 c 1,6,-1
 119 656 l 1,7,-1
 130 108 l 1,8,-1
 226 407 l 1,9,-1
 302 407 l 1,10,-1
 400 108 l 1,11,-1
 411 656 l 1,12,-1
 496 656 l 1,13,14
 493 567 493 567 488 478 c 128,-1,15
 483 389 483 389 477 304.5 c 128,-1,16
 471 220 471 220 463.5 143 c 128,-1,17
 456 66 456 66 447 0 c 1,18,-1
 367 0 l 1,19,-1
 264 326 l 1,20,-1
 162 0 l 1,0,-1
EndSplineSet
EndChar

StartChar: X
Encoding: 88 88 59
Width: 500
Flags: W
LayerCount: 2
Fore
SplineSet
407 0 m 1,0,1
 395 29 395 29 379.5 65 c 128,-1,2
 364 101 364 101 346 139 c 128,-1,3
 328 177 328 177 307 215 c 128,-1,4
 286 253 286 253 264 286 c 1,5,6
 227 227 227 227 190 150 c 128,-1,7
 153 73 153 73 121 0 c 1,8,-1
 26 0 l 1,9,10
 61 78 61 78 108 170 c 128,-1,11
 155 262 155 262 208 347 c 1,12,-1
 37 656 l 1,13,-1
 134 656 l 1,14,-1
 262 405 l 1,15,-1
 400 656 l 1,16,-1
 494 656 l 1,17,-1
 320 350 l 1,18,19
 371 267 371 267 418.5 178 c 128,-1,20
 466 89 466 89 504 0 c 1,21,-1
 407 0 l 1,0,1
EndSplineSet
EndChar

StartChar: Y
Encoding: 89 89 60
Width: 500
Flags: W
LayerCount: 2
Fore
SplineSet
223 0 m 1,0,-1
 223 244 l 1,1,2
 158 350 158 350 105.5 450.5 c 128,-1,3
 53 551 53 551 14 656 c 1,4,-1
 111 656 l 1,5,6
 142 567 142 567 182 486 c 128,-1,7
 222 405 222 405 267 319 c 1,8,9
 316 409 316 409 353.5 490 c 128,-1,10
 391 571 391 571 422 656 c 1,11,-1
 517 656 l 1,12,13
 477 552 477 552 425 453.5 c 128,-1,14
 373 355 373 355 310 246 c 1,15,-1
 310 0 l 1,16,-1
 223 0 l 1,0,-1
EndSplineSet
EndChar

StartChar: Z
Encoding: 90 90 61
Width: 500
Flags: W
LayerCount: 2
Fore
SplineSet
474 588 m 1,0,1
 440 541 440 541 398 477 c 128,-1,2
 356 413 356 413 312.5 343 c 128,-1,3
 269 273 269 273 228.5 202.5 c 128,-1,4
 188 132 188 132 157 74 c 1,5,-1
 482 74 l 1,6,-1
 482 0 l 1,7,-1
 57 0 l 1,8,-1
 57 57 l 1,9,10
 90 124 90 124 130 194.5 c 128,-1,11
 170 265 170 265 211 333 c 128,-1,12
 252 401 252 401 293.5 464.5 c 128,-1,13
 335 528 335 528 373 582 c 1,14,-1
 73 582 l 1,15,-1
 73 656 l 1,16,-1
 474 656 l 1,17,-1
 474 588 l 1,0,1
EndSplineSet
EndChar

StartChar: bracketleft
Encoding: 91 91 62
Width: 500
Flags: W
LayerCount: 2
Fore
SplineSet
152 741 m 1,0,-1
 405 741 l 1,1,-1
 405 672 l 1,2,-1
 234 672 l 1,3,-1
 234 -106 l 1,4,-1
 405 -106 l 1,5,-1
 405 -175 l 1,6,-1
 152 -175 l 1,7,-1
 152 741 l 1,0,-1
EndSplineSet
Substitution2: "'case' +WSdlh1tXfUQwf3UoMGuKv2V0MFcwX1tXX2IA lookup 17 +MLUw1jDGMPww1jDr" Bracketleft
EndChar

StartChar: backslash
Encoding: 92 92 63
Width: 500
Flags: W
LayerCount: 2
Fore
SplineSet
74 741 m 1,0,-1
 162 741 l 1,1,-1
 456 -175 l 1,2,-1
 367 -175 l 1,3,-1
 74 741 l 1,0,-1
EndSplineSet
Substitution2: "'case' +WSdlh1tXfUQwf3UoMGuKv2V0MFcwX1tXX2IA lookup 17 +MLUw1jDGMPww1jDr" Backslash
EndChar

StartChar: bracketright
Encoding: 93 93 64
Width: 500
Flags: W
LayerCount: 2
Fore
SplineSet
378 -175 m 1,0,-1
 125 -175 l 1,1,-1
 125 -106 l 1,2,-1
 296 -106 l 1,3,-1
 296 672 l 1,4,-1
 125 672 l 1,5,-1
 125 741 l 1,6,-1
 378 741 l 1,7,-1
 378 -175 l 1,0,-1
EndSplineSet
Substitution2: "'case' +WSdlh1tXfUQwf3UoMGuKv2V0MFcwX1tXX2IA lookup 17 +MLUw1jDGMPww1jDr" Bracketright
EndChar

StartChar: asciicircum
Encoding: 94 94 65
Width: 500
Flags: W
LayerCount: 2
Fore
SplineSet
304 656 m 1,0,-1
 488 334 l 1,1,-1
 418 298 l 1,2,-1
 265 565 l 1,3,-1
 112 298 l 1,4,-1
 42 334 l 1,5,-1
 226 656 l 1,6,-1
 304 656 l 1,0,-1
EndSplineSet
EndChar

StartChar: underscore
Encoding: 95 95 66
Width: 500
Flags: W
LayerCount: 2
Fore
SplineSet
49 -101 m 1,0,-1
 482 -101 l 1,1,-1
 482 -175 l 1,2,-1
 49 -175 l 1,3,-1
 49 -101 l 1,0,-1
EndSplineSet
EndChar

StartChar: grave
Encoding: 96 96 67
Width: 500
Flags: W
LayerCount: 2
Fore
SplineSet
229 735 m 1,0,-1
 350 588 l 1,1,-1
 305 549 l 1,2,-1
 173 678 l 1,3,-1
 229 735 l 1,0,-1
EndSplineSet
EndChar

StartChar: a
Encoding: 97 97 68
Width: 500
Flags: W
LayerCount: 2
Fore
SplineSet
270 63 m 0,0,1
 303 63 303 63 329 65 c 128,-1,2
 355 67 355 67 372 70 c 1,3,-1
 372 216 l 1,4,5
 355 221 355 221 331 224.5 c 128,-1,6
 307 228 307 228 281 228 c 0,7,8
 257 228 257 228 233.5 224 c 128,-1,9
 210 220 210 220 192 210.5 c 128,-1,10
 174 201 174 201 162.5 186 c 128,-1,11
 151 171 151 171 151 147 c 0,12,13
 151 99 151 99 183 81 c 128,-1,14
 215 63 215 63 270 63 c 0,0,1
262 504 m 0,15,16
 317 504 317 504 354.5 490 c 128,-1,17
 392 476 392 476 415.5 451.5 c 128,-1,18
 439 427 439 427 448.5 392 c 128,-1,19
 458 357 458 357 458 316 c 2,20,-1
 458 8 l 1,21,22
 427 3 427 3 376.5 -4.5 c 128,-1,23
 326 -12 326 -12 273 -12 c 0,24,25
 233 -12 233 -12 195 -5 c 128,-1,26
 157 2 157 2 127.5 19.5 c 128,-1,27
 98 37 98 37 79.5 68 c 128,-1,28
 61 99 61 99 61 146 c 0,29,30
 61 188 61 188 80 217.5 c 128,-1,31
 99 247 99 247 128 265 c 128,-1,32
 157 283 157 283 194.5 291 c 128,-1,33
 232 299 232 299 270 299 c 0,34,35
 322 299 322 299 372 287 c 1,36,-1
 372 312 l 2,37,38
 372 334 372 334 367.5 354.5 c 128,-1,39
 363 375 363 375 349.5 392 c 128,-1,40
 336 409 336 409 313 419 c 128,-1,41
 290 429 290 429 254 429 c 0,42,43
 208 429 208 429 174.5 423 c 128,-1,44
 141 417 141 417 123 410 c 1,45,-1
 112 482 l 1,46,47
 130 490 130 490 172 497 c 128,-1,48
 214 504 214 504 262 504 c 0,15,16
EndSplineSet
Substitution2: "'case' +WSdlh1tXfUQwf3UoMGuKv2V0MFcwX1tXX2IA lookup 18 +MLUw1jDGMPww1jDr" A
Substitution2: "'ordn' +Xo9lcAAA in +MOkwxjDzZYdbVwAA lookup 7 +MLUw1jDGMPww1jDr" ordfeminine
EndChar

StartChar: b
Encoding: 98 98 69
Width: 500
Flags: W
LayerCount: 2
Fore
SplineSet
163 474 m 1,0,1
 179 484 179 484 209.5 494 c 128,-1,2
 240 504 240 504 277 504 c 0,3,4
 327 504 327 504 366 484.5 c 128,-1,5
 405 465 405 465 432 431.5 c 128,-1,6
 459 398 459 398 473.5 350.5 c 128,-1,7
 488 303 488 303 488 246 c 0,8,9
 488 187 488 187 471 139 c 128,-1,10
 454 91 454 91 423 57.5 c 128,-1,11
 392 24 392 24 348.5 6 c 128,-1,12
 305 -12 305 -12 252 -12 c 0,13,14
 194 -12 194 -12 148.5 -3.5 c 128,-1,15
 103 5 103 5 75 14 c 1,16,-1
 75 720 l 1,17,-1
 163 735 l 1,18,-1
 163 474 l 1,0,1
163 76 m 1,19,20
 183 71 183 71 203.5 68.5 c 128,-1,21
 224 66 224 66 242 66 c 0,22,23
 315 66 315 66 356.5 111 c 128,-1,24
 398 156 398 156 398 246 c 0,25,26
 398 284 398 284 390.5 317.5 c 128,-1,27
 383 351 383 351 367 375 c 128,-1,28
 351 399 351 399 326 412.5 c 128,-1,29
 301 426 301 426 266 426 c 0,30,31
 235 426 235 426 206.5 414 c 128,-1,32
 178 402 178 402 163 388 c 1,33,-1
 163 76 l 1,19,20
EndSplineSet
Substitution2: "'case' +WSdlh1tXfUQwf3UoMGuKv2V0MFcwX1tXX2IA lookup 18 +MLUw1jDGMPww1jDr" B
EndChar

StartChar: c
Encoding: 99 99 70
Width: 500
Flags: W
LayerCount: 2
Fore
SplineSet
52 245 m 0,0,1
 52 312 52 312 73 360.5 c 128,-1,2
 94 409 94 409 131.5 441 c 128,-1,3
 169 473 169 473 218 488.5 c 128,-1,4
 267 504 267 504 323 504 c 0,5,6
 359 504 359 504 394.5 499 c 128,-1,7
 430 494 430 494 471 481 c 1,8,-1
 450 406 l 1,9,10
 415 419 415 419 386 422.5 c 128,-1,11
 357 426 357 426 328 426 c 0,12,13
 290 426 290 426 256 416 c 128,-1,14
 222 406 222 406 197 384.5 c 128,-1,15
 172 363 172 363 157 328.5 c 128,-1,16
 142 294 142 294 142 245 c 0,17,18
 142 198 142 198 156 164.5 c 128,-1,19
 170 131 170 131 194.5 109.5 c 128,-1,20
 219 88 219 88 254 77.5 c 128,-1,21
 289 67 289 67 332 67 c 0,22,23
 366 67 366 67 397 70.5 c 128,-1,24
 428 74 428 74 465 87 c 1,25,-1
 478 14 l 1,26,27
 441 0 441 0 403 -6 c 128,-1,28
 365 -12 365 -12 320 -12 c 0,29,30
 261 -12 261 -12 211.5 4.5 c 128,-1,31
 162 21 162 21 126.5 53 c 128,-1,32
 91 85 91 85 71.5 133 c 128,-1,33
 52 181 52 181 52 245 c 0,0,1
EndSplineSet
Substitution2: "'case' +WSdlh1tXfUQwf3UoMGuKv2V0MFcwX1tXX2IA lookup 18 +MLUw1jDGMPww1jDr" C
EndChar

StartChar: d
Encoding: 100 100 71
Width: 500
Flags: W
LayerCount: 2
Fore
SplineSet
367 388 m 1,0,1
 352 402 352 402 323.5 414 c 128,-1,2
 295 426 295 426 264 426 c 0,3,4
 229 426 229 426 204 412.5 c 128,-1,5
 179 399 179 399 163 375 c 128,-1,6
 147 351 147 351 139.5 317.5 c 128,-1,7
 132 284 132 284 132 246 c 0,8,9
 132 160 132 160 172.5 113.5 c 128,-1,10
 213 67 213 67 278 67 c 0,11,12
 311 67 311 67 333.5 70 c 128,-1,13
 356 73 356 73 367 76 c 1,14,-1
 367 388 l 1,0,1
367 720 m 1,15,-1
 455 735 l 1,16,-1
 455 14 l 1,17,18
 426 6 426 6 381.5 -3 c 128,-1,19
 337 -12 337 -12 278 -12 c 0,20,21
 225 -12 225 -12 181.5 6 c 128,-1,22
 138 24 138 24 107 57.5 c 128,-1,23
 76 91 76 91 59 139 c 128,-1,24
 42 187 42 187 42 246 c 0,25,26
 42 303 42 303 56.5 350.5 c 128,-1,27
 71 398 71 398 98.5 431.5 c 128,-1,28
 126 465 126 465 165 484.5 c 128,-1,29
 204 504 204 504 253 504 c 0,30,31
 292 504 292 504 322 494 c 128,-1,32
 352 484 352 484 367 474 c 1,33,-1
 367 720 l 1,15,-1
EndSplineSet
Substitution2: "'case' +WSdlh1tXfUQwf3UoMGuKv2V0MFcwX1tXX2IA lookup 18 +MLUw1jDGMPww1jDr" D
EndChar

StartChar: e
Encoding: 101 101 72
Width: 500
Flags: W
LayerCount: 2
Fore
SplineSet
275 504 m 0,0,1
 375 504 375 504 428.5 441.5 c 128,-1,2
 482 379 482 379 482 253 c 2,3,-1
 482 223 l 1,4,-1
 130 223 l 1,5,6
 135 147 135 147 180.5 107 c 128,-1,7
 226 67 226 67 307 67 c 0,8,9
 354 67 354 67 387 74.5 c 128,-1,10
 420 82 420 82 437 90 c 1,11,-1
 448 16 l 1,12,13
 432 8 432 8 391 -2 c 128,-1,14
 350 -12 350 -12 298 -12 c 0,15,16
 234 -12 234 -12 186 8 c 128,-1,17
 138 28 138 28 106 61.5 c 128,-1,18
 74 95 74 95 58 142.5 c 128,-1,19
 42 190 42 190 42 245 c 0,20,21
 42 311 42 311 62.5 359.5 c 128,-1,22
 83 408 83 408 115.5 440 c 128,-1,23
 148 472 148 472 190 488 c 128,-1,24
 232 504 232 504 275 504 c 0,0,1
393 294 m 1,25,26
 393 357 393 357 360.5 393 c 128,-1,27
 328 429 328 429 273 429 c 0,28,29
 242 429 242 429 217.5 417.5 c 128,-1,30
 193 406 193 406 175 387 c 128,-1,31
 157 368 157 368 146.5 343.5 c 128,-1,32
 136 319 136 319 132 294 c 1,33,-1
 393 294 l 1,25,26
EndSplineSet
Substitution2: "'case' +WSdlh1tXfUQwf3UoMGuKv2V0MFcwX1tXX2IA lookup 18 +MLUw1jDGMPww1jDr" E
EndChar

StartChar: f
Encoding: 102 102 73
Width: 500
Flags: W
LayerCount: 2
Fore
SplineSet
171 0 m 1,0,-1
 171 419 l 1,1,-1
 67 419 l 1,2,-1
 67 492 l 1,3,-1
 171 492 l 1,4,-1
 171 536 l 2,5,6
 171 593 171 593 186.5 631 c 128,-1,7
 202 669 202 669 228 692.5 c 128,-1,8
 254 716 254 716 288.5 725.5 c 128,-1,9
 323 735 323 735 361.5 735 c 128,-1,10
 400 735 400 735 438.5 726.5 c 128,-1,11
 477 718 477 718 511 706 c 1,12,-1
 495 631 l 1,13,14
 472 643 472 643 437 651 c 128,-1,15
 402 659 402 659 366 659 c 0,16,17
 344 659 344 659 324 653.5 c 128,-1,18
 304 648 304 648 289.5 633.5 c 128,-1,19
 275 619 275 619 266.5 595 c 128,-1,20
 258 571 258 571 258 535 c 2,21,-1
 258 492 l 1,22,-1
 456 492 l 1,23,-1
 456 419 l 1,24,-1
 258 419 l 1,25,-1
 258 0 l 1,26,-1
 171 0 l 1,0,-1
EndSplineSet
Substitution2: "'case' +WSdlh1tXfUQwf3UoMGuKv2V0MFcwX1tXX2IA lookup 18 +MLUw1jDGMPww1jDr" F
EndChar

StartChar: g
Encoding: 103 103 74
Width: 500
Flags: W
LayerCount: 2
Fore
SplineSet
367 46 m 1,0,1
 352 38 352 38 321 28 c 128,-1,2
 290 18 290 18 250 18 c 0,3,4
 207 18 207 18 169 32.5 c 128,-1,5
 131 47 131 47 103 76 c 128,-1,6
 75 105 75 105 58.5 150 c 128,-1,7
 42 195 42 195 42 257 c 0,8,9
 42 311 42 311 57.5 356 c 128,-1,10
 73 401 73 401 102 433.5 c 128,-1,11
 131 466 131 466 173.5 485 c 128,-1,12
 216 504 216 504 270 504 c 0,13,14
 334 504 334 504 379 494.5 c 128,-1,15
 424 485 424 485 455 477 c 1,16,-1
 455 38 l 2,17,18
 455 -76 455 -76 397 -127 c 128,-1,19
 339 -178 339 -178 223 -178 c 0,20,21
 175 -178 175 -178 136.5 -170.5 c 128,-1,22
 98 -163 98 -163 68 -153 c 1,23,-1
 84 -75 l 1,24,25
 112 -87 112 -87 147 -94.5 c 128,-1,26
 182 -102 182 -102 225 -102 c 0,27,28
 301 -102 301 -102 334 -71 c 128,-1,29
 367 -40 367 -40 367 29 c 2,30,-1
 367 46 l 1,0,1
367 414 m 1,31,32
 354 418 354 418 332 422 c 128,-1,33
 310 426 310 426 271 426 c 0,34,35
 203 426 203 426 167.5 379.5 c 128,-1,36
 132 333 132 333 132 255 c 0,37,38
 132 213 132 213 142.5 183 c 128,-1,39
 153 153 153 153 170.5 133 c 128,-1,40
 188 113 188 113 210 104 c 128,-1,41
 232 95 232 95 258 95 c 0,42,43
 291 95 291 95 320 104.5 c 128,-1,44
 349 114 349 114 367 127 c 1,45,-1
 367 414 l 1,31,32
EndSplineSet
Substitution2: "'case' +WSdlh1tXfUQwf3UoMGuKv2V0MFcwX1tXX2IA lookup 18 +MLUw1jDGMPww1jDr" G
EndChar

StartChar: h
Encoding: 104 104 75
Width: 500
Flags: W
LayerCount: 2
Fore
SplineSet
75 0 m 1,0,-1
 75 720 l 1,1,-1
 163 735 l 1,2,-1
 163 484 l 1,3,4
 184 492 184 492 210.5 497 c 128,-1,5
 237 502 237 502 263 502 c 0,6,7
 319 502 319 502 356.5 486 c 128,-1,8
 394 470 394 470 416.5 440 c 128,-1,9
 439 410 439 410 448.5 369 c 128,-1,10
 458 328 458 328 458 278 c 2,11,-1
 458 0 l 1,12,-1
 371 0 l 1,13,-1
 371 259 l 2,14,15
 371 350 371 350 345.5 387.5 c 128,-1,16
 320 425 320 425 254 425 c 0,17,18
 226 425 226 425 200.5 419 c 128,-1,19
 175 413 175 413 163 408 c 1,20,-1
 163 0 l 1,21,-1
 75 0 l 1,0,-1
EndSplineSet
Substitution2: "'case' +WSdlh1tXfUQwf3UoMGuKv2V0MFcwX1tXX2IA lookup 18 +MLUw1jDGMPww1jDr" H
EndChar

StartChar: i
Encoding: 105 105 76
Width: 500
Flags: W
LayerCount: 2
Fore
SplineSet
323 568 m 0,0,1
 295 568 295 568 275 587 c 128,-1,2
 255 606 255 606 255 639 c 128,-1,3
 255 672 255 672 275.5 691 c 128,-1,4
 296 710 296 710 323 710 c 0,5,6
 352 710 352 710 371.5 691 c 128,-1,7
 391 672 391 672 391 639 c 128,-1,8
 391 606 391 606 371.5 587 c 128,-1,9
 352 568 352 568 323 568 c 0,0,1
281 419 m 1,10,-1
 139 419 l 1,11,-1
 139 492 l 1,12,-1
 368 492 l 1,13,-1
 368 0 l 1,14,-1
 281 0 l 1,15,-1
 281 419 l 1,10,-1
EndSplineSet
Substitution2: "'case' +WSdlh1tXfUQwf3UoMGuKv2V0MFcwX1tXX2IA lookup 18 +MLUw1jDGMPww1jDr" I
Substitution2: "'locl' +Vv0w+1cwV99W+mcJMG5bV19i in +MOkwxjDzZYdbVwAA lookup 2 +MLUw1jDGMPww1jDr" i.locl
Substitution2: "'locl' +Vv0w+1cwV99W+mcJMG5bV19i in +MOkwxjDzZYdbVwAA lookup 1 +MLUw1jDGMPww1jDr" i.locl
Substitution2: "'locl' +Vv0w+1cwV99W+mcJMG5bV19i in +MOkwxjDzZYdbVwAA lookup 0 +MLUw1jDGMPww1jDr" i.locl
EndChar

StartChar: j
Encoding: 106 106 77
Width: 500
Flags: W
LayerCount: 2
Fore
SplineSet
364 568 m 0,0,1
 336 568 336 568 316 587 c 128,-1,2
 296 606 296 606 296 639 c 128,-1,3
 296 672 296 672 316 691 c 128,-1,4
 336 710 336 710 364 710 c 0,5,6
 393 710 393 710 412 691 c 128,-1,7
 431 672 431 672 431 639 c 128,-1,8
 431 606 431 606 412 587 c 128,-1,9
 393 568 393 568 364 568 c 0,0,1
319 419 m 1,10,-1
 319 492 l 1,11,-1
 407 492 l 1,12,-1
 407 5 l 2,13,14
 407 -46 407 -46 392.5 -81.5 c 128,-1,15
 378 -117 378 -117 354.5 -139 c 128,-1,16
 331 -161 331 -161 299.5 -170.5 c 128,-1,17
 268 -180 268 -180 233 -180 c 0,18,19
 193 -180 193 -180 152 -171.5 c 128,-1,20
 111 -163 111 -163 75 -145 c 1,21,-1
 102 -71 l 1,22,23
 128 -84 128 -84 160.5 -93 c 128,-1,24
 193 -102 193 -102 223 -102 c 0,25,26
 265 -102 265 -102 292.5 -80 c 128,-1,27
 320 -58 320 -58 320 4 c 2,28,-1
 320 419 l 1,29,-1
 319 419 l 1,10,-1
EndSplineSet
Substitution2: "'case' +WSdlh1tXfUQwf3UoMGuKv2V0MFcwX1tXX2IA lookup 18 +MLUw1jDGMPww1jDr" J
EndChar

StartChar: k
Encoding: 107 107 78
Width: 500
Flags: W
LayerCount: 2
Fore
SplineSet
252 270 m 1,0,1
 281 249 281 249 317 216.5 c 128,-1,2
 353 184 353 184 388.5 147 c 128,-1,3
 424 110 424 110 456 71.5 c 128,-1,4
 488 33 488 33 507 0 c 1,5,-1
 403 0 l 1,6,7
 383 33 383 33 353 67.5 c 128,-1,8
 323 102 323 102 290 133.5 c 128,-1,9
 257 165 257 165 223.5 191.5 c 128,-1,10
 190 218 190 218 163 236 c 1,11,-1
 163 0 l 1,12,-1
 75 0 l 1,13,-1
 75 720 l 1,14,-1
 163 735 l 1,15,-1
 163 286 l 1,16,17
 221 337 221 337 279.5 387.5 c 128,-1,18
 338 438 338 438 385 492 c 1,19,-1
 488 492 l 1,20,21
 442 438 442 438 377.5 380.5 c 128,-1,22
 313 323 313 323 252 270 c 1,0,1
EndSplineSet
Substitution2: "'case' +WSdlh1tXfUQwf3UoMGuKv2V0MFcwX1tXX2IA lookup 18 +MLUw1jDGMPww1jDr" K
EndChar

StartChar: l
Encoding: 108 108 79
Width: 500
Flags: W
LayerCount: 2
Fore
SplineSet
358 -12 m 0,0,1
 311 -12 311 -12 280.5 1 c 128,-1,2
 250 14 250 14 232 39 c 0,3,4
 212 67 212 67 207 102 c 0,5,6
 200 156 200 156 199 190 c 2,7,-1
 199 729 l 1,8,-1
 286 729 l 1,9,-1
 286 190 l 2,10,11
 286 153 286 153 291 129.5 c 128,-1,12
 296 106 296 106 306 91.5 c 128,-1,13
 316 77 316 77 331 72 c 128,-1,14
 346 67 346 67 366 67 c 0,15,16
 397 67 397 67 423 74.5 c 128,-1,17
 449 82 449 82 464 90 c 1,18,-1
 477 16 l 1,19,20
 471 13 471 13 459 8 c 128,-1,21
 447 3 447 3 431.5 -1 c 128,-1,22
 416 -5 416 -5 397 -8.5 c 128,-1,23
 378 -12 378 -12 358 -12 c 0,0,1
EndSplineSet
Substitution2: "'case' +WSdlh1tXfUQwf3UoMGuKv2V0MFcwX1tXX2IA lookup 18 +MLUw1jDGMPww1jDr" L
EndChar

StartChar: m
Encoding: 109 109 80
Width: 500
Flags: W
LayerCount: 2
Fore
SplineSet
43 478 m 1,0,1
 107 502 107 502 163 502 c 0,2,3
 194 502 194 502 221 493 c 128,-1,4
 248 484 248 484 267 465 c 1,5,6
 313 502 313 502 365 502 c 0,7,8
 390 502 390 502 413 492.5 c 128,-1,9
 436 483 436 483 453.5 464 c 128,-1,10
 471 445 471 445 481.5 416.5 c 128,-1,11
 492 388 492 388 492 350 c 2,12,-1
 492 0 l 1,13,-1
 412 0 l 1,14,-1
 412 352 l 2,15,16
 412 390 412 390 395 410 c 128,-1,17
 378 430 378 430 353 430 c 0,18,19
 340 430 340 430 326.5 424 c 128,-1,20
 313 418 313 418 301 404 c 1,21,22
 307 380 307 380 307 350 c 2,23,-1
 307 190 l 1,24,-1
 228 190 l 1,25,-1
 228 351 l 2,26,27
 228 388 228 388 216.5 409 c 128,-1,28
 205 430 205 430 171 430 c 0,29,30
 150 430 150 430 123 421 c 1,31,-1
 123 0 l 1,32,-1
 43 0 l 1,33,-1
 43 478 l 1,0,1
EndSplineSet
Substitution2: "'case' +WSdlh1tXfUQwf3UoMGuKv2V0MFcwX1tXX2IA lookup 18 +MLUw1jDGMPww1jDr" M
EndChar

StartChar: n
Encoding: 110 110 81
Width: 500
Flags: W
LayerCount: 2
Fore
SplineSet
75 478 m 1,0,1
 123 490 123 490 170 496 c 128,-1,2
 217 502 217 502 259 502 c 0,3,4
 358 502 358 502 408 451.5 c 128,-1,5
 458 401 458 401 458 288 c 2,6,-1
 458 0 l 1,7,-1
 371 0 l 1,8,-1
 371 272 l 2,9,10
 371 320 371 320 362.5 349.5 c 128,-1,11
 354 379 354 379 338.5 395.5 c 128,-1,12
 323 412 323 412 301.5 418.5 c 128,-1,13
 280 425 280 425 254 425 c 0,14,15
 233 425 233 425 209.5 422.5 c 128,-1,16
 186 420 186 420 163 416 c 1,17,-1
 163 0 l 1,18,-1
 75 0 l 1,19,-1
 75 478 l 1,0,1
EndSplineSet
Substitution2: "'case' +WSdlh1tXfUQwf3UoMGuKv2V0MFcwX1tXX2IA lookup 18 +MLUw1jDGMPww1jDr" N
EndChar

StartChar: o
Encoding: 111 111 82
Width: 500
Flags: W
LayerCount: 2
Fore
SplineSet
488 246 m 128,-1,1
 488 188 488 188 471.5 140.5 c 128,-1,2
 455 93 455 93 425 59 c 128,-1,3
 395 25 395 25 354 6.5 c 128,-1,4
 313 -12 313 -12 264 -12 c 0,5,6
 216 -12 216 -12 175.5 6.5 c 128,-1,7
 135 25 135 25 105 59 c 128,-1,8
 75 93 75 93 58.5 140.5 c 128,-1,9
 42 188 42 188 42 246 c 128,-1,10
 42 304 42 304 58.5 352 c 128,-1,11
 75 400 75 400 105 433 c 128,-1,12
 135 466 135 466 175.5 485 c 128,-1,13
 216 504 216 504 264 504 c 0,14,15
 313 504 313 504 354 485 c 128,-1,16
 395 466 395 466 425 433 c 128,-1,17
 455 400 455 400 471.5 352 c 128,-1,0
 488 304 488 304 488 246 c 128,-1,1
398 246 m 0,18,19
 398 330 398 330 361.5 378 c 128,-1,20
 325 426 325 426 264 426 c 0,21,22
 204 426 204 426 168 378 c 128,-1,23
 132 330 132 330 132 246 c 0,24,25
 132 163 132 163 168 115 c 128,-1,26
 204 67 204 67 264 67 c 0,27,28
 325 67 325 67 361.5 115 c 128,-1,29
 398 163 398 163 398 246 c 0,18,19
EndSplineSet
Substitution2: "'case' +WSdlh1tXfUQwf3UoMGuKv2V0MFcwX1tXX2IA lookup 18 +MLUw1jDGMPww1jDr" O
Substitution2: "'ordn' +Xo9lcAAA in +MOkwxjDzZYdbVwAA lookup 7 +MLUw1jDGMPww1jDr" ordmasculine
EndChar

StartChar: p
Encoding: 112 112 83
Width: 500
Flags: W
LayerCount: 2
Fore
SplineSet
398 245 m 0,0,1
 398 331 398 331 357.5 378 c 128,-1,2
 317 425 317 425 252 425 c 0,3,4
 216 425 216 425 195.5 422 c 128,-1,5
 175 419 175 419 163 414 c 1,6,-1
 163 104 l 1,7,8
 178 90 178 90 206.5 78.5 c 128,-1,9
 235 67 235 67 266 67 c 0,10,11
 301 67 301 67 326 80.5 c 128,-1,12
 351 94 351 94 367 118 c 128,-1,13
 383 142 383 142 390.5 174.5 c 128,-1,14
 398 207 398 207 398 245 c 0,0,1
488 245 m 0,15,16
 488 189 488 189 473.5 141.5 c 128,-1,17
 459 94 459 94 432 60 c 128,-1,18
 405 26 405 26 365.5 7 c 128,-1,19
 326 -12 326 -12 277 -12 c 0,20,21
 238 -12 238 -12 208 -2.5 c 128,-1,22
 178 7 178 7 163 19 c 1,23,-1
 163 -175 l 1,24,-1
 75 -175 l 1,25,-1
 75 477 l 1,26,27
 104 485 104 485 149 493.5 c 128,-1,28
 194 502 194 502 252 502 c 0,29,30
 305 502 305 502 348.5 484 c 128,-1,31
 392 466 392 466 423 433 c 128,-1,32
 454 400 454 400 471 352 c 128,-1,33
 488 304 488 304 488 245 c 0,15,16
EndSplineSet
Substitution2: "'case' +WSdlh1tXfUQwf3UoMGuKv2V0MFcwX1tXX2IA lookup 18 +MLUw1jDGMPww1jDr" P
EndChar

StartChar: q
Encoding: 113 113 84
Width: 500
Flags: W
LayerCount: 2
Fore
SplineSet
132 245 m 0,0,1
 132 207 132 207 140 174.5 c 128,-1,2
 148 142 148 142 164 118 c 128,-1,3
 180 94 180 94 205 80.5 c 128,-1,4
 230 67 230 67 265 67 c 0,5,6
 296 67 296 67 324.5 78.5 c 128,-1,7
 353 90 353 90 368 104 c 1,8,-1
 368 414 l 1,9,10
 356 418 356 418 335.5 421.5 c 128,-1,11
 315 425 315 425 279 425 c 0,12,13
 214 425 214 425 173 378 c 128,-1,14
 132 331 132 331 132 245 c 0,0,1
42 245 m 0,15,16
 42 304 42 304 59 352 c 128,-1,17
 76 400 76 400 107 433 c 128,-1,18
 138 466 138 466 182 484 c 128,-1,19
 226 502 226 502 279 502 c 0,20,21
 336 502 336 502 380 493 c 128,-1,22
 424 484 424 484 455 476 c 1,23,-1
 455 -175 l 1,24,-1
 367 -175 l 1,25,-1
 367 19 l 1,26,27
 351 8 351 8 321.5 -2 c 128,-1,28
 292 -12 292 -12 254 -12 c 0,29,30
 204 -12 204 -12 165 7 c 128,-1,31
 126 26 126 26 99 60 c 128,-1,32
 72 94 72 94 57 141.5 c 128,-1,33
 42 189 42 189 42 245 c 0,15,16
EndSplineSet
Substitution2: "'case' +WSdlh1tXfUQwf3UoMGuKv2V0MFcwX1tXX2IA lookup 18 +MLUw1jDGMPww1jDr" Q
EndChar

StartChar: r
Encoding: 114 114 85
Width: 500
Flags: W
LayerCount: 2
Fore
SplineSet
113 0 m 1,0,-1
 113 465 l 1,1,2
 221 502 221 502 332 502 c 0,3,4
 366 502 366 502 396.5 499.5 c 128,-1,5
 427 497 427 497 464 489 c 1,6,-1
 448 411 l 1,7,8
 414 421 414 421 388.5 423.5 c 128,-1,9
 363 426 363 426 332 426 c 0,10,11
 267 426 267 426 200 408 c 1,12,-1
 200 0 l 1,13,-1
 113 0 l 1,0,-1
EndSplineSet
Substitution2: "'case' +WSdlh1tXfUQwf3UoMGuKv2V0MFcwX1tXX2IA lookup 18 +MLUw1jDGMPww1jDr" R
EndChar

StartChar: s
Encoding: 115 115 86
Width: 500
Flags: W
LayerCount: 2
Fore
SplineSet
372 123 m 0,0,1
 372 149 372 149 350.5 166 c 128,-1,2
 329 183 329 183 296.5 196 c 128,-1,3
 264 209 264 209 226 221 c 128,-1,4
 188 233 188 233 155.5 251 c 128,-1,5
 123 269 123 269 101.5 295.5 c 128,-1,6
 80 322 80 322 80 365 c 0,7,8
 80 424 80 424 128 464 c 128,-1,9
 176 504 176 504 279 504 c 0,10,11
 319 504 319 504 362 498 c 128,-1,12
 405 492 405 492 436 482 c 1,13,-1
 420 404 l 1,14,15
 412 408 412 408 397 413 c 128,-1,16
 382 418 382 418 362.5 421.5 c 128,-1,17
 343 425 343 425 321.5 427 c 128,-1,18
 300 429 300 429 280 429 c 0,19,20
 166 429 166 429 165 367 c 0,21,22
 165 345 165 345 187 329.5 c 128,-1,23
 209 314 209 314 242 301 c 128,-1,24
 275 288 275 288 313 275 c 128,-1,25
 351 262 351 262 384 243 c 128,-1,26
 417 224 417 224 438.5 197 c 128,-1,27
 460 170 460 170 460 128 c 0,28,29
 460 61 460 61 408 24.5 c 128,-1,30
 356 -12 356 -12 244 -12 c 0,31,32
 193 -12 193 -12 150.5 -3.5 c 128,-1,33
 108 5 108 5 70 22 c 1,34,-1
 87 102 l 1,35,36
 124 85 124 85 165 74 c 128,-1,37
 206 63 206 63 252 63 c 0,38,39
 372 63 372 63 372 123 c 0,0,1
EndSplineSet
Substitution2: "'case' +WSdlh1tXfUQwf3UoMGuKv2V0MFcwX1tXX2IA lookup 18 +MLUw1jDGMPww1jDr" S
EndChar

StartChar: t
Encoding: 116 116 87
Width: 500
Flags: W
LayerCount: 2
Fore
SplineSet
258 492 m 1,0,-1
 465 492 l 1,1,-1
 465 419 l 1,2,-1
 258 419 l 1,3,-1
 258 190 l 2,4,5
 258 153 258 153 263 129.5 c 128,-1,6
 268 106 268 106 280.5 91.5 c 128,-1,7
 293 77 293 77 312 72 c 128,-1,8
 331 67 331 67 358 67 c 0,9,10
 396 67 396 67 419.5 73.5 c 128,-1,11
 443 80 443 80 464 90 c 1,12,-1
 477 16 l 1,13,14
 462 10 462 10 430 -1 c 128,-1,15
 398 -12 398 -12 350 -12 c 0,16,17
 295 -12 295 -12 260 1 c 128,-1,18
 225 14 225 14 205.5 39.5 c 128,-1,19
 186 65 186 65 178.5 102.5 c 128,-1,20
 171 140 171 140 171 190 c 2,21,-1
 171 419 l 1,22,-1
 67 419 l 1,23,-1
 67 492 l 1,24,-1
 171 492 l 1,25,-1
 171 630 l 1,26,-1
 258 644 l 1,27,-1
 258 492 l 1,0,-1
EndSplineSet
Substitution2: "'case' +WSdlh1tXfUQwf3UoMGuKv2V0MFcwX1tXX2IA lookup 18 +MLUw1jDGMPww1jDr" T
EndChar

StartChar: u
Encoding: 117 117 88
Width: 500
Flags: W
LayerCount: 2
Fore
SplineSet
455 14 m 1,0,1
 426 7 426 7 379 -2 c 128,-1,2
 332 -11 332 -11 268 -11 c 0,3,4
 212 -11 212 -11 175 5.5 c 128,-1,5
 138 22 138 22 114.5 52.5 c 128,-1,6
 91 83 91 83 81.5 124 c 128,-1,7
 72 165 72 165 72 215 c 2,8,-1
 72 492 l 1,9,-1
 159 492 l 1,10,-1
 159 234 l 2,11,12
 159 143 159 143 186 105 c 128,-1,13
 213 67 213 67 277 67 c 0,14,15
 291 67 291 67 305 68 c 128,-1,16
 319 69 319 69 331.5 70.5 c 128,-1,17
 344 72 344 72 354 73.5 c 128,-1,18
 364 75 364 75 367 76 c 2,19,-1
 367 492 l 1,20,-1
 455 492 l 1,21,-1
 455 14 l 1,0,1
EndSplineSet
Substitution2: "'case' +WSdlh1tXfUQwf3UoMGuKv2V0MFcwX1tXX2IA lookup 18 +MLUw1jDGMPww1jDr" U
EndChar

StartChar: v
Encoding: 118 118 89
Width: 500
Flags: W
LayerCount: 2
Fore
SplineSet
498 492 m 1,0,1
 479 423 479 423 454.5 356.5 c 128,-1,2
 430 290 430 290 404.5 227 c 128,-1,3
 379 164 379 164 352.5 107 c 128,-1,4
 326 50 326 50 302 0 c 1,5,-1
 223 0 l 1,6,7
 173 100 173 100 122 227 c 128,-1,8
 71 354 71 354 32 492 c 1,9,-1
 127 492 l 1,10,11
 140 445 140 445 156.5 393 c 128,-1,12
 173 341 173 341 191 289 c 128,-1,13
 209 237 209 237 227.5 189 c 128,-1,14
 246 141 246 141 264 103 c 1,15,16
 282 141 282 141 301.5 189 c 128,-1,17
 321 237 321 237 340 289 c 128,-1,18
 359 341 359 341 376.5 393 c 128,-1,19
 394 445 394 445 407 492 c 1,20,-1
 498 492 l 1,0,1
EndSplineSet
Substitution2: "'case' +WSdlh1tXfUQwf3UoMGuKv2V0MFcwX1tXX2IA lookup 18 +MLUw1jDGMPww1jDr" V
EndChar

StartChar: w
Encoding: 119 119 90
Width: 500
Flags: W
LayerCount: 2
Fore
SplineSet
364 0 m 1,0,1
 348 36 348 36 336 65.5 c 128,-1,2
 324 95 324 95 313 125 c 128,-1,3
 302 155 302 155 291 187 c 128,-1,4
 280 219 280 219 265 261 c 1,5,6
 250 220 250 220 238.5 187.5 c 128,-1,7
 227 155 227 155 216 125 c 128,-1,8
 205 95 205 95 192.5 65.5 c 128,-1,9
 180 36 180 36 164 0 c 1,10,-1
 99 0 l 1,11,12
 69 130 69 130 49.5 258 c 128,-1,13
 30 386 30 386 20 492 c 1,14,-1
 103 492 l 1,15,16
 106 451 106 451 109.5 411 c 128,-1,17
 113 371 113 371 118.5 327.5 c 128,-1,18
 124 284 124 284 131 233 c 128,-1,19
 138 182 138 182 146 119 c 1,20,21
 163 161 163 161 175 193 c 128,-1,22
 187 225 187 225 196.5 253.5 c 128,-1,23
 206 282 206 282 215 311.5 c 128,-1,24
 224 341 224 341 234 378 c 1,25,-1
 300 378 l 1,26,27
 311 341 311 341 319.5 311.5 c 128,-1,28
 328 282 328 282 337.5 253.5 c 128,-1,29
 347 225 347 225 357.5 193 c 128,-1,30
 368 161 368 161 384 120 c 1,31,32
 394 178 394 178 401 228 c 128,-1,33
 408 278 408 278 413.5 322 c 128,-1,34
 419 366 419 366 423 407 c 128,-1,35
 427 448 427 448 430 492 c 1,36,-1
 510 492 l 1,37,38
 505 439 505 439 497.5 378.5 c 128,-1,39
 490 318 490 318 479.5 254.5 c 128,-1,40
 469 191 469 191 456 125.5 c 128,-1,41
 443 60 443 60 429 0 c 1,42,-1
 364 0 l 1,0,1
EndSplineSet
Substitution2: "'case' +WSdlh1tXfUQwf3UoMGuKv2V0MFcwX1tXX2IA lookup 18 +MLUw1jDGMPww1jDr" W
EndChar

StartChar: x
Encoding: 120 120 91
Width: 500
Flags: W
LayerCount: 2
Fore
SplineSet
403 0 m 1,0,1
 392 21 392 21 376.5 46.5 c 128,-1,2
 361 72 361 72 343 99 c 128,-1,3
 325 126 325 126 305.5 152.5 c 128,-1,4
 286 179 286 179 267 202 c 1,5,6
 248 178 248 178 227 151.5 c 128,-1,7
 206 125 206 125 186 98 c 128,-1,8
 166 71 166 71 149 45.5 c 128,-1,9
 132 20 132 20 121 0 c 1,10,-1
 31 0 l 1,11,12
 66 64 66 64 116 131 c 128,-1,13
 166 198 166 198 215 259 c 1,14,-1
 38 492 l 1,15,-1
 137 492 l 1,16,-1
 269 320 l 1,17,-1
 391 492 l 1,18,-1
 484 492 l 1,19,-1
 322 264 l 1,20,21
 370 201 370 201 418 133.5 c 128,-1,22
 466 66 466 66 500 0 c 1,23,-1
 403 0 l 1,0,1
EndSplineSet
Substitution2: "'case' +WSdlh1tXfUQwf3UoMGuKv2V0MFcwX1tXX2IA lookup 18 +MLUw1jDGMPww1jDr" X
EndChar

StartChar: y
Encoding: 121 121 92
Width: 500
Flags: W
LayerCount: 2
Fore
SplineSet
54 -92 m 1,0,1
 64 -97 64 -97 81.5 -100.5 c 128,-1,2
 99 -104 99 -104 113 -104 c 0,3,4
 165 -104 165 -104 194.5 -81 c 128,-1,5
 224 -58 224 -58 248 -6 c 1,6,7
 189 106 189 106 137 235 c 128,-1,8
 85 364 85 364 51 492 c 1,9,-1
 146 492 l 1,10,11
 157 450 157 450 171.5 400.5 c 128,-1,12
 186 351 186 351 204 299 c 128,-1,13
 222 247 222 247 242.5 194.5 c 128,-1,14
 263 142 263 142 286 94 c 1,15,16
 303 143 303 143 318 190.5 c 128,-1,17
 333 238 333 238 345.5 286.5 c 128,-1,18
 358 335 358 335 371 385.5 c 128,-1,19
 384 436 384 436 398 492 c 1,20,-1
 489 492 l 1,21,22
 455 354 455 354 413 224.5 c 128,-1,23
 371 95 371 95 323 -15 c 0,24,25
 305 -57 305 -57 284.5 -88 c 128,-1,26
 264 -119 264 -119 239.5 -139 c 128,-1,27
 215 -159 215 -159 184.5 -168.5 c 128,-1,28
 154 -178 154 -178 114 -178 c 0,29,30
 94 -178 94 -178 70.5 -172.5 c 128,-1,31
 47 -167 47 -167 38 -163 c 1,32,-1
 54 -92 l 1,0,1
EndSplineSet
Substitution2: "'case' +WSdlh1tXfUQwf3UoMGuKv2V0MFcwX1tXX2IA lookup 18 +MLUw1jDGMPww1jDr" Y
EndChar

StartChar: z
Encoding: 122 122 93
Width: 500
Flags: W
LayerCount: 2
Fore
SplineSet
445 426 m 1,0,1
 426 404 426 404 393 364 c 128,-1,2
 360 324 360 324 322.5 276 c 128,-1,3
 285 228 285 228 248 175 c 128,-1,4
 211 122 211 122 182 74 c 1,5,-1
 453 74 l 1,6,-1
 453 0 l 1,7,-1
 77 0 l 1,8,-1
 77 58 l 1,9,10
 99 100 99 100 132.5 150.5 c 128,-1,11
 166 201 166 201 202 250.5 c 128,-1,12
 238 300 238 300 272.5 344.5 c 128,-1,13
 307 389 307 389 333 419 c 1,14,-1
 91 419 l 1,15,-1
 91 492 l 1,16,-1
 445 492 l 1,17,-1
 445 426 l 1,0,1
EndSplineSet
Substitution2: "'case' +WSdlh1tXfUQwf3UoMGuKv2V0MFcwX1tXX2IA lookup 18 +MLUw1jDGMPww1jDr" Z
EndChar

StartChar: braceleft
Encoding: 123 123 94
Width: 500
Flags: W
LayerCount: 2
Fore
SplineSet
84 317 m 1,0,-1
 126 317 l 2,1,2
 144 317 144 317 158 325 c 128,-1,3
 172 333 172 333 181 346 c 128,-1,4
 190 359 190 359 194.5 375.5 c 128,-1,5
 199 392 199 392 199 409 c 2,6,-1
 199 580 l 2,7,8
 199 619 199 619 207 648.5 c 128,-1,9
 215 678 215 678 234 699 c 128,-1,10
 253 720 253 720 285.5 730.5 c 128,-1,11
 318 741 318 741 367 741 c 2,12,-1
 453 741 l 1,13,-1
 453 672 l 1,14,-1
 363 672 l 2,15,16
 318 672 318 672 299.5 652 c 128,-1,17
 281 632 281 632 281 579 c 2,18,-1
 281 432 l 2,19,20
 281 361 281 361 259.5 328 c 128,-1,21
 238 295 238 295 211 283 c 1,22,23
 239 270 239 270 260 235 c 128,-1,24
 281 200 281 200 281 134 c 2,25,-1
 281 -13 l 2,26,27
 281 -66 281 -66 300 -86 c 128,-1,28
 319 -106 319 -106 364 -106 c 2,29,-1
 453 -106 l 1,30,-1
 453 -175 l 1,31,-1
 367 -175 l 2,32,33
 318 -175 318 -175 285.5 -164.5 c 128,-1,34
 253 -154 253 -154 234 -133 c 128,-1,35
 215 -112 215 -112 207 -82.5 c 128,-1,36
 199 -53 199 -53 199 -14 c 2,37,-1
 199 157 l 2,38,39
 199 173 199 173 194.5 189.5 c 128,-1,40
 190 206 190 206 181 219 c 128,-1,41
 172 232 172 232 158.5 240.5 c 128,-1,42
 145 249 145 249 127 249 c 2,43,-1
 84 249 l 1,44,-1
 84 317 l 1,0,-1
EndSplineSet
Substitution2: "'case' +WSdlh1tXfUQwf3UoMGuKv2V0MFcwX1tXX2IA lookup 17 +MLUw1jDGMPww1jDr" Braceleft
EndChar

StartChar: bar
Encoding: 124 124 95
Width: 500
Flags: W
LayerCount: 2
Fore
SplineSet
225 741 m 1,0,-1
 306 741 l 1,1,-1
 306 -175 l 1,2,-1
 225 -175 l 1,3,-1
 225 741 l 1,0,-1
EndSplineSet
EndChar

StartChar: braceright
Encoding: 125 125 96
Width: 500
Flags: W
LayerCount: 2
Fore
SplineSet
446 249 m 1,0,-1
 404 249 l 2,1,2
 386 249 386 249 372.5 241 c 128,-1,3
 359 233 359 233 350 220 c 128,-1,4
 341 207 341 207 336.5 190.5 c 128,-1,5
 332 174 332 174 332 157 c 2,6,-1
 332 -14 l 2,7,8
 332 -53 332 -53 324 -82.5 c 128,-1,9
 316 -112 316 -112 296.5 -133 c 128,-1,10
 277 -154 277 -154 244.5 -164.5 c 128,-1,11
 212 -175 212 -175 163 -175 c 2,12,-1
 77 -175 l 1,13,-1
 77 -106 l 1,14,-1
 167 -106 l 2,15,16
 212 -106 212 -106 230.5 -86 c 128,-1,17
 249 -66 249 -66 249 -13 c 2,18,-1
 249 134 l 2,19,20
 249 205 249 205 270.5 238 c 128,-1,21
 292 271 292 271 319 283 c 1,22,23
 291 296 291 296 270 331 c 128,-1,24
 249 366 249 366 249 432 c 2,25,-1
 249 579 l 2,26,27
 249 632 249 632 230 652 c 128,-1,28
 211 672 211 672 166 672 c 2,29,-1
 77 672 l 1,30,-1
 77 741 l 1,31,-1
 163 741 l 2,32,33
 212 741 212 741 244.5 730.5 c 128,-1,34
 277 720 277 720 296.5 699 c 128,-1,35
 316 678 316 678 324 648.5 c 128,-1,36
 332 619 332 619 332 580 c 2,37,-1
 332 409 l 2,38,39
 332 393 332 393 336 376.5 c 128,-1,40
 340 360 340 360 349 347 c 128,-1,41
 358 334 358 334 371.5 325.5 c 128,-1,42
 385 317 385 317 403 317 c 2,43,-1
 446 317 l 1,44,-1
 446 249 l 1,0,-1
EndSplineSet
Substitution2: "'case' +WSdlh1tXfUQwf3UoMGuKv2V0MFcwX1tXX2IA lookup 17 +MLUw1jDGMPww1jDr" Braceright
EndChar

StartChar: asciitilde
Encoding: 126 126 97
Width: 500
Flags: W
LayerCount: 2
Fore
SplineSet
491 333 m 1,0,1
 488 315 488 315 480 291.5 c 128,-1,2
 472 268 472 268 456.5 248 c 128,-1,3
 441 228 441 228 417.5 214 c 128,-1,4
 394 200 394 200 361 200 c 0,5,6
 332 200 332 200 308.5 211.5 c 128,-1,7
 285 223 285 223 263 236 c 0,8,9
 238 251 238 251 214.5 266 c 128,-1,10
 191 281 191 281 163 281 c 0,11,12
 148 281 148 281 137.5 274 c 128,-1,13
 127 267 127 267 120 256.5 c 128,-1,14
 113 246 113 246 108 232.5 c 128,-1,15
 103 219 103 219 100 208 c 1,16,-1
 39 225 l 1,17,18
 42 243 42 243 50.5 266 c 128,-1,19
 59 289 59 289 74 309.5 c 128,-1,20
 89 330 89 330 112 343.5 c 128,-1,21
 135 357 135 357 169 357 c 0,22,23
 198 357 198 357 221.5 346 c 128,-1,24
 245 335 245 335 267 321 c 0,25,26
 292 306 292 306 316 291.5 c 128,-1,27
 340 277 340 277 367 277 c 0,28,29
 382 277 382 277 392.5 283.5 c 128,-1,30
 403 290 403 290 410 301 c 128,-1,31
 417 312 417 312 422 325 c 128,-1,32
 427 338 427 338 430 350 c 1,33,-1
 491 333 l 1,0,1
EndSplineSet
EndChar

StartChar: Euro
Encoding: 8364 8364 98
Width: 500
Flags: W
LayerCount: 2
Fore
SplineSet
112 446 m 1,0,1
 131 558 131 558 192 613 c 128,-1,2
 253 668 253 668 354 668 c 0,3,4
 396 668 396 668 423 662.5 c 128,-1,5
 450 657 450 657 476 648 c 1,6,-1
 459 573 l 1,7,8
 437 581 437 581 410 587 c 128,-1,9
 383 593 383 593 354 593 c 0,10,11
 282 593 282 593 248 553 c 128,-1,12
 214 513 214 513 204 446 c 1,13,-1
 414 446 l 1,14,-1
 402 378 l 1,15,-1
 194 378 l 1,16,17
 193 366 193 366 193 354 c 128,-1,18
 193 342 193 342 193 329 c 0,19,20
 193 317 193 317 193 305.5 c 128,-1,21
 193 294 193 294 194 283 c 1,22,-1
 384 283 l 1,23,-1
 371 215 l 1,24,-1
 201 215 l 1,25,26
 215 130 215 130 254 97.5 c 128,-1,27
 293 65 293 65 356 65 c 0,28,29
 396 65 396 65 425 71.5 c 128,-1,30
 454 78 454 78 476 90 c 1,31,-1
 495 15 l 1,32,33
 479 7 479 7 439.5 -3 c 128,-1,34
 400 -13 400 -13 351 -13 c 0,35,36
 241 -13 241 -13 183 47.5 c 128,-1,37
 125 108 125 108 110 215 c 1,38,-1
 38 215 l 1,39,-1
 38 283 l 1,40,-1
 103 283 l 1,41,42
 102 294 102 294 102 305.5 c 128,-1,43
 102 317 102 317 102 329 c 0,44,45
 102 343 102 343 102 355 c 128,-1,46
 102 367 102 367 103 378 c 1,47,-1
 38 378 l 1,48,-1
 38 446 l 1,49,-1
 112 446 l 1,0,1
EndSplineSet
EndChar

StartChar: quotesinglbase
Encoding: 8218 8218 99
Width: 500
Flags: W
LayerCount: 2
Fore
SplineSet
157 -84 m 1,0,1
 176 -80 176 -80 194.5 -75.5 c 128,-1,2
 213 -71 213 -71 229 -63 c 128,-1,3
 245 -55 245 -55 257.5 -43 c 128,-1,4
 270 -31 270 -31 278 -10 c 1,5,6
 244 -7 244 -7 228.5 16 c 128,-1,7
 213 39 213 39 213 61 c 0,8,9
 213 103 213 103 237.5 125 c 128,-1,10
 262 147 262 147 292 147 c 0,11,12
 331 147 331 147 351 119 c 128,-1,13
 371 91 371 91 371 51 c 0,14,15
 371 20 371 20 359 -13.5 c 128,-1,16
 347 -47 347 -47 322 -76 c 128,-1,17
 297 -105 297 -105 260 -125.5 c 128,-1,18
 223 -146 223 -146 173 -153 c 1,19,-1
 157 -84 l 1,0,1
EndSplineSet
EndChar

StartChar: florin
Encoding: 402 402 100
Width: 500
Flags: W
LayerCount: 2
Fore
SplineSet
67 419 m 1,0,-1
 67 492 l 1,1,-1
 171 492 l 1,2,-1
 171 536 l 2,3,4
 171 593 171 593 186.5 631 c 128,-1,5
 202 669 202 669 228 692.5 c 128,-1,6
 254 716 254 716 288.5 725.5 c 128,-1,7
 323 735 323 735 361.5 735 c 128,-1,8
 400 735 400 735 438.5 726.5 c 128,-1,9
 477 718 477 718 511 706 c 1,10,-1
 495 631 l 1,11,12
 472 643 472 643 437 651 c 128,-1,13
 402 659 402 659 366 659 c 0,14,15
 344 659 344 659 324 653.5 c 128,-1,16
 304 648 304 648 289.5 633.5 c 128,-1,17
 275 619 275 619 266.5 595 c 128,-1,18
 258 571 258 571 258 535 c 2,19,-1
 258 492 l 1,20,-1
 456 492 l 1,21,-1
 456 419 l 1,22,-1
 258 419 l 1,23,-1
 258 3 l 2,24,25
 258 -48 258 -48 243.5 -83 c 128,-1,26
 229 -118 229 -118 205 -139.5 c 128,-1,27
 181 -161 181 -161 149.5 -170.5 c 128,-1,28
 118 -180 118 -180 84 -180 c 0,29,30
 54 -180 54 -180 38 -177 c 128,-1,31
 22 -174 22 -174 7 -171 c 1,32,-1
 26 -95 l 1,33,34
 48 -103 48 -103 73 -104 c 0,35,36
 114 -104 114 -104 142.5 -81 c 128,-1,37
 171 -58 171 -58 171 4 c 2,38,-1
 171 419 l 1,39,-1
 67 419 l 1,0,-1
EndSplineSet
EndChar

StartChar: quotedblbase
Encoding: 8222 8222 101
Width: 500
Flags: W
LayerCount: 2
Fore
SplineSet
290 -78 m 1,0,1
 308 -74 308 -74 325 -70.5 c 128,-1,2
 342 -67 342 -67 357 -59.5 c 128,-1,3
 372 -52 372 -52 383.5 -41 c 128,-1,4
 395 -30 395 -30 402 -11 c 1,5,6
 371 -8 371 -8 355.5 13 c 128,-1,7
 340 34 340 34 340 58 c 0,8,9
 340 84 340 84 357 106 c 128,-1,10
 374 128 374 128 410 128 c 0,11,12
 441 128 441 128 463 107.5 c 128,-1,13
 485 87 485 87 485 40 c 0,14,15
 485 9 485 9 476 -20 c 128,-1,16
 467 -49 467 -49 446.5 -73.5 c 128,-1,17
 426 -98 426 -98 391.5 -116 c 128,-1,18
 357 -134 357 -134 305 -140 c 1,19,-1
 290 -78 l 1,0,1
45 -78 m 1,20,21
 81 -71 81 -71 111 -59.5 c 128,-1,22
 141 -48 141 -48 155 -11 c 1,23,24
 124 -8 124 -8 108.5 13 c 128,-1,25
 93 34 93 34 93 58 c 0,26,27
 93 84 93 84 110.5 106 c 128,-1,28
 128 128 128 128 163 128 c 0,29,30
 194 128 194 128 217 107.5 c 128,-1,31
 240 87 240 87 240 40 c 0,32,33
 240 9 240 9 231 -20 c 128,-1,34
 222 -49 222 -49 201 -73.5 c 128,-1,35
 180 -98 180 -98 145.5 -116 c 128,-1,36
 111 -134 111 -134 59 -140 c 1,37,-1
 45 -78 l 1,20,21
EndSplineSet
EndChar

StartChar: ellipsis
Encoding: 8230 8230 102
Width: 500
Flags: W
LayerCount: 2
Fore
SplineSet
497 44.5 m 128,-1,1
 497 21 497 21 482 4 c 128,-1,2
 467 -13 467 -13 442 -13 c 128,-1,3
 417 -13 417 -13 402 4 c 128,-1,4
 387 21 387 21 387 44.5 c 128,-1,5
 387 68 387 68 402 85 c 128,-1,6
 417 102 417 102 442 102 c 128,-1,7
 467 102 467 102 482 85 c 128,-1,0
 497 68 497 68 497 44.5 c 128,-1,1
321 44.5 m 128,-1,9
 321 21 321 21 306.5 4 c 128,-1,10
 292 -13 292 -13 266.5 -13 c 128,-1,11
 241 -13 241 -13 226 4 c 128,-1,12
 211 21 211 21 211 44.5 c 128,-1,13
 211 68 211 68 226 85 c 128,-1,14
 241 102 241 102 266.5 102 c 128,-1,15
 292 102 292 102 306.5 85 c 128,-1,8
 321 68 321 68 321 44.5 c 128,-1,9
145 44.5 m 128,-1,17
 145 21 145 21 129.5 4 c 128,-1,18
 114 -13 114 -13 89 -13 c 128,-1,19
 64 -13 64 -13 48.5 4 c 128,-1,20
 33 21 33 21 33 44.5 c 128,-1,21
 33 68 33 68 48.5 85 c 128,-1,22
 64 102 64 102 89 102 c 128,-1,23
 114 102 114 102 129.5 85 c 128,-1,16
 145 68 145 68 145 44.5 c 128,-1,17
EndSplineSet
EndChar

StartChar: dagger
Encoding: 8224 8224 103
Width: 500
Flags: W
LayerCount: 2
Fore
SplineSet
303 377 m 1,0,-1
 303 137 l 2,1,2
 303 57 303 57 299.5 -7.5 c 128,-1,3
 296 -72 296 -72 287 -137 c 1,4,-1
 244 -137 l 1,5,6
 236 -72 236 -72 231.5 -7.5 c 128,-1,7
 227 57 227 57 227 137 c 2,8,-1
 227 377 l 1,9,-1
 76 377 l 1,10,-1
 76 450 l 1,11,-1
 227 450 l 1,12,-1
 227 656 l 1,13,-1
 303 656 l 1,14,-1
 303 450 l 1,15,-1
 454 450 l 1,16,-1
 454 377 l 1,17,-1
 303 377 l 1,0,-1
EndSplineSet
EndChar

StartChar: daggerdbl
Encoding: 8225 8225 104
Width: 500
Flags: W
LayerCount: 2
Fore
SplineSet
303 127 m 1,0,1
 303 50 303 50 299 -12 c 128,-1,2
 295 -74 295 -74 287 -137 c 1,3,-1
 244 -137 l 1,4,5
 236 -74 236 -74 231.5 -12 c 128,-1,6
 227 50 227 50 227 127 c 1,7,-1
 76 127 l 1,8,-1
 76 199 l 1,9,-1
 227 199 l 1,10,-1
 227 377 l 1,11,-1
 76 377 l 1,12,-1
 76 450 l 1,13,-1
 227 450 l 1,14,-1
 227 656 l 1,15,-1
 303 656 l 1,16,-1
 303 450 l 1,17,-1
 454 450 l 1,18,-1
 454 377 l 1,19,-1
 303 377 l 1,20,-1
 303 199 l 1,21,-1
 454 199 l 1,22,-1
 454 127 l 1,23,-1
 303 127 l 1,0,1
EndSplineSet
EndChar

StartChar: circumflex
Encoding: 710 710 105
Width: 500
Flags: W
LayerCount: 2
Fore
SplineSet
265 728 m 1,0,-1
 393 593 l 1,1,-1
 357 551 l 1,2,-1
 265 634 l 1,3,-1
 173 551 l 1,4,-1
 137 593 l 1,5,-1
 265 728 l 1,0,-1
EndSplineSet
EndChar

StartChar: perthousand
Encoding: 8240 8240 106
Width: 500
Flags: W
LayerCount: 2
Fore
SplineSet
40 217 m 1,0,-1
 10 265 l 1,1,-1
 490 579 l 1,2,-1
 520 531 l 1,3,-1
 40 217 l 1,0,-1
344 131 m 0,4,5
 344 277 344 277 427 278 c 0,6,7
 512 278 512 278 512 131 c 0,8,9
 512 -14 512 -14 429 -14 c 0,10,11
 344 -14 344 -14 344 131 c 0,4,5
400 131.5 m 128,-1,13
 400 77 400 77 407 57 c 128,-1,14
 414 37 414 37 428 37 c 128,-1,15
 442 37 442 37 449.5 57 c 128,-1,16
 457 77 457 77 457 131.5 c 128,-1,17
 457 186 457 186 449.5 206 c 128,-1,18
 442 226 442 226 428 226 c 128,-1,19
 414 226 414 226 407 206 c 128,-1,12
 400 186 400 186 400 131.5 c 128,-1,13
136 131 m 0,20,21
 136 277 136 277 217 278 c 0,22,23
 303 278 303 278 303 131 c 0,24,25
 303 -14 303 -14 219.5 -14 c 128,-1,26
 136 -14 136 -14 136 131 c 0,20,21
190 131.5 m 128,-1,28
 190 77 190 77 197.5 57 c 128,-1,29
 205 37 205 37 218 37 c 0,30,31
 233 37 233 37 240.5 57 c 128,-1,32
 248 77 248 77 248 131.5 c 128,-1,33
 248 186 248 186 240.5 206 c 128,-1,34
 233 226 233 226 218 226 c 0,35,36
 204 226 204 226 197 206 c 128,-1,27
 190 186 190 186 190 131.5 c 128,-1,28
18 525 m 0,37,38
 18 670 18 670 101 670 c 0,39,40
 187 670 187 670 187 525 c 0,41,42
 187 379 187 379 102 378 c 0,43,44
 18 379 18 379 18 525 c 0,37,38
74 525 m 128,-1,46
 74 471 74 471 81 450 c 128,-1,47
 88 429 88 429 102 429 c 128,-1,48
 116 429 116 429 123 450 c 128,-1,49
 130 471 130 471 130 525 c 128,-1,50
 130 579 130 579 123 599 c 128,-1,51
 116 619 116 619 102 619 c 128,-1,52
 88 619 88 619 81 599 c 128,-1,45
 74 579 74 579 74 525 c 128,-1,46
EndSplineSet
EndChar

StartChar: Scaron
Encoding: 352 352 107
Width: 500
Flags: W
LayerCount: 2
Fore
SplineSet
248 61 m 0,0,1
 315 61 315 61 350 86.5 c 128,-1,2
 385 112 385 112 385 163 c 0,3,4
 385 194 385 194 372 215.5 c 128,-1,5
 359 237 359 237 338 253.5 c 128,-1,6
 317 270 317 270 290.5 282.5 c 128,-1,7
 264 295 264 295 236 305 c 0,8,9
 204 318 204 318 175 334 c 128,-1,10
 146 350 146 350 123.5 371 c 128,-1,11
 101 392 101 392 87.5 420.5 c 128,-1,12
 74 449 74 449 74 489 c 0,13,14
 74 575 74 575 128 623 c 128,-1,15
 182 671 182 671 279 671 c 0,16,17
 305 671 305 671 331 667.5 c 128,-1,18
 357 664 357 664 379.5 658.5 c 128,-1,19
 402 653 402 653 419.5 645.5 c 128,-1,20
 437 638 437 638 447 631 c 1,21,-1
 420 558 l 1,22,23
 399 571 399 571 361.5 583.5 c 128,-1,24
 324 596 324 596 279 596 c 0,25,26
 231 596 231 596 196 572 c 128,-1,27
 161 548 161 548 161 500 c 0,28,29
 161 472 161 472 171 453.5 c 128,-1,30
 181 435 181 435 198.5 420.5 c 128,-1,31
 216 406 216 406 239.5 394.5 c 128,-1,32
 263 383 263 383 290 371 c 0,33,34
 330 354 330 354 364 337 c 128,-1,35
 398 320 398 320 421.5 296.5 c 128,-1,36
 445 273 445 273 458.5 241.5 c 128,-1,37
 472 210 472 210 472 164 c 0,38,39
 472 78 472 78 414 32 c 128,-1,40
 356 -14 356 -14 248 -14 c 0,41,42
 213 -14 213 -14 182.5 -9 c 128,-1,43
 152 -4 152 -4 128 3.5 c 128,-1,44
 104 11 104 11 86 18 c 128,-1,45
 68 25 68 25 58 32 c 1,46,-1
 85 104 l 1,47,48
 106 92 106 92 147.5 76.5 c 128,-1,49
 189 61 189 61 248 61 c 0,0,1
156 837 m 1,50,-1
 192 879 l 1,51,-1
 284 796 l 1,52,-1
 376 879 l 1,53,-1
 412 837 l 1,54,-1
 284 702 l 1,55,-1
 156 837 l 1,50,-1
EndSplineSet
EndChar

StartChar: guilsinglleft
Encoding: 8249 8249 108
Width: 500
Flags: W
LayerCount: 2
Fore
SplineSet
153 269 m 1,0,-1
 300 478 l 1,1,-1
 361 445 l 1,2,-1
 257 269 l 1,3,-1
 361 93 l 1,4,-1
 300 59 l 1,5,-1
 153 269 l 1,0,-1
EndSplineSet
Substitution2: "'case' +WSdlh1tXfUQwf3UoMGuKv2V0MFcwX1tXX2IA lookup 17 +MLUw1jDGMPww1jDr" Guilsinglleft
EndChar

StartChar: OE
Encoding: 338 338 109
Width: 500
Flags: W
LayerCount: 2
Fore
SplineSet
233 -6 m 0,0,1
 139 -6 139 -6 84 71.5 c 128,-1,2
 29 149 29 149 29 319 c 128,-1,3
 29 489 29 489 84 575.5 c 128,-1,4
 139 662 139 662 234 662 c 0,5,6
 246 662 246 662 262 660 c 128,-1,7
 278 658 278 658 293 656 c 2,8,-1
 497 656 l 1,9,-1
 497 582 l 1,10,-1
 361 582 l 1,11,-1
 361 381 l 1,12,-1
 473 381 l 1,13,-1
 473 306 l 1,14,-1
 361 306 l 1,15,-1
 361 74 l 1,16,-1
 511 74 l 1,17,-1
 511 0 l 1,18,-1
 293 0 l 1,19,20
 262 -6 262 -6 233 -6 c 0,0,1
233 587 m 0,21,22
 204 587 204 587 181.5 568 c 128,-1,23
 159 549 159 549 144 514 c 128,-1,24
 129 479 129 479 121 430 c 128,-1,25
 113 381 113 381 113 319 c 0,26,27
 113 196 113 196 143.5 132.5 c 128,-1,28
 174 69 174 69 233 69 c 0,29,30
 254 69 254 69 265 72 c 128,-1,31
 276 75 276 75 279 76 c 2,32,-1
 279 580 l 1,33,34
 265 585 265 585 254 586 c 128,-1,35
 243 587 243 587 233 587 c 0,21,22
EndSplineSet
EndChar

StartChar: quoteleft
Encoding: 8216 8216 110
Width: 500
Flags: W
LayerCount: 2
Fore
SplineSet
372 684 m 1,0,1
 353 680 353 680 334.5 675.5 c 128,-1,2
 316 671 316 671 300 663 c 128,-1,3
 284 655 284 655 271.5 642.5 c 128,-1,4
 259 630 259 630 251 610 c 1,5,6
 285 607 285 607 300.5 584 c 128,-1,7
 316 561 316 561 316 538 c 0,8,9
 316 496 316 496 291.5 474.5 c 128,-1,10
 267 453 267 453 237 453 c 0,11,12
 198 453 198 453 178 481 c 128,-1,13
 158 509 158 509 158 549 c 0,14,15
 158 580 158 580 170 613.5 c 128,-1,16
 182 647 182 647 206.5 676 c 128,-1,17
 231 705 231 705 268.5 725.5 c 128,-1,18
 306 746 306 746 356 753 c 1,19,-1
 372 684 l 1,0,1
EndSplineSet
EndChar

StartChar: quoteright
Encoding: 8217 8217 111
Width: 500
Flags: W
LayerCount: 2
Fore
SplineSet
157 518 m 1,0,1
 176 522 176 522 194.5 526.5 c 128,-1,2
 213 531 213 531 229 539 c 128,-1,3
 245 547 245 547 257.5 559 c 128,-1,4
 270 571 270 571 278 593 c 1,5,6
 244 596 244 596 228.5 618.5 c 128,-1,7
 213 641 213 641 213 664 c 0,8,9
 213 706 213 706 237.5 727.5 c 128,-1,10
 262 749 262 749 292 749 c 0,11,12
 331 749 331 749 351 721 c 128,-1,13
 371 693 371 693 371 653 c 0,14,15
 371 622 371 622 359 588.5 c 128,-1,16
 347 555 347 555 322 526 c 128,-1,17
 297 497 297 497 260 476.5 c 128,-1,18
 223 456 223 456 173 449 c 1,19,-1
 157 518 l 1,0,1
EndSplineSet
EndChar

StartChar: quotedblleft
Encoding: 8220 8220 112
Width: 500
Flags: W
LayerCount: 2
Fore
SplineSet
241 673 m 1,0,1
 223 669 223 669 206 665 c 128,-1,2
 189 661 189 661 174 654 c 128,-1,3
 159 647 159 647 147.5 635.5 c 128,-1,4
 136 624 136 624 129 605 c 1,5,6
 160 602 160 602 175.5 581.5 c 128,-1,7
 191 561 191 561 191 535 c 128,-1,8
 191 509 191 509 174 487 c 128,-1,9
 157 465 157 465 121 465 c 0,10,11
 90 465 90 465 68 486.5 c 128,-1,12
 46 508 46 508 46 554 c 0,13,14
 46 584 46 584 55 613.5 c 128,-1,15
 64 643 64 643 84.5 667.5 c 128,-1,16
 105 692 105 692 139.5 710 c 128,-1,17
 174 728 174 728 226 735 c 1,18,-1
 241 673 l 1,0,1
485 673 m 1,19,20
 467 669 467 669 450.5 665 c 128,-1,21
 434 661 434 661 419.5 654 c 128,-1,22
 405 647 405 647 393.5 635.5 c 128,-1,23
 382 624 382 624 375 605 c 1,24,25
 406 602 406 602 421.5 581.5 c 128,-1,26
 437 561 437 561 437 535 c 128,-1,27
 437 509 437 509 419.5 487 c 128,-1,28
 402 465 402 465 367 465 c 0,29,30
 336 465 336 465 313 486.5 c 128,-1,31
 290 508 290 508 290 554 c 0,32,33
 290 584 290 584 299 613.5 c 128,-1,34
 308 643 308 643 329 667.5 c 128,-1,35
 350 692 350 692 384.5 710 c 128,-1,36
 419 728 419 728 471 735 c 1,37,-1
 485 673 l 1,19,20
EndSplineSet
EndChar

StartChar: quotedblright
Encoding: 8221 8221 113
Width: 500
Flags: W
LayerCount: 2
Fore
SplineSet
289 527 m 1,0,1
 307 531 307 531 324 534.5 c 128,-1,2
 341 538 341 538 356 545.5 c 128,-1,3
 371 553 371 553 382.5 565 c 128,-1,4
 394 577 394 577 401 596 c 1,5,6
 370 598 370 598 354.5 619 c 128,-1,7
 339 640 339 640 339 665 c 0,8,9
 339 691 339 691 356 713 c 128,-1,10
 373 735 373 735 409 735 c 0,11,12
 440 735 440 735 462 713.5 c 128,-1,13
 484 692 484 692 484 646 c 0,14,15
 484 615 484 615 475 585.5 c 128,-1,16
 466 556 466 556 445.5 532 c 128,-1,17
 425 508 425 508 390.5 490 c 128,-1,18
 356 472 356 472 305 465 c 1,19,-1
 289 527 l 1,0,1
45 527 m 1,20,21
 63 531 63 531 79.5 534.5 c 128,-1,22
 96 538 96 538 110.5 545.5 c 128,-1,23
 125 553 125 553 136.5 565 c 128,-1,24
 148 577 148 577 155 596 c 1,25,26
 124 598 124 598 108.5 619 c 128,-1,27
 93 640 93 640 93 665 c 0,28,29
 93 691 93 691 110.5 713 c 128,-1,30
 128 735 128 735 163 735 c 0,31,32
 194 735 194 735 217 713.5 c 128,-1,33
 240 692 240 692 240 646 c 0,34,35
 240 615 240 615 231 585.5 c 128,-1,36
 222 556 222 556 201 532 c 128,-1,37
 180 508 180 508 145.5 490 c 128,-1,38
 111 472 111 472 59 465 c 1,39,-1
 45 527 l 1,20,21
EndSplineSet
EndChar

StartChar: bullet
Encoding: 8226 8226 114
Width: 500
Flags: W
LayerCount: 2
Fore
SplineSet
409 335 m 0,0,1
 409 304 409 304 399 276.5 c 128,-1,2
 389 249 389 249 370.5 228.5 c 128,-1,3
 352 208 352 208 325 195.5 c 128,-1,4
 298 183 298 183 265 183 c 0,5,6
 231 183 231 183 204.5 195.5 c 128,-1,7
 178 208 178 208 159.5 228.5 c 128,-1,8
 141 249 141 249 131 276.5 c 128,-1,9
 121 304 121 304 121 335 c 0,10,11
 121 365 121 365 131 392.5 c 128,-1,12
 141 420 141 420 159.5 441 c 128,-1,13
 178 462 178 462 204.5 474.5 c 128,-1,14
 231 487 231 487 265 487 c 0,15,16
 298 487 298 487 325 474.5 c 128,-1,17
 352 462 352 462 370.5 441 c 128,-1,18
 389 420 389 420 399 392.5 c 128,-1,19
 409 365 409 365 409 335 c 0,0,1
EndSplineSet
Substitution2: "'case' +WSdlh1tXfUQwf3UoMGuKv2V0MFcwX1tXX2IA lookup 17 +MLUw1jDGMPww1jDr" Bullet
EndChar

StartChar: endash
Encoding: 8211 8211 115
Width: 500
Flags: W
LayerCount: 2
Fore
SplineSet
73 324 m 1,0,-1
 457 324 l 1,1,-1
 457 250 l 1,2,-1
 73 250 l 1,3,-1
 73 324 l 1,0,-1
EndSplineSet
Substitution2: "'case' +WSdlh1tXfUQwf3UoMGuKv2V0MFcwX1tXX2IA lookup 17 +MLUw1jDGMPww1jDr" Endash
EndChar

StartChar: emdash
Encoding: 8212 8212 116
Width: 500
Flags: W
LayerCount: 2
Fore
SplineSet
0 324 m 1,0,-1
 530 324 l 1,1,-1
 530 250 l 1,2,-1
 0 250 l 1,3,-1
 0 324 l 1,0,-1
EndSplineSet
Substitution2: "'case' +WSdlh1tXfUQwf3UoMGuKv2V0MFcwX1tXX2IA lookup 17 +MLUw1jDGMPww1jDr" Emdash
EndChar

StartChar: tilde
Encoding: 732 732 117
Width: 500
Flags: W
LayerCount: 2
Fore
SplineSet
411 673 m 1,0,1
 408 661 408 661 400 646.5 c 128,-1,2
 392 632 392 632 380.5 619 c 128,-1,3
 369 606 369 606 353 597 c 128,-1,4
 337 588 337 588 317 588 c 0,5,6
 303 588 303 588 284.5 595.5 c 128,-1,7
 266 603 266 603 254 608 c 0,8,9
 226 623 226 623 210 623 c 0,10,11
 196 623 196 623 183.5 609.5 c 128,-1,12
 171 596 171 596 164 581 c 1,13,-1
 119 605 l 1,14,15
 122 617 122 617 130 632 c 128,-1,16
 138 647 138 647 149.5 659.5 c 128,-1,17
 161 672 161 672 177 681 c 128,-1,18
 193 690 193 690 212 690 c 0,19,20
 226 690 226 690 244.5 682 c 128,-1,21
 263 674 263 674 275 669 c 0,22,23
 303 654 303 654 319 654 c 0,24,25
 333 654 333 654 346 668 c 128,-1,26
 359 682 359 682 366 696 c 1,27,-1
 411 673 l 1,0,1
EndSplineSet
EndChar

StartChar: trademark
Encoding: 8482 8482 118
Width: 500
Flags: W
LayerCount: 2
Fore
SplineSet
346 452 m 1,0,-1
 304 575 l 1,1,2
 302 554 302 554 301 522 c 128,-1,3
 300 490 300 490 299.5 459.5 c 128,-1,4
 299 429 299 429 298.5 406 c 128,-1,5
 298 383 298 383 298 378 c 1,6,-1
 236 378 l 1,7,8
 239 431 239 431 242.5 470.5 c 128,-1,9
 246 510 246 510 249.5 541.5 c 128,-1,10
 253 573 253 573 257 600.5 c 128,-1,11
 261 628 261 628 266 656 c 1,12,-1
 323 656 l 1,13,-1
 370 512 l 1,14,-1
 420 656 l 1,15,-1
 477 656 l 1,16,17
 482 627 482 627 486 599.5 c 128,-1,18
 490 572 490 572 493 540.5 c 128,-1,19
 496 509 496 509 498.5 469.5 c 128,-1,20
 501 430 501 430 505 378 c 1,21,-1
 443 378 l 1,22,23
 443 382 443 382 442.5 405.5 c 128,-1,24
 442 429 442 429 441.5 459.5 c 128,-1,25
 441 490 441 490 440 521.5 c 128,-1,26
 439 553 439 553 438 575 c 1,27,-1
 393 452 l 1,28,-1
 346 452 l 1,0,-1
216 656 m 1,29,-1
 216 603 l 1,30,-1
 148 603 l 1,31,-1
 148 378 l 1,32,-1
 87 378 l 1,33,-1
 87 603 l 1,34,-1
 19 603 l 1,35,-1
 19 656 l 1,36,-1
 216 656 l 1,29,-1
EndSplineSet
EndChar

StartChar: scaron
Encoding: 353 353 119
Width: 500
Flags: W
LayerCount: 2
Fore
SplineSet
372 123 m 0,0,1
 372 149 372 149 350.5 166 c 128,-1,2
 329 183 329 183 296.5 196 c 128,-1,3
 264 209 264 209 226 221 c 128,-1,4
 188 233 188 233 155.5 251 c 128,-1,5
 123 269 123 269 101.5 295.5 c 128,-1,6
 80 322 80 322 80 365 c 0,7,8
 80 424 80 424 128 464 c 128,-1,9
 176 504 176 504 279 504 c 0,10,11
 319 504 319 504 362 498 c 128,-1,12
 405 492 405 492 436 482 c 1,13,-1
 420 404 l 1,14,15
 412 408 412 408 397 413 c 128,-1,16
 382 418 382 418 362.5 421.5 c 128,-1,17
 343 425 343 425 321.5 427 c 128,-1,18
 300 429 300 429 280 429 c 0,19,20
 166 429 166 429 165 367 c 0,21,22
 165 345 165 345 187 329.5 c 128,-1,23
 209 314 209 314 242 301 c 128,-1,24
 275 288 275 288 313 275 c 128,-1,25
 351 262 351 262 384 243 c 128,-1,26
 417 224 417 224 438.5 197 c 128,-1,27
 460 170 460 170 460 128 c 0,28,29
 460 61 460 61 408 24.5 c 128,-1,30
 356 -12 356 -12 244 -12 c 0,31,32
 193 -12 193 -12 150.5 -3.5 c 128,-1,33
 108 5 108 5 70 22 c 1,34,-1
 87 102 l 1,35,36
 124 85 124 85 165 74 c 128,-1,37
 206 63 206 63 252 63 c 0,38,39
 372 63 372 63 372 123 c 0,0,1
147 690 m 1,40,-1
 183 731 l 1,41,-1
 276 649 l 1,42,-1
 368 731 l 1,43,-1
 404 690 l 1,44,-1
 276 554 l 1,45,-1
 147 690 l 1,40,-1
EndSplineSet
Substitution2: "'case' +WSdlh1tXfUQwf3UoMGuKv2V0MFcwX1tXX2IA lookup 18 +MLUw1jDGMPww1jDr" Scaron
EndChar

StartChar: guilsinglright
Encoding: 8250 8250 120
Width: 500
Flags: W
LayerCount: 2
Fore
SplineSet
230 59 m 1,0,-1
 169 93 l 1,1,-1
 273 269 l 1,2,-1
 169 445 l 1,3,-1
 230 478 l 1,4,-1
 377 269 l 1,5,-1
 230 59 l 1,0,-1
EndSplineSet
Substitution2: "'case' +WSdlh1tXfUQwf3UoMGuKv2V0MFcwX1tXX2IA lookup 17 +MLUw1jDGMPww1jDr" Guilsinglright
EndChar

StartChar: oe
Encoding: 339 339 121
Width: 500
Flags: W
LayerCount: 2
Fore
SplineSet
427 294 m 1,0,1
 427 357 427 357 413.5 393 c 128,-1,2
 400 429 400 429 378 429 c 0,3,4
 352 429 352 429 336.5 391.5 c 128,-1,5
 321 354 321 354 321 294 c 1,6,-1
 427 294 l 1,0,1
179 66 m 0,7,8
 195 66 195 66 205.5 80.5 c 128,-1,9
 216 95 216 95 223 120 c 128,-1,10
 230 145 230 145 232.5 177 c 128,-1,11
 235 209 235 209 235 243 c 128,-1,12
 235 277 235 277 232 310 c 128,-1,13
 229 343 229 343 221.5 369 c 128,-1,14
 214 395 214 395 202 411.5 c 128,-1,15
 190 428 190 428 173 428 c 0,16,17
 157 428 157 428 145.5 413 c 128,-1,18
 134 398 134 398 127 373.5 c 128,-1,19
 120 349 120 349 116.5 316.5 c 128,-1,20
 113 284 113 284 113 251 c 0,21,22
 113 216 113 216 117 183.5 c 128,-1,23
 121 151 121 151 129 124.5 c 128,-1,24
 137 98 137 98 149 82 c 128,-1,25
 161 66 161 66 179 66 c 0,7,8
493 16 m 1,26,27
 472 1 472 1 447.5 -5.5 c 128,-1,28
 423 -12 423 -12 400 -12 c 0,29,30
 363 -12 363 -12 331 9 c 128,-1,31
 299 30 299 30 278 84 c 1,32,33
 260 35 260 35 235.5 11.5 c 128,-1,34
 211 -12 211 -12 166 -12 c 0,35,36
 131 -12 131 -12 106.5 10.5 c 128,-1,37
 82 33 82 33 65.5 69.5 c 128,-1,38
 49 106 49 106 41 152.5 c 128,-1,39
 33 199 33 199 33 248 c 0,40,41
 33 296 33 296 41 342 c 128,-1,42
 49 388 49 388 65 424 c 128,-1,43
 81 460 81 460 106 482 c 128,-1,44
 131 504 131 504 166 504 c 0,45,46
 205 504 205 504 234 481.5 c 128,-1,47
 263 459 263 459 278 408 c 1,48,49
 297 458 297 458 322.5 481 c 128,-1,50
 348 504 348 504 378 504 c 0,51,52
 506 504 506 504 507 253 c 0,53,54
 507 247 507 247 507 239.5 c 128,-1,55
 507 232 507 232 506 223 c 1,56,-1
 319 223 l 1,57,58
 319 193 319 193 325 165 c 128,-1,59
 331 137 331 137 342 115 c 128,-1,60
 353 93 353 93 370.5 80 c 128,-1,61
 388 67 388 67 411 67 c 0,62,63
 425 67 425 67 441 71 c 128,-1,64
 457 75 457 75 481 90 c 1,65,-1
 493 16 l 1,26,27
EndSplineSet
Substitution2: "'case' +WSdlh1tXfUQwf3UoMGuKv2V0MFcwX1tXX2IA lookup 18 +MLUw1jDGMPww1jDr" OE
EndChar

StartChar: Ydieresis
Encoding: 376 376 122
Width: 500
Flags: W
LayerCount: 2
Fore
SplineSet
223 0 m 1,0,-1
 223 244 l 1,1,2
 158 350 158 350 105.5 450.5 c 128,-1,3
 53 551 53 551 14 656 c 1,4,-1
 111 656 l 1,5,6
 142 567 142 567 182 486 c 128,-1,7
 222 405 222 405 267 319 c 1,8,9
 316 409 316 409 353.5 490 c 128,-1,10
 391 571 391 571 422 656 c 1,11,-1
 517 656 l 1,12,13
 477 552 477 552 425 453.5 c 128,-1,14
 373 355 373 355 310 246 c 1,15,-1
 310 0 l 1,16,-1
 223 0 l 1,0,-1
357 730 m 128,-1,18
 335 730 335 730 318.5 746 c 128,-1,19
 302 762 302 762 302 786.5 c 128,-1,20
 302 811 302 811 318.5 826.5 c 128,-1,21
 335 842 335 842 357 842 c 128,-1,22
 379 842 379 842 395.5 826.5 c 128,-1,23
 412 811 412 811 412 786.5 c 128,-1,24
 412 762 412 762 395.5 746 c 128,-1,17
 379 730 379 730 357 730 c 128,-1,18
177 730 m 0,25,26
 156 730 156 730 139 746 c 128,-1,27
 122 762 122 762 122 786.5 c 128,-1,28
 122 811 122 811 139 826.5 c 128,-1,29
 156 842 156 842 177 842 c 0,30,31
 199 842 199 842 215.5 826.5 c 128,-1,32
 232 811 232 811 232 786.5 c 128,-1,33
 232 762 232 762 215.5 746 c 128,-1,34
 199 730 199 730 177 730 c 0,25,26
EndSplineSet
EndChar

StartChar: exclamdown
Encoding: 161 161 124
Width: 500
Flags: W
LayerCount: 2
Fore
SplineSet
264 493 m 0,0,1
 294 493 294 493 314.5 473.5 c 128,-1,2
 335 454 335 454 335 421 c 128,-1,3
 335 388 335 388 314.5 369 c 128,-1,4
 294 350 294 350 264 350 c 0,5,6
 235 350 235 350 214 369 c 128,-1,7
 193 388 193 388 193 421 c 128,-1,8
 193 454 193 454 214 473.5 c 128,-1,9
 235 493 235 493 264 493 c 0,0,1
216 3 m 2,10,11
 216 42 216 42 217.5 75 c 128,-1,12
 219 108 219 108 221.5 137.5 c 128,-1,13
 224 167 224 167 227.5 196.5 c 128,-1,14
 231 226 231 226 234 258 c 1,15,-1
 295 258 l 1,16,17
 298 226 298 226 301 196.5 c 128,-1,18
 304 167 304 167 307 137.5 c 128,-1,19
 310 108 310 108 311 75 c 128,-1,20
 312 42 312 42 312 3 c 2,21,-1
 312 -175 l 1,22,-1
 216 -175 l 1,23,-1
 216 3 l 2,10,11
EndSplineSet
Substitution2: "'case' +WSdlh1tXfUQwf3UoMGuKv2V0MFcwX1tXX2IA lookup 17 +MLUw1jDGMPww1jDr" Exclamdown
EndChar

StartChar: cent
Encoding: 162 162 125
Width: 500
Flags: W
LayerCount: 2
Fore
SplineSet
52 276 m 0,0,1
 52 332 52 332 68 375 c 128,-1,2
 84 418 84 418 112.5 448.5 c 128,-1,3
 141 479 141 479 180.5 497 c 128,-1,4
 220 515 220 515 267 522 c 1,5,-1
 267 656 l 1,6,-1
 346 656 l 1,7,-1
 346 525 l 1,8,9
 375 523 375 523 403 518 c 128,-1,10
 431 513 431 513 464 502 c 1,11,-1
 445 429 l 1,12,13
 410 442 410 442 381.5 445.5 c 128,-1,14
 353 449 353 449 323 449 c 0,15,16
 285 449 285 449 251.5 439 c 128,-1,17
 218 429 218 429 194 408.5 c 128,-1,18
 170 388 170 388 156 354.5 c 128,-1,19
 142 321 142 321 142 276 c 0,20,21
 142 188 142 188 194.5 146 c 128,-1,22
 247 104 247 104 332 104 c 0,23,24
 366 104 366 104 396.5 108 c 128,-1,25
 427 112 427 112 464 125 c 1,26,-1
 477 53 l 1,27,28
 445 41 445 41 413.5 36 c 128,-1,29
 382 31 382 31 346 29 c 1,30,-1
 346 -103 l 1,31,-1
 267 -103 l 1,32,-1
 267 31 l 1,33,34
 169 45 169 45 110.5 106.5 c 128,-1,35
 52 168 52 168 52 276 c 0,0,1
EndSplineSet
EndChar

StartChar: sterling
Encoding: 163 163 126
Width: 500
Flags: W
LayerCount: 2
Fore
SplineSet
223 353 m 1,0,-1
 403 353 l 1,1,-1
 403 282 l 1,2,-1
 223 282 l 1,3,-1
 223 275 l 2,4,5
 223 227 223 227 219 175 c 128,-1,6
 215 123 215 123 208 75 c 1,7,-1
 482 75 l 1,8,-1
 482 0 l 1,9,-1
 109 0 l 1,10,11
 120 68 120 68 128 134 c 128,-1,12
 136 200 136 200 136 268 c 2,13,-1
 136 282 l 1,14,-1
 48 282 l 1,15,-1
 48 353 l 1,16,-1
 136 353 l 1,17,-1
 136 431 l 2,18,19
 136 501 136 501 150.5 547.5 c 128,-1,20
 165 594 165 594 191.5 620.5 c 128,-1,21
 218 647 218 647 256 657.5 c 128,-1,22
 294 668 294 668 340 668 c 0,23,24
 381 668 381 668 409.5 661 c 128,-1,25
 438 654 438 654 464 642 c 1,26,-1
 443 567 l 1,27,28
 395 590 395 590 336 590 c 0,29,30
 311 590 311 590 290 583 c 128,-1,31
 269 576 269 576 253.5 558 c 128,-1,32
 238 540 238 540 230.5 509.5 c 128,-1,33
 223 479 223 479 223 434 c 2,34,-1
 223 353 l 1,0,-1
EndSplineSet
EndChar

StartChar: currency
Encoding: 164 164 127
Width: 500
Flags: W
LayerCount: 2
Fore
SplineSet
376 329 m 128,-1,1
 376 383 376 383 343.5 414.5 c 128,-1,2
 311 446 311 446 265 446 c 128,-1,3
 219 446 219 446 186.5 414.5 c 128,-1,4
 154 383 154 383 154 329 c 128,-1,5
 154 275 154 275 186.5 243 c 128,-1,6
 219 211 219 211 265 211 c 128,-1,7
 311 211 311 211 343.5 243 c 128,-1,0
 376 275 376 275 376 329 c 128,-1,1
83 329 m 0,8,9
 83 387 83 387 109 429 c 1,10,-1
 40 499 l 1,11,-1
 94 553 l 1,12,-1
 164 482 l 1,13,14
 210 510 210 510 265 510 c 0,15,16
 319 510 319 510 365 482 c 1,17,-1
 436 553 l 1,18,-1
 491 499 l 1,19,-1
 420 429 l 1,20,21
 448 387 448 387 447 329 c 0,22,23
 447 298 447 298 440.5 273.5 c 128,-1,24
 434 249 434 249 420 228 c 1,25,-1
 491 158 l 1,26,-1
 436 103 l 1,27,-1
 365 173 l 1,28,29
 319 147 319 147 265 146 c 0,30,31
 208 146 208 146 164 173 c 1,32,-1
 94 103 l 1,33,-1
 40 158 l 1,34,-1
 109 227 l 1,35,36
 83 270 83 270 83 329 c 0,8,9
EndSplineSet
EndChar

StartChar: yen
Encoding: 165 165 128
Width: 500
Flags: W
LayerCount: 2
Fore
SplineSet
223 0 m 1,0,-1
 223 101 l 1,1,-1
 69 101 l 1,2,-1
 69 167 l 1,3,-1
 223 167 l 1,4,-1
 223 264 l 1,5,-1
 69 264 l 1,6,-1
 69 332 l 1,7,-1
 198 332 l 1,8,9
 146 415 146 415 100 497 c 128,-1,10
 54 579 54 579 14 656 c 1,11,-1
 110 656 l 1,12,13
 144 582 144 582 184.5 508.5 c 128,-1,14
 225 435 225 435 268 367 c 1,15,16
 309 435 309 435 348 508.5 c 128,-1,17
 387 582 387 582 421 656 c 1,18,-1
 517 656 l 1,19,20
 475 576 475 576 429.5 495 c 128,-1,21
 384 414 384 414 332 332 c 1,22,-1
 462 332 l 1,23,-1
 462 264 l 1,24,-1
 310 264 l 1,25,-1
 310 167 l 1,26,-1
 462 167 l 1,27,-1
 462 101 l 1,28,-1
 310 101 l 1,29,-1
 310 0 l 1,30,-1
 223 0 l 1,0,-1
EndSplineSet
EndChar

StartChar: brokenbar
Encoding: 166 166 129
Width: 500
Flags: W
LayerCount: 2
Fore
SplineSet
225 741 m 1,0,-1
 306 741 l 1,1,-1
 306 378 l 1,2,-1
 225 378 l 1,3,-1
 225 741 l 1,0,-1
225 188 m 1,4,-1
 306 188 l 1,5,-1
 306 -175 l 1,6,-1
 225 -175 l 1,7,-1
 225 188 l 1,4,-1
EndSplineSet
EndChar

StartChar: section
Encoding: 167 167 130
Width: 500
Flags: W
LayerCount: 2
Fore
SplineSet
214 395 m 1,0,1
 186 377 186 377 169.5 353.5 c 128,-1,2
 153 330 153 330 153 301 c 0,3,4
 153 277 153 277 164 260 c 128,-1,5
 175 243 175 243 194 230 c 128,-1,6
 213 217 213 217 239.5 207.5 c 128,-1,7
 266 198 266 198 297 188 c 2,8,-1
 315 181 l 1,9,10
 343 199 343 199 359.5 222.5 c 128,-1,11
 376 246 376 246 376 276 c 0,12,13
 376 300 376 300 365 316.5 c 128,-1,14
 354 333 354 333 335.5 344.5 c 128,-1,15
 317 356 317 356 292 365.5 c 128,-1,16
 267 375 267 375 240 386 c 2,17,-1
 214 395 l 1,0,1
95 -1 m 1,18,19
 124 -13 124 -13 158 -22 c 128,-1,20
 192 -31 192 -31 245 -31 c 0,21,22
 352 -31 352 -31 352 35 c 0,23,24
 352 69 352 69 326.5 87.5 c 128,-1,25
 301 106 301 106 241 126 c 0,26,27
 206 138 206 138 175.5 151 c 128,-1,28
 145 164 145 164 122 182.5 c 128,-1,29
 99 201 99 201 85.5 227.5 c 128,-1,30
 72 254 72 254 72 293 c 0,31,32
 72 317 72 317 80 338 c 128,-1,33
 88 359 88 359 100 376.5 c 128,-1,34
 112 394 112 394 127 407.5 c 128,-1,35
 142 421 142 421 156 429 c 1,36,37
 133 448 133 448 119 472.5 c 128,-1,38
 105 497 105 497 105 529 c 0,39,40
 105 595 105 595 151 633 c 128,-1,41
 197 671 197 671 280 671 c 0,42,43
 329 671 329 671 370 662 c 128,-1,44
 411 653 411 653 437 644 c 1,45,-1
 417 571 l 1,46,47
 394 579 394 579 361.5 589 c 128,-1,48
 329 599 329 599 279 599 c 0,49,50
 242 599 242 599 215.5 583.5 c 128,-1,51
 189 568 189 568 189 536 c 0,52,53
 189 503 189 503 212 485 c 0,54,55
 235 466 235 466 288 450 c 0,56,57
 323 438 323 438 353.5 425 c 128,-1,58
 384 412 384 412 407 393 c 128,-1,59
 430 374 430 374 443.5 348 c 128,-1,60
 457 322 457 322 457 284 c 0,61,62
 457 261 457 261 449.5 240 c 128,-1,63
 442 219 442 219 430.5 201.5 c 128,-1,64
 419 184 419 184 404.5 170.5 c 128,-1,65
 390 157 390 157 376 148 c 1,66,67
 404 128 404 128 421 101.5 c 128,-1,68
 438 75 438 75 438 40 c 0,69,70
 438 -31 438 -31 387.5 -67 c 128,-1,71
 337 -103 337 -103 244 -103 c 0,72,73
 180 -103 180 -103 139.5 -93 c 128,-1,74
 99 -83 99 -83 74 -71 c 1,75,-1
 95 -1 l 1,18,19
EndSplineSet
EndChar

StartChar: dieresis
Encoding: 168 168 131
Width: 500
Flags: W
LayerCount: 2
Fore
SplineSet
355 583 m 128,-1,1
 333 583 333 583 316.5 599 c 128,-1,2
 300 615 300 615 300 639.5 c 128,-1,3
 300 664 300 664 316.5 679 c 128,-1,4
 333 694 333 694 355 694 c 128,-1,5
 377 694 377 694 393.5 679 c 128,-1,6
 410 664 410 664 410 639.5 c 128,-1,7
 410 615 410 615 393.5 599 c 128,-1,0
 377 583 377 583 355 583 c 128,-1,1
175 583 m 0,8,9
 154 583 154 583 137 599 c 128,-1,10
 120 615 120 615 120 639.5 c 128,-1,11
 120 664 120 664 137 679 c 128,-1,12
 154 694 154 694 175 694 c 0,13,14
 197 694 197 694 213.5 679 c 128,-1,15
 230 664 230 664 230 639.5 c 128,-1,16
 230 615 230 615 213.5 599 c 128,-1,17
 197 583 197 583 175 583 c 0,8,9
EndSplineSet
EndChar

StartChar: copyright
Encoding: 169 169 132
Width: 500
Flags: W
LayerCount: 2
Fore
SplineSet
36 245 m 0,0,1
 36 310 36 310 56 358.5 c 128,-1,2
 76 407 76 407 108.5 439.5 c 128,-1,3
 141 472 141 472 182.5 488 c 128,-1,4
 224 504 224 504 266 504 c 128,-1,5
 308 504 308 504 349.5 488 c 128,-1,6
 391 472 391 472 423 439.5 c 128,-1,7
 455 407 455 407 474.5 359 c 128,-1,8
 494 311 494 311 494 247 c 0,9,10
 494 182 494 182 474 134 c 128,-1,11
 454 86 454 86 421.5 53.5 c 128,-1,12
 389 21 389 21 347.5 4.5 c 128,-1,13
 306 -12 306 -12 264 -12 c 0,14,15
 221 -12 221 -12 180 4.5 c 128,-1,16
 139 21 139 21 107 53 c 128,-1,17
 75 85 75 85 55.5 133 c 128,-1,18
 36 181 36 181 36 245 c 0,0,1
347 127 m 1,19,20
 329 119 329 119 309 114.5 c 128,-1,21
 289 110 289 110 271 110 c 0,22,23
 240 110 240 110 217.5 121 c 128,-1,24
 195 132 195 132 180 151 c 128,-1,25
 165 170 165 170 158 193.5 c 128,-1,26
 151 217 151 217 151 242.5 c 128,-1,27
 151 268 151 268 158 292.5 c 128,-1,28
 165 317 165 317 180 336 c 128,-1,29
 195 355 195 355 218 366.5 c 128,-1,30
 241 378 241 378 272 378 c 0,31,32
 289 378 289 378 307.5 375.5 c 128,-1,33
 326 373 326 373 344 365 c 1,34,-1
 323 307 l 1,35,36
 311 312 311 312 299.5 314 c 128,-1,37
 288 316 288 316 279 316 c 0,38,39
 245 316 245 316 230.5 294.5 c 128,-1,40
 216 273 216 273 216 247 c 0,41,42
 216 213 216 213 233.5 193.5 c 128,-1,43
 251 174 251 174 283 174 c 0,44,45
 293 174 293 174 305 176 c 128,-1,46
 317 178 317 178 329 183 c 1,47,-1
 347 127 l 1,19,20
432 245 m 0,48,49
 432 296 432 296 418 333.5 c 128,-1,50
 404 371 404 371 380 396 c 128,-1,51
 356 421 356 421 326.5 433.5 c 128,-1,52
 297 446 297 446 265 446 c 128,-1,53
 233 446 233 446 203.5 433.5 c 128,-1,54
 174 421 174 421 150 396 c 128,-1,55
 126 371 126 371 112 333.5 c 128,-1,56
 98 296 98 296 98 247 c 0,57,58
 98 196 98 196 112 158.5 c 128,-1,59
 126 121 126 121 150 96 c 128,-1,60
 174 71 174 71 203.5 58.5 c 128,-1,61
 233 46 233 46 265 46 c 128,-1,62
 297 46 297 46 327 58.5 c 128,-1,63
 357 71 357 71 380.5 96 c 128,-1,64
 404 121 404 121 418 158 c 128,-1,65
 432 195 432 195 432 245 c 0,48,49
EndSplineSet
EndChar

StartChar: ordfeminine
Encoding: 170 170 133
Width: 500
Flags: W
LayerCount: 2
Fore
SplineSet
268 668 m 0,0,1
 345 668 345 668 376 632 c 128,-1,2
 407 596 407 596 407 536 c 2,3,-1
 407 324 l 1,4,5
 384 319 384 319 345.5 315.5 c 128,-1,6
 307 312 307 312 268 312 c 0,7,8
 205 312 205 312 165 337.5 c 128,-1,9
 125 363 125 363 125 422 c 0,10,11
 125 452 125 452 137 472.5 c 128,-1,12
 149 493 149 493 170.5 505.5 c 128,-1,13
 192 518 192 518 219 524 c 128,-1,14
 246 530 246 530 277 530 c 0,15,16
 291 530 291 530 306 529 c 128,-1,17
 321 528 321 528 341 526 c 1,18,-1
 341 528 l 2,19,20
 341 542 341 542 338.5 556 c 128,-1,21
 336 570 336 570 327.5 581.5 c 128,-1,22
 319 593 319 593 303.5 599.5 c 128,-1,23
 288 606 288 606 264 606 c 0,24,25
 242 606 242 606 216.5 603.5 c 128,-1,26
 191 601 191 601 172 595 c 1,27,-1
 162 654 l 1,28,29
 180 659 180 659 208.5 663.5 c 128,-1,30
 237 668 237 668 268 668 c 0,0,1
275 370 m 0,31,32
 296 370 296 370 316 371 c 128,-1,33
 336 372 336 372 341 374 c 1,34,-1
 341 469 l 1,35,36
 330 471 330 471 314.5 472 c 128,-1,37
 299 473 299 473 284 473 c 0,38,39
 268 473 268 473 251.5 471 c 128,-1,40
 235 469 235 469 221.5 463.5 c 128,-1,41
 208 458 208 458 199.5 448 c 128,-1,42
 191 438 191 438 191 422 c 0,43,44
 191 394 191 394 213.5 382 c 128,-1,45
 236 370 236 370 275 370 c 0,31,32
EndSplineSet
EndChar

StartChar: guillemotleft
Encoding: 171 171 134
Width: 500
Flags: W
LayerCount: 2
Fore
SplineSet
257 269 m 1,0,-1
 384 456 l 1,1,-1
 438 427 l 1,2,-1
 350 269 l 1,3,-1
 435 117 l 1,4,-1
 382 84 l 1,5,-1
 257 269 l 1,0,-1
67 269 m 1,6,-1
 193 456 l 1,7,-1
 248 427 l 1,8,-1
 159 269 l 1,9,-1
 244 117 l 1,10,-1
 191 84 l 1,11,-1
 67 269 l 1,6,-1
EndSplineSet
Substitution2: "'case' +WSdlh1tXfUQwf3UoMGuKv2V0MFcwX1tXX2IA lookup 17 +MLUw1jDGMPww1jDr" Guillemotleft
EndChar

StartChar: logicalnot
Encoding: 172 172 135
Width: 500
Flags: W
LayerCount: 2
Fore
SplineSet
477 368 m 1,0,-1
 477 46 l 1,1,-1
 402 46 l 1,2,-1
 402 294 l 1,3,-1
 43 294 l 1,4,-1
 43 368 l 1,5,-1
 477 368 l 1,0,-1
EndSplineSet
EndChar

StartChar: uni00AD
Encoding: 173 173 136
Width: 500
Flags: W
LayerCount: 2
Fore
SplineSet
148 311 m 1,0,-1
 382 311 l 1,1,-1
 382 228 l 1,2,-1
 148 228 l 1,3,-1
 148 311 l 1,0,-1
EndSplineSet
EndChar

StartChar: registered
Encoding: 174 174 137
Width: 500
Flags: W
LayerCount: 2
Fore
SplineSet
233 251 m 1,0,-1
 252 251 l 2,1,2
 281 251 281 251 294.5 258.5 c 128,-1,3
 308 266 308 266 308 290 c 0,4,5
 308 311 308 311 291.5 318 c 128,-1,6
 275 325 275 325 257 325 c 0,7,8
 251 325 251 325 244.5 324.5 c 128,-1,9
 238 324 238 324 233 323 c 1,10,-1
 233 251 l 1,0,-1
233 198 m 1,11,-1
 233 117 l 1,12,-1
 176 117 l 1,13,-1
 176 369 l 1,14,15
 191 373 191 373 209 375.5 c 128,-1,16
 227 378 227 378 247 378 c 0,17,18
 307 378 307 378 336.5 355 c 128,-1,19
 366 332 366 332 366 287 c 0,20,21
 366 236 366 236 323 212 c 1,22,23
 336 194 336 194 350 169 c 128,-1,24
 364 144 364 144 377 117 c 1,25,-1
 317 117 l 1,26,27
 303 142 303 142 292.5 161.5 c 128,-1,28
 282 181 282 181 271 198 c 1,29,-1
 233 198 l 1,11,-1
36 245 m 0,30,31
 36 310 36 310 56 358.5 c 128,-1,32
 76 407 76 407 108.5 439.5 c 128,-1,33
 141 472 141 472 182.5 488 c 128,-1,34
 224 504 224 504 266 504 c 128,-1,35
 308 504 308 504 349.5 488 c 128,-1,36
 391 472 391 472 423 439.5 c 128,-1,37
 455 407 455 407 474.5 359 c 128,-1,38
 494 311 494 311 494 247 c 0,39,40
 494 182 494 182 474 134 c 128,-1,41
 454 86 454 86 421.5 53.5 c 128,-1,42
 389 21 389 21 347.5 4.5 c 128,-1,43
 306 -12 306 -12 264 -12 c 0,44,45
 221 -12 221 -12 180 4.5 c 128,-1,46
 139 21 139 21 107 53 c 128,-1,47
 75 85 75 85 55.5 133 c 128,-1,48
 36 181 36 181 36 245 c 0,30,31
432 245 m 0,49,50
 432 296 432 296 418 333.5 c 128,-1,51
 404 371 404 371 380 396 c 128,-1,52
 356 421 356 421 326.5 433.5 c 128,-1,53
 297 446 297 446 265 446 c 128,-1,54
 233 446 233 446 203.5 433.5 c 128,-1,55
 174 421 174 421 150 396 c 128,-1,56
 126 371 126 371 112 333.5 c 128,-1,57
 98 296 98 296 98 247 c 0,58,59
 98 196 98 196 112 158.5 c 128,-1,60
 126 121 126 121 150 96 c 128,-1,61
 174 71 174 71 203.5 58.5 c 128,-1,62
 233 46 233 46 265 46 c 128,-1,63
 297 46 297 46 327 58.5 c 128,-1,64
 357 71 357 71 380.5 96 c 128,-1,65
 404 121 404 121 418 158 c 128,-1,66
 432 195 432 195 432 245 c 0,49,50
EndSplineSet
EndChar

StartChar: macron
Encoding: 175 175 138
Width: 500
Flags: W
LayerCount: 2
Fore
SplineSet
130 673 m 1,0,-1
 400 673 l 1,1,-1
 400 605 l 1,2,-1
 130 605 l 1,3,-1
 130 673 l 1,0,-1
EndSplineSet
EndChar

StartChar: degree
Encoding: 176 176 139
Width: 500
Flags: W
LayerCount: 2
Fore
SplineSet
334 603 m 128,-1,1
 334 637 334 637 314 656 c 128,-1,2
 294 675 294 675 265 675 c 128,-1,3
 236 675 236 675 216 656 c 128,-1,4
 196 637 196 637 196 603 c 128,-1,5
 196 569 196 569 216 550 c 128,-1,6
 236 531 236 531 265 531 c 128,-1,7
 294 531 294 531 314 550 c 128,-1,0
 334 569 334 569 334 603 c 128,-1,1
398 603 m 128,-1,9
 398 572 398 572 387 548 c 128,-1,10
 376 524 376 524 357.5 507 c 128,-1,11
 339 490 339 490 315.5 481 c 128,-1,12
 292 472 292 472 265 472 c 128,-1,13
 238 472 238 472 214.5 481 c 128,-1,14
 191 490 191 490 172.5 507 c 128,-1,15
 154 524 154 524 143 548 c 128,-1,16
 132 572 132 572 132 603 c 128,-1,17
 132 634 132 634 143 658.5 c 128,-1,18
 154 683 154 683 172.5 700 c 128,-1,19
 191 717 191 717 214.5 726 c 128,-1,20
 238 735 238 735 265 735 c 128,-1,21
 292 735 292 735 315.5 726 c 128,-1,22
 339 717 339 717 357.5 700 c 128,-1,23
 376 683 376 683 387 658.5 c 128,-1,8
 398 634 398 634 398 603 c 128,-1,9
EndSplineSet
EndChar

StartChar: plusminus
Encoding: 177 177 140
Width: 500
Flags: W
LayerCount: 2
Fore
SplineSet
49 75 m 1,0,-1
 482 75 l 1,1,-1
 482 0 l 1,2,-1
 49 0 l 1,3,-1
 49 75 l 1,0,-1
49 396 m 1,4,-1
 227 396 l 1,5,-1
 227 587 l 1,6,-1
 303 587 l 1,7,-1
 303 396 l 1,8,-1
 482 396 l 1,9,-1
 482 322 l 1,10,-1
 303 322 l 1,11,-1
 303 131 l 1,12,-1
 227 131 l 1,13,-1
 227 322 l 1,14,-1
 49 322 l 1,15,-1
 49 396 l 1,4,-1
EndSplineSet
EndChar

StartChar: twosuperior
Encoding: 178 178 141
Width: 500
Flags: W
LayerCount: 2
Fore
SplineSet
384 566 m 0,0,1
 384 546 384 546 375 527.5 c 128,-1,2
 366 509 366 509 350.5 490.5 c 128,-1,3
 335 472 335 472 315 453 c 128,-1,4
 295 434 295 434 272 414 c 0,5,6
 256 400 256 400 240.5 385 c 128,-1,7
 225 370 225 370 223 358 c 1,8,-1
 399 358 l 1,9,-1
 399 298 l 1,10,-1
 146 298 l 1,11,12
 143 330 143 330 150.5 353.5 c 128,-1,13
 158 377 158 377 172 397.5 c 128,-1,14
 186 418 186 418 204.5 434 c 128,-1,15
 223 450 223 450 242 467 c 0,16,17
 274 495 274 495 294 518.5 c 128,-1,18
 314 542 314 542 314 564 c 0,19,20
 314 612 314 612 255 612 c 0,21,22
 239 612 239 612 225 607.5 c 128,-1,23
 211 603 211 603 199.5 597 c 128,-1,24
 188 591 188 591 179.5 585 c 128,-1,25
 171 579 171 579 165 575 c 1,26,-1
 131 621 l 1,27,28
 148 638 148 638 180.5 654.5 c 128,-1,29
 213 671 213 671 255 671 c 0,30,31
 321 671 321 671 352.5 644 c 128,-1,32
 384 617 384 617 384 566 c 0,0,1
EndSplineSet
Substitution2: "+U1h9FH9uY9sA lookup 22 +MLUw1jDGMPww1jDr" twoinferior
Substitution2: "'sinf' +edFbZmWHcy51KE4LMGQwTWWHW1cA lookup 11 +MLUw1jDGMPww1jDr" two.sinf
Substitution2: "'subs' +TgswZDBNZYdbVwAA lookup 10 +MLUw1jDGMPww1jDr" two.sinf
Substitution2: "'sups' +TgowZDBNZYdbVwAA lookup 9 +MLUw1jDGMPww1jDr" two.sups
Substitution2: "'dnom' +UgZrzQAA lookup 8 +MLUw1jDGMPww1jDr" twoinferior
EndChar

StartChar: threesuperior
Encoding: 179 179 142
Width: 500
Flags: W
LayerCount: 2
Fore
SplineSet
240 350 m 0,0,1
 291 350 291 350 309.5 365.5 c 128,-1,2
 328 381 328 381 328 405 c 0,3,4
 328 421 328 421 319.5 432 c 128,-1,5
 311 443 311 443 296.5 450.5 c 128,-1,6
 282 458 282 458 263 461 c 128,-1,7
 244 464 244 464 224 464 c 2,8,-1
 206 464 l 1,9,-1
 206 518 l 1,10,-1
 229 518 l 2,11,12
 243 518 243 518 257 521 c 128,-1,13
 271 524 271 524 283 529.5 c 128,-1,14
 295 535 295 535 303 544.5 c 128,-1,15
 311 554 311 554 311 569 c 0,16,17
 311 592 311 592 293.5 602.5 c 128,-1,18
 276 613 276 613 248 613 c 0,19,20
 223 613 223 613 201 604 c 128,-1,21
 179 595 179 595 163 587 c 1,22,-1
 139 639 l 1,23,24
 154 650 154 650 186 660.5 c 128,-1,25
 218 671 218 671 250 671 c 0,26,27
 319 671 319 671 347.5 643.5 c 128,-1,28
 376 616 376 616 376 571 c 0,29,30
 376 525 376 525 324 496 c 1,31,32
 358 485 358 485 377 461.5 c 128,-1,33
 396 438 396 438 396 404 c 0,34,35
 396 356 396 356 360 323 c 128,-1,36
 324 290 324 290 241 290 c 0,37,38
 211 290 211 290 181 297 c 128,-1,39
 151 304 151 304 134 313 c 1,40,-1
 147 369 l 1,41,42
 168 361 168 361 192 355.5 c 128,-1,43
 216 350 216 350 240 350 c 0,0,1
EndSplineSet
Substitution2: "+U1h9FH9uY9sA lookup 22 +MLUw1jDGMPww1jDr" threeinferior
Substitution2: "'sinf' +edFbZmWHcy51KE4LMGQwTWWHW1cA lookup 11 +MLUw1jDGMPww1jDr" three.sinf
Substitution2: "'subs' +TgswZDBNZYdbVwAA lookup 10 +MLUw1jDGMPww1jDr" three.sinf
Substitution2: "'sups' +TgowZDBNZYdbVwAA lookup 9 +MLUw1jDGMPww1jDr" three.sups
Substitution2: "'dnom' +UgZrzQAA lookup 8 +MLUw1jDGMPww1jDr" threeinferior
EndChar

StartChar: acute
Encoding: 180 180 143
Width: 500
Flags: W
LayerCount: 2
Fore
SplineSet
358 678 m 1,0,-1
 225 549 l 1,1,-1
 180 588 l 1,2,-1
 301 735 l 1,3,-1
 358 678 l 1,0,-1
EndSplineSet
EndChar

StartChar: mu
Encoding: 181 181 144
Width: 500
Flags: W
LayerCount: 2
Fore
SplineSet
455 14 m 1,0,1
 426 7 426 7 379 -2.5 c 128,-1,2
 332 -12 332 -12 268 -12 c 0,3,4
 225 -12 225 -12 201 -2.5 c 128,-1,5
 177 7 177 7 159 23 c 1,6,7
 162 -1 162 -1 162.5 -25.5 c 128,-1,8
 163 -50 163 -50 163 -77 c 2,9,-1
 163 -175 l 1,10,-1
 75 -175 l 1,11,-1
 75 492 l 1,12,-1
 163 492 l 1,13,-1
 163 234 l 2,14,15
 163 188 163 188 169 156.5 c 128,-1,16
 175 125 175 125 188 105 c 128,-1,17
 201 85 201 85 223 76 c 128,-1,18
 245 67 245 67 277 67 c 0,19,20
 291 67 291 67 305 68 c 128,-1,21
 319 69 319 69 331.5 70 c 128,-1,22
 344 71 344 71 354 72.5 c 128,-1,23
 364 74 364 74 367 75 c 2,24,-1
 367 492 l 1,25,-1
 455 492 l 1,26,-1
 455 14 l 1,0,1
EndSplineSet
EndChar

StartChar: paragraph
Encoding: 182 182 145
Width: 500
Flags: W
LayerCount: 2
Fore
SplineSet
400 586 m 1,0,1
 351 592 351 592 307 588 c 1,2,-1
 307 -175 l 1,3,-1
 234 -175 l 1,4,-1
 234 248 l 1,5,6
 135 259 135 259 82.5 307.5 c 128,-1,7
 30 356 30 356 30 454 c 0,8,9
 30 506 30 506 49.5 544.5 c 128,-1,10
 69 583 69 583 106 609.5 c 128,-1,11
 143 636 143 636 195.5 649 c 128,-1,12
 248 662 248 662 314 662 c 0,13,14
 351 662 351 662 393.5 659 c 128,-1,15
 436 656 436 656 474 646 c 1,16,-1
 474 -175 l 1,17,-1
 400 -175 l 1,18,-1
 400 586 l 1,0,1
EndSplineSet
EndChar

StartChar: periodcentered
Encoding: 183 183 146
Width: 500
Flags: W
LayerCount: 2
Fore
SplineSet
343 276 m 0,0,1
 343 244 343 244 322 219.5 c 128,-1,2
 301 195 301 195 266 195 c 0,3,4
 230 195 230 195 209 219.5 c 128,-1,5
 188 244 188 244 188 276 c 0,6,7
 188 309 188 309 209 333 c 128,-1,8
 230 357 230 357 266 357 c 0,9,10
 301 357 301 357 322 333 c 128,-1,11
 343 309 343 309 343 276 c 0,0,1
EndSplineSet
EndChar

StartChar: cedilla
Encoding: 184 184 147
Width: 500
Flags: W
LayerCount: 2
Fore
SplineSet
288 -35 m 1,0,1
 316 -48 316 -48 328 -64 c 128,-1,2
 340 -80 340 -80 340 -110 c 0,3,4
 340 -121 340 -121 335.5 -133 c 128,-1,5
 331 -145 331 -145 319.5 -155 c 128,-1,6
 308 -165 308 -165 289.5 -172 c 128,-1,7
 271 -179 271 -179 244 -179 c 0,8,9
 220 -179 220 -179 198.5 -175.5 c 128,-1,10
 177 -172 177 -172 165 -166 c 1,11,-1
 176 -112 l 1,12,13
 188 -116 188 -116 200.5 -119 c 128,-1,14
 213 -122 213 -122 229 -122 c 0,15,16
 263 -122 263 -122 263 -101 c 128,-1,17
 263 -80 263 -80 224 -68 c 2,18,-1
 216 -66 l 1,19,20
 219 -56 219 -56 225 -43.5 c 128,-1,21
 231 -31 231 -31 237 -18 c 128,-1,22
 243 -5 243 -5 248 5 c 128,-1,23
 253 15 253 15 255 19 c 1,24,-1
 316 19 l 1,25,26
 311 7 311 7 302 -8 c 128,-1,27
 293 -23 293 -23 288 -35 c 1,0,1
EndSplineSet
EndChar

StartChar: onesuperior
Encoding: 185 185 148
Width: 500
Flags: W
LayerCount: 2
Fore
SplineSet
245 358 m 1,0,-1
 245 577 l 1,1,2
 224 563 224 563 197.5 552.5 c 128,-1,3
 171 542 171 542 152 536 c 1,4,-1
 134 588 l 1,5,6
 170 600 170 600 205 619.5 c 128,-1,7
 240 639 240 639 265 664 c 1,8,-1
 312 664 l 1,9,-1
 312 358 l 1,10,-1
 406 358 l 1,11,-1
 406 298 l 1,12,-1
 141 298 l 1,13,-1
 141 358 l 1,14,-1
 245 358 l 1,0,-1
EndSplineSet
Substitution2: "+U1h9FH9uY9sA lookup 22 +MLUw1jDGMPww1jDr" oneinferior
Substitution2: "'sinf' +edFbZmWHcy51KE4LMGQwTWWHW1cA lookup 11 +MLUw1jDGMPww1jDr" one.sinf
Substitution2: "'subs' +TgswZDBNZYdbVwAA lookup 10 +MLUw1jDGMPww1jDr" one.sinf
Substitution2: "'sups' +TgowZDBNZYdbVwAA lookup 9 +MLUw1jDGMPww1jDr" one.sups
Substitution2: "'dnom' +UgZrzQAA lookup 8 +MLUw1jDGMPww1jDr" oneinferior
EndChar

StartChar: ordmasculine
Encoding: 186 186 149
Width: 500
Flags: W
LayerCount: 2
Fore
SplineSet
366 491 m 0,0,1
 366 545 366 545 340 575.5 c 128,-1,2
 314 606 314 606 265 606 c 0,3,4
 217 606 217 606 190.5 575.5 c 128,-1,5
 164 545 164 545 164 491 c 0,6,7
 164 438 164 438 190 406 c 128,-1,8
 216 374 216 374 265 374 c 128,-1,9
 314 374 314 374 340 406 c 128,-1,10
 366 438 366 438 366 491 c 0,0,1
436 490.5 m 128,-1,12
 436 449 436 449 423 416.5 c 128,-1,13
 410 384 410 384 387.5 360 c 128,-1,14
 365 336 365 336 333.5 323.5 c 128,-1,15
 302 311 302 311 265 311 c 128,-1,16
 228 311 228 311 196.5 323.5 c 128,-1,17
 165 336 165 336 142.5 360 c 128,-1,18
 120 384 120 384 107 416.5 c 128,-1,19
 94 449 94 449 94 490.5 c 128,-1,20
 94 532 94 532 107 565 c 128,-1,21
 120 598 120 598 142.5 621 c 128,-1,22
 165 644 165 644 196.5 657 c 128,-1,23
 228 670 228 670 265 670 c 128,-1,24
 302 670 302 670 333.5 657 c 128,-1,25
 365 644 365 644 387.5 621 c 128,-1,26
 410 598 410 598 423 565 c 128,-1,11
 436 532 436 532 436 490.5 c 128,-1,12
EndSplineSet
EndChar

StartChar: guillemotright
Encoding: 187 187 150
Width: 500
Flags: W
LayerCount: 2
Fore
SplineSet
271 270 m 1,0,-1
 145 84 l 1,1,-1
 90 112 l 1,2,-1
 179 270 l 1,3,-1
 93 423 l 1,4,-1
 146 456 l 1,5,-1
 271 270 l 1,0,-1
463 270 m 1,6,-1
 336 84 l 1,7,-1
 281 112 l 1,8,-1
 370 270 l 1,9,-1
 285 423 l 1,10,-1
 338 456 l 1,11,-1
 463 270 l 1,6,-1
EndSplineSet
Substitution2: "'case' +WSdlh1tXfUQwf3UoMGuKv2V0MFcwX1tXX2IA lookup 17 +MLUw1jDGMPww1jDr" Guillemotright
EndChar

StartChar: onequarter
Encoding: 188 188 151
Width: 500
Flags: W
LayerCount: 2
Fore
SplineSet
101 -4 m 1,0,-1
 26 -4 l 1,1,-1
 428 652 l 1,2,-1
 502 652 l 1,3,-1
 101 -4 l 1,0,-1
405 219 m 1,4,5
 383 190 383 190 365 160.5 c 128,-1,6
 347 131 347 131 331 104 c 1,7,-1
 405 104 l 1,8,-1
 405 219 l 1,4,5
467 265 m 1,9,-1
 467 104 l 1,10,-1
 506 104 l 1,11,-1
 506 51 l 1,12,-1
 467 51 l 1,13,-1
 467 0 l 1,14,-1
 405 0 l 1,15,-1
 405 51 l 1,16,-1
 268 51 l 1,17,-1
 268 94 l 1,18,19
 296 143 296 143 321.5 183 c 128,-1,20
 347 223 347 223 379 265 c 1,21,-1
 467 265 l 1,9,-1
19 595 m 1,22,23
 55 610 55 610 80.5 624.5 c 128,-1,24
 106 639 106 639 131 664 c 1,25,-1
 174 664 l 1,26,-1
 174 399 l 1,27,-1
 111 399 l 1,28,-1
 111 577 l 1,29,30
 90 565 90 565 73 557.5 c 128,-1,31
 56 550 56 550 37 544 c 1,32,-1
 19 595 l 1,22,23
EndSplineSet
Ligature2: "'frac' +ZZwwgTBuUgZlcAAA lookup 13 +MLUw1jDGMPww1jDr" one.sinf fraction four.sinf
Ligature2: "'frac' +ZZwwgTBuUgZlcAAA lookup 13 +MLUw1jDGMPww1jDr" one.sinf fraction four.sups
Ligature2: "'frac' +ZZwwgTBuUgZlcAAA lookup 13 +MLUw1jDGMPww1jDr" one.sinf fraction fourinferior
Ligature2: "'frac' +ZZwwgTBuUgZlcAAA lookup 13 +MLUw1jDGMPww1jDr" one.sinf fraction foursuperior
Ligature2: "'frac' +ZZwwgTBuUgZlcAAA lookup 13 +MLUw1jDGMPww1jDr" one.sinf fraction four
Ligature2: "'frac' +ZZwwgTBuUgZlcAAA lookup 13 +MLUw1jDGMPww1jDr" one.sups fraction four.sinf
Ligature2: "'frac' +ZZwwgTBuUgZlcAAA lookup 13 +MLUw1jDGMPww1jDr" one.sups fraction four.sups
Ligature2: "'frac' +ZZwwgTBuUgZlcAAA lookup 13 +MLUw1jDGMPww1jDr" one.sups fraction fourinferior
Ligature2: "'frac' +ZZwwgTBuUgZlcAAA lookup 13 +MLUw1jDGMPww1jDr" one.sups fraction foursuperior
Ligature2: "'frac' +ZZwwgTBuUgZlcAAA lookup 13 +MLUw1jDGMPww1jDr" one.sups fraction four
Ligature2: "'frac' +ZZwwgTBuUgZlcAAA lookup 13 +MLUw1jDGMPww1jDr" oneinferior fraction four.sinf
Ligature2: "'frac' +ZZwwgTBuUgZlcAAA lookup 13 +MLUw1jDGMPww1jDr" oneinferior fraction four.sups
Ligature2: "'frac' +ZZwwgTBuUgZlcAAA lookup 13 +MLUw1jDGMPww1jDr" oneinferior fraction fourinferior
Ligature2: "'frac' +ZZwwgTBuUgZlcAAA lookup 13 +MLUw1jDGMPww1jDr" oneinferior fraction foursuperior
Ligature2: "'frac' +ZZwwgTBuUgZlcAAA lookup 13 +MLUw1jDGMPww1jDr" oneinferior fraction four
Ligature2: "'frac' +ZZwwgTBuUgZlcAAA lookup 13 +MLUw1jDGMPww1jDr" onesuperior fraction four.sinf
Ligature2: "'frac' +ZZwwgTBuUgZlcAAA lookup 13 +MLUw1jDGMPww1jDr" onesuperior fraction four.sups
Ligature2: "'frac' +ZZwwgTBuUgZlcAAA lookup 13 +MLUw1jDGMPww1jDr" onesuperior fraction fourinferior
Ligature2: "'frac' +ZZwwgTBuUgZlcAAA lookup 13 +MLUw1jDGMPww1jDr" onesuperior fraction foursuperior
Ligature2: "'frac' +ZZwwgTBuUgZlcAAA lookup 13 +MLUw1jDGMPww1jDr" onesuperior fraction four
Ligature2: "'frac' +ZZwwgTBuUgZlcAAA lookup 13 +MLUw1jDGMPww1jDr" one fraction four.sinf
Ligature2: "'frac' +ZZwwgTBuUgZlcAAA lookup 13 +MLUw1jDGMPww1jDr" one fraction four.sups
Ligature2: "'frac' +ZZwwgTBuUgZlcAAA lookup 13 +MLUw1jDGMPww1jDr" one fraction fourinferior
Ligature2: "'frac' +ZZwwgTBuUgZlcAAA lookup 13 +MLUw1jDGMPww1jDr" one fraction foursuperior
Ligature2: "'frac' +ZZwwgTBuUgZlcAAA lookup 13 +MLUw1jDGMPww1jDr" one fraction four
EndChar

StartChar: onehalf
Encoding: 189 189 152
Width: 500
Flags: W
LayerCount: 2
Fore
SplineSet
92 0 m 1,0,-1
 18 0 l 1,1,-1
 420 656 l 1,2,-1
 494 656 l 1,3,-1
 92 0 l 1,0,-1
25 595 m 1,4,5
 62 610 62 610 87 624.5 c 128,-1,6
 112 639 112 639 138 664 c 1,7,-1
 181 664 l 1,8,-1
 181 399 l 1,9,-1
 119 399 l 1,10,-1
 119 577 l 1,11,12
 98 565 98 565 80.5 557.5 c 128,-1,13
 63 550 63 550 43 544 c 1,14,-1
 25 595 l 1,4,5
511 53 m 1,15,-1
 511 0 l 1,16,-1
 302 0 l 2,17,18
 301 3 301 3 301 12 c 128,-1,19
 301 21 301 21 301 24 c 0,20,21
 301 58 301 58 322 76.5 c 128,-1,22
 343 95 343 95 371 112 c 2,23,-1
 394 128 l 2,24,25
 419 143 419 143 429 156.5 c 128,-1,26
 439 170 439 170 439 184 c 0,27,28
 439 202 439 202 426.5 210.5 c 128,-1,29
 414 219 414 219 398 219 c 128,-1,30
 382 219 382 219 365 212.5 c 128,-1,31
 348 206 348 206 335 192 c 1,32,-1
 301 234 l 1,33,34
 319 254 319 254 346.5 264.5 c 128,-1,35
 374 275 374 275 402 275 c 0,36,37
 452 275 452 275 476.5 248.5 c 128,-1,38
 501 222 501 222 501 188 c 0,39,40
 501 160 501 160 487.5 140.5 c 128,-1,41
 474 121 474 121 454 106 c 128,-1,42
 434 91 434 91 412.5 78.5 c 128,-1,43
 391 66 391 66 377 53 c 1,44,-1
 511 53 l 1,15,-1
EndSplineSet
Ligature2: "'frac' +ZZwwgTBuUgZlcAAA lookup 13 +MLUw1jDGMPww1jDr" one.sinf fraction two.sinf
Ligature2: "'frac' +ZZwwgTBuUgZlcAAA lookup 13 +MLUw1jDGMPww1jDr" one.sinf fraction two.sups
Ligature2: "'frac' +ZZwwgTBuUgZlcAAA lookup 13 +MLUw1jDGMPww1jDr" one.sinf fraction twoinferior
Ligature2: "'frac' +ZZwwgTBuUgZlcAAA lookup 13 +MLUw1jDGMPww1jDr" one.sinf fraction twosuperior
Ligature2: "'frac' +ZZwwgTBuUgZlcAAA lookup 13 +MLUw1jDGMPww1jDr" one.sinf fraction two
Ligature2: "'frac' +ZZwwgTBuUgZlcAAA lookup 13 +MLUw1jDGMPww1jDr" one.sups fraction two.sinf
Ligature2: "'frac' +ZZwwgTBuUgZlcAAA lookup 13 +MLUw1jDGMPww1jDr" one.sups fraction two.sups
Ligature2: "'frac' +ZZwwgTBuUgZlcAAA lookup 13 +MLUw1jDGMPww1jDr" one.sups fraction twoinferior
Ligature2: "'frac' +ZZwwgTBuUgZlcAAA lookup 13 +MLUw1jDGMPww1jDr" one.sups fraction twosuperior
Ligature2: "'frac' +ZZwwgTBuUgZlcAAA lookup 13 +MLUw1jDGMPww1jDr" one.sups fraction two
Ligature2: "'frac' +ZZwwgTBuUgZlcAAA lookup 13 +MLUw1jDGMPww1jDr" oneinferior fraction two.sinf
Ligature2: "'frac' +ZZwwgTBuUgZlcAAA lookup 13 +MLUw1jDGMPww1jDr" oneinferior fraction two.sups
Ligature2: "'frac' +ZZwwgTBuUgZlcAAA lookup 13 +MLUw1jDGMPww1jDr" oneinferior fraction twoinferior
Ligature2: "'frac' +ZZwwgTBuUgZlcAAA lookup 13 +MLUw1jDGMPww1jDr" oneinferior fraction twosuperior
Ligature2: "'frac' +ZZwwgTBuUgZlcAAA lookup 13 +MLUw1jDGMPww1jDr" oneinferior fraction two
Ligature2: "'frac' +ZZwwgTBuUgZlcAAA lookup 13 +MLUw1jDGMPww1jDr" onesuperior fraction two.sinf
Ligature2: "'frac' +ZZwwgTBuUgZlcAAA lookup 13 +MLUw1jDGMPww1jDr" onesuperior fraction two.sups
Ligature2: "'frac' +ZZwwgTBuUgZlcAAA lookup 13 +MLUw1jDGMPww1jDr" onesuperior fraction twoinferior
Ligature2: "'frac' +ZZwwgTBuUgZlcAAA lookup 13 +MLUw1jDGMPww1jDr" onesuperior fraction twosuperior
Ligature2: "'frac' +ZZwwgTBuUgZlcAAA lookup 13 +MLUw1jDGMPww1jDr" onesuperior fraction two
Ligature2: "'frac' +ZZwwgTBuUgZlcAAA lookup 13 +MLUw1jDGMPww1jDr" one fraction two.sinf
Ligature2: "'frac' +ZZwwgTBuUgZlcAAA lookup 13 +MLUw1jDGMPww1jDr" one fraction two.sups
Ligature2: "'frac' +ZZwwgTBuUgZlcAAA lookup 13 +MLUw1jDGMPww1jDr" one fraction twoinferior
Ligature2: "'frac' +ZZwwgTBuUgZlcAAA lookup 13 +MLUw1jDGMPww1jDr" one fraction twosuperior
Ligature2: "'frac' +ZZwwgTBuUgZlcAAA lookup 13 +MLUw1jDGMPww1jDr" one fraction two
EndChar

StartChar: threequarters
Encoding: 190 190 153
Width: 500
Flags: W
LayerCount: 2
Fore
SplineSet
106 0 m 1,0,-1
 32 0 l 1,1,-1
 434 656 l 1,2,-1
 508 656 l 1,3,-1
 106 0 l 1,0,-1
405 219 m 1,4,5
 383 190 383 190 365 160.5 c 128,-1,6
 347 131 347 131 331 104 c 1,7,-1
 405 104 l 1,8,-1
 405 219 l 1,4,5
38 456 m 1,9,10
 50 451 50 451 67.5 446.5 c 128,-1,11
 85 442 85 442 106 442 c 0,12,13
 129 442 129 442 146.5 449 c 128,-1,14
 164 456 164 456 164 474 c 0,15,16
 164 496 164 496 144 502.5 c 128,-1,17
 124 509 124 509 84 509 c 2,18,-1
 71 509 l 1,19,-1
 71 562 l 1,20,-1
 94 562 l 2,21,22
 122 562 122 562 137 567.5 c 128,-1,23
 152 573 152 573 152 593 c 0,24,25
 152 609 152 609 138.5 613.5 c 128,-1,26
 125 618 125 618 110 618 c 128,-1,27
 95 618 95 618 76 612.5 c 128,-1,28
 57 607 57 607 45 602 c 1,29,-1
 24 648 l 1,30,31
 40 658 40 658 66 664.5 c 128,-1,32
 92 671 92 671 120 671 c 0,33,34
 138 671 138 671 155 667.5 c 128,-1,35
 172 664 172 664 185 656 c 128,-1,36
 198 648 198 648 206 634.5 c 128,-1,37
 214 621 214 621 214 602 c 0,38,39
 214 586 214 586 206 570 c 128,-1,40
 198 554 198 554 181 543 c 1,41,42
 227 522 227 522 227 474 c 0,43,44
 227 459 227 459 220.5 443.5 c 128,-1,45
 214 428 214 428 200.5 416 c 128,-1,46
 187 404 187 404 164.5 396.5 c 128,-1,47
 142 389 142 389 110 389 c 0,48,49
 61 389 61 389 22 404 c 1,50,-1
 38 456 l 1,9,10
467 265 m 1,51,-1
 467 104 l 1,52,-1
 506 104 l 1,53,-1
 506 51 l 1,54,-1
 467 51 l 1,55,-1
 467 0 l 1,56,-1
 405 0 l 1,57,-1
 405 51 l 1,58,-1
 268 51 l 1,59,-1
 268 94 l 1,60,61
 296 143 296 143 321.5 183 c 128,-1,62
 347 223 347 223 379 265 c 1,63,-1
 467 265 l 1,51,-1
EndSplineSet
Ligature2: "'frac' +ZZwwgTBuUgZlcAAA lookup 13 +MLUw1jDGMPww1jDr" three.sinf fraction four.sinf
Ligature2: "'frac' +ZZwwgTBuUgZlcAAA lookup 13 +MLUw1jDGMPww1jDr" three.sinf fraction four.sups
Ligature2: "'frac' +ZZwwgTBuUgZlcAAA lookup 13 +MLUw1jDGMPww1jDr" three.sinf fraction fourinferior
Ligature2: "'frac' +ZZwwgTBuUgZlcAAA lookup 13 +MLUw1jDGMPww1jDr" three.sinf fraction foursuperior
Ligature2: "'frac' +ZZwwgTBuUgZlcAAA lookup 13 +MLUw1jDGMPww1jDr" three.sinf fraction four
Ligature2: "'frac' +ZZwwgTBuUgZlcAAA lookup 13 +MLUw1jDGMPww1jDr" three.sups fraction four.sinf
Ligature2: "'frac' +ZZwwgTBuUgZlcAAA lookup 13 +MLUw1jDGMPww1jDr" three.sups fraction four.sups
Ligature2: "'frac' +ZZwwgTBuUgZlcAAA lookup 13 +MLUw1jDGMPww1jDr" three.sups fraction fourinferior
Ligature2: "'frac' +ZZwwgTBuUgZlcAAA lookup 13 +MLUw1jDGMPww1jDr" three.sups fraction foursuperior
Ligature2: "'frac' +ZZwwgTBuUgZlcAAA lookup 13 +MLUw1jDGMPww1jDr" three.sups fraction four
Ligature2: "'frac' +ZZwwgTBuUgZlcAAA lookup 13 +MLUw1jDGMPww1jDr" threeinferior fraction four.sinf
Ligature2: "'frac' +ZZwwgTBuUgZlcAAA lookup 13 +MLUw1jDGMPww1jDr" threeinferior fraction four.sups
Ligature2: "'frac' +ZZwwgTBuUgZlcAAA lookup 13 +MLUw1jDGMPww1jDr" threeinferior fraction fourinferior
Ligature2: "'frac' +ZZwwgTBuUgZlcAAA lookup 13 +MLUw1jDGMPww1jDr" threeinferior fraction foursuperior
Ligature2: "'frac' +ZZwwgTBuUgZlcAAA lookup 13 +MLUw1jDGMPww1jDr" threeinferior fraction four
Ligature2: "'frac' +ZZwwgTBuUgZlcAAA lookup 13 +MLUw1jDGMPww1jDr" threesuperior fraction four.sinf
Ligature2: "'frac' +ZZwwgTBuUgZlcAAA lookup 13 +MLUw1jDGMPww1jDr" threesuperior fraction four.sups
Ligature2: "'frac' +ZZwwgTBuUgZlcAAA lookup 13 +MLUw1jDGMPww1jDr" threesuperior fraction fourinferior
Ligature2: "'frac' +ZZwwgTBuUgZlcAAA lookup 13 +MLUw1jDGMPww1jDr" threesuperior fraction foursuperior
Ligature2: "'frac' +ZZwwgTBuUgZlcAAA lookup 13 +MLUw1jDGMPww1jDr" threesuperior fraction four
Ligature2: "'frac' +ZZwwgTBuUgZlcAAA lookup 13 +MLUw1jDGMPww1jDr" three fraction four.sinf
Ligature2: "'frac' +ZZwwgTBuUgZlcAAA lookup 13 +MLUw1jDGMPww1jDr" three fraction four.sups
Ligature2: "'frac' +ZZwwgTBuUgZlcAAA lookup 13 +MLUw1jDGMPww1jDr" three fraction fourinferior
Ligature2: "'frac' +ZZwwgTBuUgZlcAAA lookup 13 +MLUw1jDGMPww1jDr" three fraction foursuperior
Ligature2: "'frac' +ZZwwgTBuUgZlcAAA lookup 13 +MLUw1jDGMPww1jDr" three fraction four
EndChar

StartChar: questiondown
Encoding: 191 191 154
Width: 500
Flags: W
LayerCount: 2
Fore
SplineSet
290 493 m 0,0,1
 320 493 320 493 340.5 473.5 c 128,-1,2
 361 454 361 454 361 421 c 128,-1,3
 361 388 361 388 340.5 369 c 128,-1,4
 320 350 320 350 290 350 c 0,5,6
 261 350 261 350 240 369 c 128,-1,7
 219 388 219 388 219 421 c 128,-1,8
 219 454 219 454 240 473.5 c 128,-1,9
 261 493 261 493 290 493 c 0,0,1
336 258 m 1,10,-1
 337 236 l 2,11,12
 337 205 337 205 326 182 c 128,-1,13
 315 159 315 159 298.5 139 c 128,-1,14
 282 119 282 119 262.5 101.5 c 128,-1,15
 243 84 243 84 226.5 66 c 128,-1,16
 210 48 210 48 199 27.5 c 128,-1,17
 188 7 188 7 188 -17 c 0,18,19
 188 -57 188 -57 213 -81.5 c 128,-1,20
 238 -106 238 -106 287 -106 c 0,21,22
 350 -106 350 -106 410 -74 c 1,23,-1
 435 -142 l 1,24,25
 403 -159 403 -159 362.5 -169.5 c 128,-1,26
 322 -180 322 -180 277 -180 c 0,27,28
 223 -180 223 -180 188.5 -165.5 c 128,-1,29
 154 -151 154 -151 133.5 -128 c 128,-1,30
 113 -105 113 -105 105.5 -77.5 c 128,-1,31
 98 -50 98 -50 98 -24 c 0,32,33
 98 8 98 8 110 32 c 128,-1,34
 122 56 122 56 140 77 c 128,-1,35
 158 98 158 98 179 117 c 128,-1,36
 200 136 200 136 218 157 c 128,-1,37
 236 178 236 178 248.5 202 c 128,-1,38
 261 226 261 226 261 258 c 1,39,-1
 336 258 l 1,10,-1
EndSplineSet
Substitution2: "'case' +WSdlh1tXfUQwf3UoMGuKv2V0MFcwX1tXX2IA lookup 17 +MLUw1jDGMPww1jDr" Questiondown
EndChar

StartChar: Agrave
Encoding: 192 192 155
Width: 500
Flags: W
LayerCount: 2
Fore
SplineSet
264 580 m 1,0,1
 240 513 240 513 211 425 c 128,-1,2
 182 337 182 337 157 244 c 1,3,-1
 369 244 l 1,4,5
 345 339 345 339 316.5 427.5 c 128,-1,6
 288 516 288 516 264 580 c 1,0,1
428 0 m 1,7,-1
 389 172 l 1,8,-1
 137 172 l 1,9,-1
 99 0 l 1,10,-1
 10 0 l 1,11,12
 28 70 28 70 50 151.5 c 128,-1,13
 72 233 72 233 98 319 c 128,-1,14
 124 405 124 405 152.5 491.5 c 128,-1,15
 181 578 181 578 213 656 c 1,16,-1
 321 656 l 1,17,18
 352 578 352 578 380 491.5 c 128,-1,19
 408 405 408 405 433 319 c 128,-1,20
 458 233 458 233 480 151.5 c 128,-1,21
 502 70 502 70 520 0 c 1,22,-1
 428 0 l 1,7,-1
233 880 m 1,23,-1
 354 734 l 1,24,-1
 310 694 l 1,25,-1
 177 824 l 1,26,-1
 233 880 l 1,23,-1
EndSplineSet
EndChar

StartChar: Aacute
Encoding: 193 193 156
Width: 500
Flags: W
LayerCount: 2
Fore
SplineSet
264 580 m 1,0,1
 240 513 240 513 211 425 c 128,-1,2
 182 337 182 337 157 244 c 1,3,-1
 369 244 l 1,4,5
 345 339 345 339 316.5 427.5 c 128,-1,6
 288 516 288 516 264 580 c 1,0,1
428 0 m 1,7,-1
 389 172 l 1,8,-1
 137 172 l 1,9,-1
 99 0 l 1,10,-1
 10 0 l 1,11,12
 28 70 28 70 50 151.5 c 128,-1,13
 72 233 72 233 98 319 c 128,-1,14
 124 405 124 405 152.5 491.5 c 128,-1,15
 181 578 181 578 213 656 c 1,16,-1
 321 656 l 1,17,18
 352 578 352 578 380 491.5 c 128,-1,19
 408 405 408 405 433 319 c 128,-1,20
 458 233 458 233 480 151.5 c 128,-1,21
 502 70 502 70 520 0 c 1,22,-1
 428 0 l 1,7,-1
355 824 m 1,23,-1
 222 694 l 1,24,-1
 177 734 l 1,25,-1
 298 880 l 1,26,-1
 355 824 l 1,23,-1
EndSplineSet
EndChar

StartChar: Acircumflex
Encoding: 194 194 157
Width: 500
Flags: W
LayerCount: 2
Fore
SplineSet
264 580 m 1,0,1
 240 513 240 513 211 425 c 128,-1,2
 182 337 182 337 157 244 c 1,3,-1
 369 244 l 1,4,5
 345 339 345 339 316.5 427.5 c 128,-1,6
 288 516 288 516 264 580 c 1,0,1
428 0 m 1,7,-1
 389 172 l 1,8,-1
 137 172 l 1,9,-1
 99 0 l 1,10,-1
 10 0 l 1,11,12
 28 70 28 70 50 151.5 c 128,-1,13
 72 233 72 233 98 319 c 128,-1,14
 124 405 124 405 152.5 491.5 c 128,-1,15
 181 578 181 578 213 656 c 1,16,-1
 321 656 l 1,17,18
 352 578 352 578 380 491.5 c 128,-1,19
 408 405 408 405 433 319 c 128,-1,20
 458 233 458 233 480 151.5 c 128,-1,21
 502 70 502 70 520 0 c 1,22,-1
 428 0 l 1,7,-1
265 876 m 1,23,-1
 393 740 l 1,24,-1
 357 699 l 1,25,-1
 265 781 l 1,26,-1
 173 699 l 1,27,-1
 137 740 l 1,28,-1
 265 876 l 1,23,-1
EndSplineSet
EndChar

StartChar: Atilde
Encoding: 195 195 158
Width: 500
Flags: W
LayerCount: 2
Fore
SplineSet
264 580 m 1,0,1
 240 513 240 513 211 425 c 128,-1,2
 182 337 182 337 157 244 c 1,3,-1
 369 244 l 1,4,5
 345 339 345 339 316.5 427.5 c 128,-1,6
 288 516 288 516 264 580 c 1,0,1
428 0 m 1,7,-1
 389 172 l 1,8,-1
 137 172 l 1,9,-1
 99 0 l 1,10,-1
 10 0 l 1,11,12
 28 70 28 70 50 151.5 c 128,-1,13
 72 233 72 233 98 319 c 128,-1,14
 124 405 124 405 152.5 491.5 c 128,-1,15
 181 578 181 578 213 656 c 1,16,-1
 321 656 l 1,17,18
 352 578 352 578 380 491.5 c 128,-1,19
 408 405 408 405 433 319 c 128,-1,20
 458 233 458 233 480 151.5 c 128,-1,21
 502 70 502 70 520 0 c 1,22,-1
 428 0 l 1,7,-1
411 820 m 1,23,24
 408 808 408 808 400 793.5 c 128,-1,25
 392 779 392 779 380.5 766.5 c 128,-1,26
 369 754 369 754 353 745 c 128,-1,27
 337 736 337 736 317 736 c 0,28,29
 303 736 303 736 284.5 743 c 128,-1,30
 266 750 266 750 254 756 c 0,31,32
 226 771 226 771 210 771 c 0,33,34
 196 771 196 771 183.5 757 c 128,-1,35
 171 743 171 743 164 728 c 1,36,-1
 119 753 l 1,37,38
 122 765 122 765 130 779.5 c 128,-1,39
 138 794 138 794 149.5 806.5 c 128,-1,40
 161 819 161 819 177 828 c 128,-1,41
 193 837 193 837 212 837 c 0,42,43
 226 837 226 837 244.5 829.5 c 128,-1,44
 263 822 263 822 275 816 c 0,45,46
 303 801 303 801 319 801 c 0,47,48
 333 801 333 801 346 815 c 128,-1,49
 359 829 359 829 366 844 c 1,50,-1
 411 820 l 1,23,24
EndSplineSet
EndChar

StartChar: Adieresis
Encoding: 196 196 159
Width: 500
Flags: W
LayerCount: 2
Fore
SplineSet
264 580 m 1,0,1
 240 513 240 513 211 425 c 128,-1,2
 182 337 182 337 157 244 c 1,3,-1
 369 244 l 1,4,5
 345 339 345 339 316.5 427.5 c 128,-1,6
 288 516 288 516 264 580 c 1,0,1
428 0 m 1,7,-1
 389 172 l 1,8,-1
 137 172 l 1,9,-1
 99 0 l 1,10,-1
 10 0 l 1,11,12
 28 70 28 70 50 151.5 c 128,-1,13
 72 233 72 233 98 319 c 128,-1,14
 124 405 124 405 152.5 491.5 c 128,-1,15
 181 578 181 578 213 656 c 1,16,-1
 321 656 l 1,17,18
 352 578 352 578 380 491.5 c 128,-1,19
 408 405 408 405 433 319 c 128,-1,20
 458 233 458 233 480 151.5 c 128,-1,21
 502 70 502 70 520 0 c 1,22,-1
 428 0 l 1,7,-1
355 730 m 128,-1,24
 333 730 333 730 316.5 746 c 128,-1,25
 300 762 300 762 300 786.5 c 128,-1,26
 300 811 300 811 316.5 826.5 c 128,-1,27
 333 842 333 842 355 842 c 128,-1,28
 377 842 377 842 393.5 826.5 c 128,-1,29
 410 811 410 811 410 786.5 c 128,-1,30
 410 762 410 762 393.5 746 c 128,-1,23
 377 730 377 730 355 730 c 128,-1,24
175 730 m 0,31,32
 154 730 154 730 137 746 c 128,-1,33
 120 762 120 762 120 786.5 c 128,-1,34
 120 811 120 811 137 826.5 c 128,-1,35
 154 842 154 842 175 842 c 0,36,37
 197 842 197 842 213.5 826.5 c 128,-1,38
 230 811 230 811 230 786.5 c 128,-1,39
 230 762 230 762 213.5 746 c 128,-1,40
 197 730 197 730 175 730 c 0,31,32
EndSplineSet
EndChar

StartChar: Aring
Encoding: 197 197 160
Width: 500
Flags: W
LayerCount: 2
Fore
SplineSet
316 697.5 m 128,-1,1
 316 722 316 722 301.5 735.5 c 128,-1,2
 287 749 287 749 266 749 c 128,-1,3
 245 749 245 749 230.5 735.5 c 128,-1,4
 216 722 216 722 216 697.5 c 128,-1,5
 216 673 216 673 230.5 659.5 c 128,-1,6
 245 646 245 646 266 646 c 128,-1,7
 287 646 287 646 301.5 659.5 c 128,-1,0
 316 673 316 673 316 697.5 c 128,-1,1
264 580 m 1,8,9
 240 513 240 513 211 425 c 128,-1,10
 182 337 182 337 157 244 c 1,11,-1
 369 244 l 1,12,13
 345 339 345 339 316.5 427.5 c 128,-1,14
 288 516 288 516 264 580 c 1,8,9
428 0 m 1,15,-1
 389 172 l 1,16,-1
 137 172 l 1,17,-1
 99 0 l 1,18,-1
 10 0 l 1,19,20
 27 67 27 67 49.5 149 c 128,-1,21
 72 231 72 231 97.5 315.5 c 128,-1,22
 123 400 123 400 150 479.5 c 128,-1,23
 177 559 177 559 205 621 c 1,24,25
 190 634 190 634 179.5 653.5 c 128,-1,26
 169 673 169 673 169 697 c 0,27,28
 169 742 169 742 198 768 c 128,-1,29
 227 794 227 794 266 794 c 128,-1,30
 305 794 305 794 334.5 768 c 128,-1,31
 364 742 364 742 364 697 c 0,32,33
 364 674 364 674 353.5 654 c 128,-1,34
 343 634 343 634 329 622 c 1,35,36
 355 559 355 559 382 479.5 c 128,-1,37
 409 400 409 400 434 315 c 128,-1,38
 459 230 459 230 480.5 148 c 128,-1,39
 502 66 502 66 520 0 c 1,40,-1
 428 0 l 1,15,-1
EndSplineSet
EndChar

StartChar: AE
Encoding: 198 198 161
Width: 500
Flags: W
LayerCount: 2
Fore
SplineSet
279 600 m 1,0,1
 249 507 249 507 222 414.5 c 128,-1,2
 195 322 195 322 173 244 c 1,3,-1
 279 244 l 1,4,-1
 279 600 l 1,0,1
279 0 m 1,5,-1
 279 172 l 1,6,-1
 154 172 l 1,7,-1
 114 0 l 1,8,-1
 29 0 l 1,9,10
 77 184 77 184 125.5 346 c 128,-1,11
 174 508 174 508 232 656 c 1,12,-1
 497 656 l 1,13,-1
 497 582 l 1,14,-1
 361 582 l 1,15,-1
 361 381 l 1,16,-1
 473 381 l 1,17,-1
 473 306 l 1,18,-1
 361 306 l 1,19,-1
 361 74 l 1,20,-1
 511 74 l 1,21,-1
 511 0 l 1,22,-1
 279 0 l 1,5,-1
EndSplineSet
EndChar

StartChar: Ccedilla
Encoding: 199 199 162
Width: 500
Flags: W
LayerCount: 2
Fore
SplineSet
336 -35 m 1,0,1
 364 -48 364 -48 376 -64 c 128,-1,2
 388 -80 388 -80 388 -110 c 0,3,4
 388 -121 388 -121 383 -133 c 128,-1,5
 378 -145 378 -145 367 -155 c 128,-1,6
 356 -165 356 -165 338 -172 c 0,7,8
 320 -179 320 -179 292 -179 c 0,9,10
 268 -179 268 -179 246.5 -175.5 c 128,-1,11
 225 -172 225 -172 213 -166 c 1,12,-1
 224 -112 l 1,13,14
 236 -116 236 -116 248.5 -119 c 128,-1,15
 261 -122 261 -122 277 -122 c 0,16,17
 311 -122 311 -122 311 -101 c 128,-1,18
 311 -80 311 -80 271 -68 c 2,19,-1
 264 -66 l 1,20,21
 268 -54 268 -54 274.5 -39.5 c 128,-1,22
 281 -25 281 -25 287 -12 c 1,23,24
 235 -7 235 -7 191 16 c 128,-1,25
 147 39 147 39 115.5 81.5 c 128,-1,26
 84 124 84 124 66.5 185.5 c 128,-1,27
 49 247 49 247 49 329 c 0,28,29
 49 413 49 413 70.5 476.5 c 128,-1,30
 92 540 92 540 129 583 c 128,-1,31
 166 626 166 626 216 648.5 c 128,-1,32
 266 671 266 671 322 671 c 0,33,34
 361 671 361 671 402 660.5 c 128,-1,35
 443 650 443 650 482 625 c 1,36,-1
 457 553 l 1,37,38
 387 593 387 593 325 594 c 0,39,40
 282 594 282 594 247.5 575 c 128,-1,41
 213 556 213 556 188.5 521.5 c 128,-1,42
 164 487 164 487 151 438 c 128,-1,43
 138 389 138 389 138 329 c 0,44,45
 138 261 138 261 152 211 c 128,-1,46
 166 161 166 161 191.5 128 c 128,-1,47
 217 95 217 95 252.5 79.5 c 128,-1,48
 288 64 288 64 330 64 c 0,49,50
 361 64 361 64 394.5 72 c 128,-1,51
 428 80 428 80 464 100 c 1,52,-1
 488 28 l 1,53,54
 427 -7 427 -7 348 -13 c 1,55,-1
 336 -35 l 1,0,1
EndSplineSet
EndChar

StartChar: Egrave
Encoding: 200 200 163
Width: 500
Flags: W
LayerCount: 2
Fore
SplineSet
96 0 m 1,0,-1
 96 656 l 1,1,-1
 464 656 l 1,2,-1
 464 582 l 1,3,-1
 183 582 l 1,4,-1
 183 381 l 1,5,-1
 429 381 l 1,6,-1
 429 306 l 1,7,-1
 183 306 l 1,8,-1
 183 74 l 1,9,-1
 488 74 l 1,10,-1
 488 0 l 1,11,-1
 96 0 l 1,0,-1
244 880 m 1,12,-1
 365 734 l 1,13,-1
 320 694 l 1,14,-1
 188 824 l 1,15,-1
 244 880 l 1,12,-1
EndSplineSet
EndChar

StartChar: Eacute
Encoding: 201 201 164
Width: 500
Flags: W
LayerCount: 2
Fore
SplineSet
96 0 m 1,0,-1
 96 656 l 1,1,-1
 464 656 l 1,2,-1
 464 582 l 1,3,-1
 183 582 l 1,4,-1
 183 381 l 1,5,-1
 429 381 l 1,6,-1
 429 306 l 1,7,-1
 183 306 l 1,8,-1
 183 74 l 1,9,-1
 488 74 l 1,10,-1
 488 0 l 1,11,-1
 96 0 l 1,0,-1
386 824 m 1,12,-1
 252 694 l 1,13,-1
 208 734 l 1,14,-1
 329 880 l 1,15,-1
 386 824 l 1,12,-1
EndSplineSet
EndChar

StartChar: Ecircumflex
Encoding: 202 202 165
Width: 500
Flags: W
LayerCount: 2
Fore
SplineSet
96 0 m 1,0,-1
 96 656 l 1,1,-1
 464 656 l 1,2,-1
 464 582 l 1,3,-1
 183 582 l 1,4,-1
 183 381 l 1,5,-1
 429 381 l 1,6,-1
 429 306 l 1,7,-1
 183 306 l 1,8,-1
 183 74 l 1,9,-1
 488 74 l 1,10,-1
 488 0 l 1,11,-1
 96 0 l 1,0,-1
284 876 m 1,12,-1
 412 740 l 1,13,-1
 376 699 l 1,14,-1
 284 781 l 1,15,-1
 192 699 l 1,16,-1
 156 740 l 1,17,-1
 284 876 l 1,12,-1
EndSplineSet
EndChar

StartChar: Edieresis
Encoding: 203 203 166
Width: 500
Flags: W
LayerCount: 2
Fore
SplineSet
96 0 m 1,0,-1
 96 656 l 1,1,-1
 464 656 l 1,2,-1
 464 582 l 1,3,-1
 183 582 l 1,4,-1
 183 381 l 1,5,-1
 429 381 l 1,6,-1
 429 306 l 1,7,-1
 183 306 l 1,8,-1
 183 74 l 1,9,-1
 488 74 l 1,10,-1
 488 0 l 1,11,-1
 96 0 l 1,0,-1
374 730 m 128,-1,13
 352 730 352 730 335.5 746 c 128,-1,14
 319 762 319 762 319 786.5 c 128,-1,15
 319 811 319 811 335.5 826.5 c 128,-1,16
 352 842 352 842 374 842 c 128,-1,17
 396 842 396 842 412.5 826.5 c 128,-1,18
 429 811 429 811 429 786.5 c 128,-1,19
 429 762 429 762 412.5 746 c 128,-1,12
 396 730 396 730 374 730 c 128,-1,13
194 730 m 0,20,21
 173 730 173 730 156 746 c 128,-1,22
 139 762 139 762 139 786.5 c 128,-1,23
 139 811 139 811 156 826.5 c 128,-1,24
 173 842 173 842 194 842 c 0,25,26
 216 842 216 842 232.5 826.5 c 128,-1,27
 249 811 249 811 249 786.5 c 128,-1,28
 249 762 249 762 232.5 746 c 128,-1,29
 216 730 216 730 194 730 c 0,20,21
EndSplineSet
EndChar

StartChar: Igrave
Encoding: 204 204 167
Width: 500
Flags: W
LayerCount: 2
Fore
SplineSet
308 582 m 1,0,-1
 308 74 l 1,1,-1
 436 74 l 1,2,-1
 436 0 l 1,3,-1
 94 0 l 1,4,-1
 94 74 l 1,5,-1
 222 74 l 1,6,-1
 222 582 l 1,7,-1
 94 582 l 1,8,-1
 94 656 l 1,9,-1
 436 656 l 1,10,-1
 436 582 l 1,11,-1
 308 582 l 1,0,-1
234 880 m 1,12,-1
 355 734 l 1,13,-1
 311 694 l 1,14,-1
 178 824 l 1,15,-1
 234 880 l 1,12,-1
EndSplineSet
EndChar

StartChar: Iacute
Encoding: 205 205 168
Width: 500
Flags: W
LayerCount: 2
Fore
SplineSet
308 582 m 1,0,-1
 308 74 l 1,1,-1
 436 74 l 1,2,-1
 436 0 l 1,3,-1
 94 0 l 1,4,-1
 94 74 l 1,5,-1
 222 74 l 1,6,-1
 222 582 l 1,7,-1
 94 582 l 1,8,-1
 94 656 l 1,9,-1
 436 656 l 1,10,-1
 436 582 l 1,11,-1
 308 582 l 1,0,-1
369 824 m 1,12,-1
 235 694 l 1,13,-1
 191 734 l 1,14,-1
 312 880 l 1,15,-1
 369 824 l 1,12,-1
EndSplineSet
EndChar

StartChar: Icircumflex
Encoding: 206 206 169
Width: 500
Flags: W
LayerCount: 2
Fore
SplineSet
308 582 m 1,0,-1
 308 74 l 1,1,-1
 436 74 l 1,2,-1
 436 0 l 1,3,-1
 94 0 l 1,4,-1
 94 74 l 1,5,-1
 222 74 l 1,6,-1
 222 582 l 1,7,-1
 94 582 l 1,8,-1
 94 656 l 1,9,-1
 436 656 l 1,10,-1
 436 582 l 1,11,-1
 308 582 l 1,0,-1
265 876 m 1,12,-1
 393 740 l 1,13,-1
 357 699 l 1,14,-1
 265 781 l 1,15,-1
 173 699 l 1,16,-1
 137 740 l 1,17,-1
 265 876 l 1,12,-1
EndSplineSet
EndChar

StartChar: Idieresis
Encoding: 207 207 170
Width: 500
Flags: W
LayerCount: 2
Fore
SplineSet
308 582 m 1,0,-1
 308 74 l 1,1,-1
 436 74 l 1,2,-1
 436 0 l 1,3,-1
 94 0 l 1,4,-1
 94 74 l 1,5,-1
 222 74 l 1,6,-1
 222 582 l 1,7,-1
 94 582 l 1,8,-1
 94 656 l 1,9,-1
 436 656 l 1,10,-1
 436 582 l 1,11,-1
 308 582 l 1,0,-1
355 730 m 128,-1,13
 333 730 333 730 316.5 746 c 128,-1,14
 300 762 300 762 300 786.5 c 128,-1,15
 300 811 300 811 316.5 826.5 c 128,-1,16
 333 842 333 842 355 842 c 128,-1,17
 377 842 377 842 393.5 826.5 c 128,-1,18
 410 811 410 811 410 786.5 c 128,-1,19
 410 762 410 762 393.5 746 c 128,-1,12
 377 730 377 730 355 730 c 128,-1,13
175 730 m 0,20,21
 154 730 154 730 137 746 c 128,-1,22
 120 762 120 762 120 786.5 c 128,-1,23
 120 811 120 811 137 826.5 c 128,-1,24
 154 842 154 842 175 842 c 0,25,26
 197 842 197 842 213.5 826.5 c 128,-1,27
 230 811 230 811 230 786.5 c 128,-1,28
 230 762 230 762 213.5 746 c 128,-1,29
 197 730 197 730 175 730 c 0,20,21
EndSplineSet
EndChar

StartChar: Eth
Encoding: 208 208 171
Width: 500
Flags: W
LayerCount: 2
Fore
SplineSet
163 73 m 1,0,1
 175 71 175 71 187.5 70.5 c 128,-1,2
 200 70 200 70 212 70 c 0,3,4
 257 70 257 70 291 84.5 c 128,-1,5
 325 99 325 99 349 130 c 128,-1,6
 373 161 373 161 386 210.5 c 128,-1,7
 399 260 399 260 399 329 c 0,8,9
 399 463 399 463 350.5 525 c 128,-1,10
 302 587 302 587 209 587 c 0,11,12
 183 587 183 587 163 584 c 1,13,-1
 163 376 l 1,14,-1
 267 376 l 1,15,-1
 267 308 l 1,16,-1
 163 308 l 1,17,-1
 163 73 l 1,0,1
488 329 m 0,18,19
 488 238 488 238 466 174 c 128,-1,20
 444 110 444 110 406.5 70.5 c 128,-1,21
 369 31 369 31 317 13 c 128,-1,22
 265 -5 265 -5 205 -5 c 0,23,24
 140 -5 140 -5 75 11 c 1,25,-1
 75 308 l 1,26,-1
 19 308 l 1,27,-1
 19 376 l 1,28,-1
 75 376 l 1,29,-1
 75 647 l 1,30,31
 140 662 140 662 205 662 c 0,32,33
 265 662 265 662 317 644 c 128,-1,34
 369 626 369 626 406.5 586 c 128,-1,35
 444 546 444 546 466 482.5 c 128,-1,36
 488 419 488 419 488 329 c 0,18,19
EndSplineSet
EndChar

StartChar: Ntilde
Encoding: 209 209 172
Width: 500
Flags: W
LayerCount: 2
Fore
SplineSet
383 0 m 1,0,1
 347 88 347 88 315 159.5 c 128,-1,2
 283 231 283 231 254 293.5 c 128,-1,3
 225 356 225 356 196 411.5 c 128,-1,4
 167 467 167 467 138 524 c 1,5,-1
 138 0 l 1,6,-1
 58 0 l 1,7,-1
 58 656 l 1,8,-1
 147 656 l 1,9,10
 190 576 190 576 222.5 517 c 128,-1,11
 255 458 255 458 282.5 402.5 c 128,-1,12
 310 347 310 347 335 288 c 128,-1,13
 360 229 360 229 392 152 c 1,14,-1
 392 656 l 1,15,-1
 472 656 l 1,16,-1
 472 0 l 1,17,-1
 383 0 l 1,0,1
411 820 m 1,18,19
 408 808 408 808 400 793.5 c 128,-1,20
 392 779 392 779 380.5 766.5 c 128,-1,21
 369 754 369 754 353 745 c 128,-1,22
 337 736 337 736 317 736 c 0,23,24
 303 736 303 736 284.5 743 c 128,-1,25
 266 750 266 750 254 756 c 0,26,27
 226 771 226 771 210 771 c 0,28,29
 196 771 196 771 183.5 757 c 128,-1,30
 171 743 171 743 164 728 c 1,31,-1
 119 753 l 1,32,33
 122 765 122 765 130 779.5 c 128,-1,34
 138 794 138 794 149.5 806.5 c 128,-1,35
 161 819 161 819 177 828 c 128,-1,36
 193 837 193 837 212 837 c 0,37,38
 226 837 226 837 244.5 829.5 c 128,-1,39
 263 822 263 822 275 816 c 0,40,41
 303 801 303 801 319 801 c 0,42,43
 333 801 333 801 346 815 c 128,-1,44
 359 829 359 829 366 844 c 1,45,-1
 411 820 l 1,18,19
EndSplineSet
EndChar

StartChar: Ograve
Encoding: 210 210 173
Width: 500
Flags: W
LayerCount: 2
Fore
SplineSet
120 328.5 m 128,-1,1
 120 199 120 199 155 130 c 128,-1,2
 190 61 190 61 263 61 c 0,3,4
 337 61 337 61 374 130 c 128,-1,5
 411 199 411 199 411 328.5 c 128,-1,6
 411 458 411 458 374 527 c 128,-1,7
 337 596 337 596 263 596 c 0,8,9
 190 596 190 596 155 527 c 128,-1,0
 120 458 120 458 120 328.5 c 128,-1,1
31 329 m 128,-1,11
 31 417 31 417 48 481.5 c 128,-1,12
 65 546 65 546 95.5 588 c 128,-1,13
 126 630 126 630 169 650.5 c 128,-1,14
 212 671 212 671 265 671 c 0,15,16
 317 671 317 671 360.5 650.5 c 128,-1,17
 404 630 404 630 434.5 588 c 128,-1,18
 465 546 465 546 482.5 481.5 c 128,-1,19
 500 417 500 417 500 329 c 128,-1,20
 500 241 500 241 482.5 176 c 128,-1,21
 465 111 465 111 434.5 68.5 c 128,-1,22
 404 26 404 26 360.5 6 c 128,-1,23
 317 -14 317 -14 265 -14 c 0,24,25
 212 -14 212 -14 169 6 c 128,-1,26
 126 26 126 26 95.5 68.5 c 128,-1,27
 65 111 65 111 48 176 c 128,-1,10
 31 241 31 241 31 329 c 128,-1,11
234 880 m 1,28,-1
 355 734 l 1,29,-1
 311 694 l 1,30,-1
 178 824 l 1,31,-1
 234 880 l 1,28,-1
EndSplineSet
EndChar

StartChar: Oacute
Encoding: 211 211 174
Width: 500
Flags: W
LayerCount: 2
Fore
SplineSet
120 328.5 m 128,-1,1
 120 199 120 199 155 130 c 128,-1,2
 190 61 190 61 263 61 c 0,3,4
 337 61 337 61 374 130 c 128,-1,5
 411 199 411 199 411 328.5 c 128,-1,6
 411 458 411 458 374 527 c 128,-1,7
 337 596 337 596 263 596 c 0,8,9
 190 596 190 596 155 527 c 128,-1,0
 120 458 120 458 120 328.5 c 128,-1,1
31 329 m 128,-1,11
 31 417 31 417 48 481.5 c 128,-1,12
 65 546 65 546 95.5 588 c 128,-1,13
 126 630 126 630 169 650.5 c 128,-1,14
 212 671 212 671 265 671 c 0,15,16
 317 671 317 671 360.5 650.5 c 128,-1,17
 404 630 404 630 434.5 588 c 128,-1,18
 465 546 465 546 482.5 481.5 c 128,-1,19
 500 417 500 417 500 329 c 128,-1,20
 500 241 500 241 482.5 176 c 128,-1,21
 465 111 465 111 434.5 68.5 c 128,-1,22
 404 26 404 26 360.5 6 c 128,-1,23
 317 -14 317 -14 265 -14 c 0,24,25
 212 -14 212 -14 169 6 c 128,-1,26
 126 26 126 26 95.5 68.5 c 128,-1,27
 65 111 65 111 48 176 c 128,-1,10
 31 241 31 241 31 329 c 128,-1,11
368 824 m 1,28,-1
 234 694 l 1,29,-1
 190 734 l 1,30,-1
 311 880 l 1,31,-1
 368 824 l 1,28,-1
EndSplineSet
EndChar

StartChar: Ocircumflex
Encoding: 212 212 175
Width: 500
Flags: W
LayerCount: 2
Fore
SplineSet
120 328.5 m 128,-1,1
 120 199 120 199 155 130 c 128,-1,2
 190 61 190 61 263 61 c 0,3,4
 337 61 337 61 374 130 c 128,-1,5
 411 199 411 199 411 328.5 c 128,-1,6
 411 458 411 458 374 527 c 128,-1,7
 337 596 337 596 263 596 c 0,8,9
 190 596 190 596 155 527 c 128,-1,0
 120 458 120 458 120 328.5 c 128,-1,1
31 329 m 128,-1,11
 31 417 31 417 48 481.5 c 128,-1,12
 65 546 65 546 95.5 588 c 128,-1,13
 126 630 126 630 169 650.5 c 128,-1,14
 212 671 212 671 265 671 c 0,15,16
 317 671 317 671 360.5 650.5 c 128,-1,17
 404 630 404 630 434.5 588 c 128,-1,18
 465 546 465 546 482.5 481.5 c 128,-1,19
 500 417 500 417 500 329 c 128,-1,20
 500 241 500 241 482.5 176 c 128,-1,21
 465 111 465 111 434.5 68.5 c 128,-1,22
 404 26 404 26 360.5 6 c 128,-1,23
 317 -14 317 -14 265 -14 c 0,24,25
 212 -14 212 -14 169 6 c 128,-1,26
 126 26 126 26 95.5 68.5 c 128,-1,27
 65 111 65 111 48 176 c 128,-1,10
 31 241 31 241 31 329 c 128,-1,11
265 876 m 1,28,-1
 393 740 l 1,29,-1
 357 699 l 1,30,-1
 265 781 l 1,31,-1
 173 699 l 1,32,-1
 137 740 l 1,33,-1
 265 876 l 1,28,-1
EndSplineSet
EndChar

StartChar: Otilde
Encoding: 213 213 176
Width: 500
Flags: W
LayerCount: 2
Fore
SplineSet
120 328.5 m 128,-1,1
 120 199 120 199 155 130 c 128,-1,2
 190 61 190 61 263 61 c 0,3,4
 337 61 337 61 374 130 c 128,-1,5
 411 199 411 199 411 328.5 c 128,-1,6
 411 458 411 458 374 527 c 128,-1,7
 337 596 337 596 263 596 c 0,8,9
 190 596 190 596 155 527 c 128,-1,0
 120 458 120 458 120 328.5 c 128,-1,1
31 329 m 128,-1,11
 31 417 31 417 48 481.5 c 128,-1,12
 65 546 65 546 95.5 588 c 128,-1,13
 126 630 126 630 169 650.5 c 128,-1,14
 212 671 212 671 265 671 c 0,15,16
 317 671 317 671 360.5 650.5 c 128,-1,17
 404 630 404 630 434.5 588 c 128,-1,18
 465 546 465 546 482.5 481.5 c 128,-1,19
 500 417 500 417 500 329 c 128,-1,20
 500 241 500 241 482.5 176 c 128,-1,21
 465 111 465 111 434.5 68.5 c 128,-1,22
 404 26 404 26 360.5 6 c 128,-1,23
 317 -14 317 -14 265 -14 c 0,24,25
 212 -14 212 -14 169 6 c 128,-1,26
 126 26 126 26 95.5 68.5 c 128,-1,27
 65 111 65 111 48 176 c 128,-1,10
 31 241 31 241 31 329 c 128,-1,11
411 820 m 1,28,29
 408 808 408 808 400 793.5 c 128,-1,30
 392 779 392 779 380.5 766.5 c 128,-1,31
 369 754 369 754 353 745 c 128,-1,32
 337 736 337 736 317 736 c 0,33,34
 303 736 303 736 284.5 743 c 128,-1,35
 266 750 266 750 254 756 c 0,36,37
 226 771 226 771 210 771 c 0,38,39
 196 771 196 771 183.5 757 c 128,-1,40
 171 743 171 743 164 728 c 1,41,-1
 119 753 l 1,42,43
 122 765 122 765 130 779.5 c 128,-1,44
 138 794 138 794 149.5 806.5 c 128,-1,45
 161 819 161 819 177 828 c 128,-1,46
 193 837 193 837 212 837 c 0,47,48
 226 837 226 837 244.5 829.5 c 128,-1,49
 263 822 263 822 275 816 c 0,50,51
 303 801 303 801 319 801 c 0,52,53
 333 801 333 801 346 815 c 128,-1,54
 359 829 359 829 366 844 c 1,55,-1
 411 820 l 1,28,29
EndSplineSet
EndChar

StartChar: Odieresis
Encoding: 214 214 177
Width: 500
Flags: W
LayerCount: 2
Fore
SplineSet
120 328.5 m 128,-1,1
 120 199 120 199 155 130 c 128,-1,2
 190 61 190 61 263 61 c 0,3,4
 337 61 337 61 374 130 c 128,-1,5
 411 199 411 199 411 328.5 c 128,-1,6
 411 458 411 458 374 527 c 128,-1,7
 337 596 337 596 263 596 c 0,8,9
 190 596 190 596 155 527 c 128,-1,0
 120 458 120 458 120 328.5 c 128,-1,1
31 329 m 128,-1,11
 31 417 31 417 48 481.5 c 128,-1,12
 65 546 65 546 95.5 588 c 128,-1,13
 126 630 126 630 169 650.5 c 128,-1,14
 212 671 212 671 265 671 c 0,15,16
 317 671 317 671 360.5 650.5 c 128,-1,17
 404 630 404 630 434.5 588 c 128,-1,18
 465 546 465 546 482.5 481.5 c 128,-1,19
 500 417 500 417 500 329 c 128,-1,20
 500 241 500 241 482.5 176 c 128,-1,21
 465 111 465 111 434.5 68.5 c 128,-1,22
 404 26 404 26 360.5 6 c 128,-1,23
 317 -14 317 -14 265 -14 c 0,24,25
 212 -14 212 -14 169 6 c 128,-1,26
 126 26 126 26 95.5 68.5 c 128,-1,27
 65 111 65 111 48 176 c 128,-1,10
 31 241 31 241 31 329 c 128,-1,11
355 730 m 128,-1,29
 333 730 333 730 316.5 746 c 128,-1,30
 300 762 300 762 300 786.5 c 128,-1,31
 300 811 300 811 316.5 826.5 c 128,-1,32
 333 842 333 842 355 842 c 128,-1,33
 377 842 377 842 393.5 826.5 c 128,-1,34
 410 811 410 811 410 786.5 c 128,-1,35
 410 762 410 762 393.5 746 c 128,-1,28
 377 730 377 730 355 730 c 128,-1,29
175 730 m 0,36,37
 154 730 154 730 137 746 c 128,-1,38
 120 762 120 762 120 786.5 c 128,-1,39
 120 811 120 811 137 826.5 c 128,-1,40
 154 842 154 842 175 842 c 0,41,42
 197 842 197 842 213.5 826.5 c 128,-1,43
 230 811 230 811 230 786.5 c 128,-1,44
 230 762 230 762 213.5 746 c 128,-1,45
 197 730 197 730 175 730 c 0,36,37
EndSplineSet
EndChar

StartChar: multiply
Encoding: 215 215 178
Width: 500
Flags: W
LayerCount: 2
Fore
SplineSet
403 87 m 1,0,-1
 265 226 l 1,1,-1
 127 87 l 1,2,-1
 74 140 l 1,3,-1
 212 279 l 1,4,-1
 74 417 l 1,5,-1
 127 470 l 1,6,-1
 265 332 l 1,7,-1
 403 470 l 1,8,-1
 456 417 l 1,9,-1
 318 279 l 1,10,-1
 456 140 l 1,11,-1
 403 87 l 1,0,-1
EndSplineSet
EndChar

StartChar: Oslash
Encoding: 216 216 179
Width: 500
Flags: W
LayerCount: 2
Fore
SplineSet
120 329 m 0,0,1
 120 278 120 278 123 234 c 128,-1,2
 126 190 126 190 138 157 c 1,3,-1
 339 572 l 1,4,5
 323 585 323 585 304 590.5 c 128,-1,6
 285 596 285 596 263 596 c 0,7,8
 190 596 190 596 155 527 c 128,-1,9
 120 458 120 458 120 329 c 0,0,1
411 329 m 0,10,11
 412 382 412 382 406 426 c 0,12,13
 400 472 400 472 387 504 c 1,14,-1
 184 86 l 1,15,16
 200 72 200 72 221 66.5 c 128,-1,17
 242 61 242 61 263 61 c 0,18,19
 337 61 337 61 374 130.5 c 128,-1,20
 411 200 411 200 411 329 c 0,10,11
31 329 m 0,21,22
 31 417 31 417 48 481.5 c 128,-1,23
 65 546 65 546 95.5 588 c 128,-1,24
 126 630 126 630 169 650.5 c 128,-1,25
 212 671 212 671 265 671 c 0,26,27
 324 671 324 671 374 642 c 1,28,-1
 396 690 l 1,29,-1
 462 657 l 1,30,-1
 430 593 l 1,31,32
 463 550 463 550 481.5 484.5 c 128,-1,33
 500 419 500 419 500 329 c 0,34,35
 500 241 500 241 482.5 176 c 128,-1,36
 465 111 465 111 434.5 68.5 c 128,-1,37
 404 26 404 26 360.5 6 c 128,-1,38
 317 -14 317 -14 265 -14 c 0,39,40
 199 -14 199 -14 151 16 c 1,41,-1
 126 -35 l 1,42,-1
 61 -2 l 1,43,-1
 95 68 l 1,44,45
 63 110 63 110 47 174.5 c 128,-1,46
 31 239 31 239 31 329 c 0,21,22
EndSplineSet
EndChar

StartChar: Ugrave
Encoding: 217 217 180
Width: 500
Flags: W
LayerCount: 2
Fore
SplineSet
265 -14 m 128,-1,1
 207 -14 207 -14 166 3 c 128,-1,2
 125 20 125 20 99.5 51 c 128,-1,3
 74 82 74 82 62.5 126.5 c 128,-1,4
 51 171 51 171 51 226 c 2,5,-1
 51 656 l 1,6,-1
 138 656 l 1,7,-1
 138 235 l 2,8,9
 138 185 138 185 147 152 c 128,-1,10
 156 119 156 119 172.5 98.5 c 128,-1,11
 189 78 189 78 212 69.5 c 128,-1,12
 235 61 235 61 265 61 c 128,-1,13
 295 61 295 61 318 69.5 c 128,-1,14
 341 78 341 78 357.5 98.5 c 128,-1,15
 374 119 374 119 383 152.5 c 128,-1,16
 392 186 392 186 392 235 c 2,17,-1
 392 656 l 1,18,-1
 479 656 l 1,19,-1
 479 226 l 2,20,21
 479 171 479 171 467.5 126.5 c 128,-1,22
 456 82 456 82 430.5 51 c 128,-1,23
 405 20 405 20 364 3 c 128,-1,0
 323 -14 323 -14 265 -14 c 128,-1,1
229 880 m 1,24,-1
 350 734 l 1,25,-1
 305 694 l 1,26,-1
 173 824 l 1,27,-1
 229 880 l 1,24,-1
EndSplineSet
EndChar

StartChar: Uacute
Encoding: 218 218 181
Width: 500
Flags: W
LayerCount: 2
Fore
SplineSet
265 -14 m 128,-1,1
 207 -14 207 -14 166 3 c 128,-1,2
 125 20 125 20 99.5 51 c 128,-1,3
 74 82 74 82 62.5 126.5 c 128,-1,4
 51 171 51 171 51 226 c 2,5,-1
 51 656 l 1,6,-1
 138 656 l 1,7,-1
 138 235 l 2,8,9
 138 185 138 185 147 152 c 128,-1,10
 156 119 156 119 172.5 98.5 c 128,-1,11
 189 78 189 78 212 69.5 c 128,-1,12
 235 61 235 61 265 61 c 128,-1,13
 295 61 295 61 318 69.5 c 128,-1,14
 341 78 341 78 357.5 98.5 c 128,-1,15
 374 119 374 119 383 152.5 c 128,-1,16
 392 186 392 186 392 235 c 2,17,-1
 392 656 l 1,18,-1
 479 656 l 1,19,-1
 479 226 l 2,20,21
 479 171 479 171 467.5 126.5 c 128,-1,22
 456 82 456 82 430.5 51 c 128,-1,23
 405 20 405 20 364 3 c 128,-1,0
 323 -14 323 -14 265 -14 c 128,-1,1
368 824 m 1,24,-1
 234 694 l 1,25,-1
 190 734 l 1,26,-1
 311 880 l 1,27,-1
 368 824 l 1,24,-1
EndSplineSet
EndChar

StartChar: Ucircumflex
Encoding: 219 219 182
Width: 500
Flags: W
LayerCount: 2
Fore
SplineSet
265 -14 m 128,-1,1
 207 -14 207 -14 166 3 c 128,-1,2
 125 20 125 20 99.5 51 c 128,-1,3
 74 82 74 82 62.5 126.5 c 128,-1,4
 51 171 51 171 51 226 c 2,5,-1
 51 656 l 1,6,-1
 138 656 l 1,7,-1
 138 235 l 2,8,9
 138 185 138 185 147 152 c 128,-1,10
 156 119 156 119 172.5 98.5 c 128,-1,11
 189 78 189 78 212 69.5 c 128,-1,12
 235 61 235 61 265 61 c 128,-1,13
 295 61 295 61 318 69.5 c 128,-1,14
 341 78 341 78 357.5 98.5 c 128,-1,15
 374 119 374 119 383 152.5 c 128,-1,16
 392 186 392 186 392 235 c 2,17,-1
 392 656 l 1,18,-1
 479 656 l 1,19,-1
 479 226 l 2,20,21
 479 171 479 171 467.5 126.5 c 128,-1,22
 456 82 456 82 430.5 51 c 128,-1,23
 405 20 405 20 364 3 c 128,-1,0
 323 -14 323 -14 265 -14 c 128,-1,1
265 876 m 1,24,-1
 393 740 l 1,25,-1
 357 699 l 1,26,-1
 265 781 l 1,27,-1
 173 699 l 1,28,-1
 137 740 l 1,29,-1
 265 876 l 1,24,-1
EndSplineSet
EndChar

StartChar: Udieresis
Encoding: 220 220 183
Width: 500
Flags: W
LayerCount: 2
Fore
SplineSet
265 -14 m 128,-1,1
 207 -14 207 -14 166 3 c 128,-1,2
 125 20 125 20 99.5 51 c 128,-1,3
 74 82 74 82 62.5 126.5 c 128,-1,4
 51 171 51 171 51 226 c 2,5,-1
 51 656 l 1,6,-1
 138 656 l 1,7,-1
 138 235 l 2,8,9
 138 185 138 185 147 152 c 128,-1,10
 156 119 156 119 172.5 98.5 c 128,-1,11
 189 78 189 78 212 69.5 c 128,-1,12
 235 61 235 61 265 61 c 128,-1,13
 295 61 295 61 318 69.5 c 128,-1,14
 341 78 341 78 357.5 98.5 c 128,-1,15
 374 119 374 119 383 152.5 c 128,-1,16
 392 186 392 186 392 235 c 2,17,-1
 392 656 l 1,18,-1
 479 656 l 1,19,-1
 479 226 l 2,20,21
 479 171 479 171 467.5 126.5 c 128,-1,22
 456 82 456 82 430.5 51 c 128,-1,23
 405 20 405 20 364 3 c 128,-1,0
 323 -14 323 -14 265 -14 c 128,-1,1
355 730 m 128,-1,25
 333 730 333 730 316.5 746 c 128,-1,26
 300 762 300 762 300 786.5 c 128,-1,27
 300 811 300 811 316.5 826.5 c 128,-1,28
 333 842 333 842 355 842 c 128,-1,29
 377 842 377 842 393.5 826.5 c 128,-1,30
 410 811 410 811 410 786.5 c 128,-1,31
 410 762 410 762 393.5 746 c 128,-1,24
 377 730 377 730 355 730 c 128,-1,25
175 730 m 0,32,33
 154 730 154 730 137 746 c 128,-1,34
 120 762 120 762 120 786.5 c 128,-1,35
 120 811 120 811 137 826.5 c 128,-1,36
 154 842 154 842 175 842 c 0,37,38
 197 842 197 842 213.5 826.5 c 128,-1,39
 230 811 230 811 230 786.5 c 128,-1,40
 230 762 230 762 213.5 746 c 128,-1,41
 197 730 197 730 175 730 c 0,32,33
EndSplineSet
EndChar

StartChar: Yacute
Encoding: 221 221 184
Width: 500
Flags: W
LayerCount: 2
Fore
SplineSet
223 0 m 1,0,-1
 223 244 l 1,1,2
 158 350 158 350 105.5 450.5 c 128,-1,3
 53 551 53 551 14 656 c 1,4,-1
 111 656 l 1,5,6
 142 567 142 567 182 486 c 128,-1,7
 222 405 222 405 267 319 c 1,8,9
 316 409 316 409 353.5 490 c 128,-1,10
 391 571 391 571 422 656 c 1,11,-1
 517 656 l 1,12,13
 477 552 477 552 425 453.5 c 128,-1,14
 373 355 373 355 310 246 c 1,15,-1
 310 0 l 1,16,-1
 223 0 l 1,0,-1
368 824 m 1,17,-1
 234 694 l 1,18,-1
 190 734 l 1,19,-1
 311 880 l 1,20,-1
 368 824 l 1,17,-1
EndSplineSet
EndChar

StartChar: Thorn
Encoding: 222 222 185
Width: 500
Flags: W
LayerCount: 2
Fore
SplineSet
243 474 m 0,0,1
 217 474 217 474 198 474 c 128,-1,2
 179 474 179 474 164 473 c 1,3,-1
 164 209 l 1,4,-1
 226 209 l 2,5,6
 263 209 263 209 293.5 216 c 128,-1,7
 324 223 324 223 346.5 240 c 128,-1,8
 369 257 369 257 381 285 c 128,-1,9
 393 313 393 313 393 356 c 0,10,11
 393 391 393 391 380 414 c 128,-1,12
 367 437 367 437 345.5 450 c 128,-1,13
 324 463 324 463 297.5 468.5 c 128,-1,14
 271 474 271 474 243 474 c 0,0,1
77 656 m 1,15,-1
 164 656 l 1,16,-1
 164 547 l 1,17,18
 197 550 197 550 229 550 c 0,19,20
 351 550 351 550 416.5 502 c 128,-1,21
 482 454 482 454 482 360 c 0,22,23
 482 297 482 297 463.5 255 c 128,-1,24
 445 213 445 213 411 186 c 128,-1,25
 377 159 377 159 329 147.5 c 128,-1,26
 281 136 281 136 223 136 c 2,27,-1
 164 136 l 1,28,-1
 164 0 l 1,29,-1
 77 0 l 1,30,-1
 77 656 l 1,15,-1
EndSplineSet
EndChar

StartChar: germandbls
Encoding: 223 223 186
Width: 500
Flags: W
LayerCount: 2
Fore
SplineSet
424 583 m 0,0,1
 424 558 424 558 416 536.5 c 128,-1,2
 408 515 408 515 396.5 497.5 c 128,-1,3
 385 480 385 480 370 465 c 128,-1,4
 355 450 355 450 342 437 c 0,5,6
 327 420 327 420 320.5 409 c 128,-1,7
 314 398 314 398 314 382 c 0,8,9
 314 361 314 361 328 347 c 128,-1,10
 342 333 342 333 363.5 320.5 c 128,-1,11
 385 308 385 308 409.5 295.5 c 128,-1,12
 434 283 434 283 455 264.5 c 128,-1,13
 476 246 476 246 490.5 219 c 128,-1,14
 505 192 505 192 505 151 c 0,15,16
 505 70 505 70 461.5 29 c 128,-1,17
 418 -12 418 -12 325 -12 c 0,18,19
 308 -12 308 -12 290.5 -8.5 c 128,-1,20
 273 -5 273 -5 258 -1 c 128,-1,21
 243 3 243 3 231.5 7.5 c 128,-1,22
 220 12 220 12 215 15 c 1,23,-1
 230 92 l 1,24,25
 235 89 235 89 246 84.5 c 128,-1,26
 257 80 257 80 270.5 75 c 128,-1,27
 284 70 284 70 300 67 c 128,-1,28
 316 64 316 64 332 64 c 0,29,30
 375 64 375 64 395.5 85 c 128,-1,31
 416 106 416 106 416 146 c 0,32,33
 416 175 416 175 401.5 193.5 c 128,-1,34
 387 212 387 212 365.5 226.5 c 128,-1,35
 344 241 344 241 319 253 c 128,-1,36
 294 265 294 265 272.5 280.5 c 128,-1,37
 251 296 251 296 237 316.5 c 128,-1,38
 223 337 223 337 223 369 c 0,39,40
 223 407 223 407 238.5 432.5 c 128,-1,41
 254 458 254 458 279 482 c 0,42,43
 301 503 301 503 318.5 524.5 c 128,-1,44
 336 546 336 546 336 570 c 0,45,46
 336 610 336 610 317 634 c 128,-1,47
 298 658 298 658 255 658 c 0,48,49
 210 658 210 658 186.5 622 c 128,-1,50
 163 586 163 586 163 523 c 2,51,-1
 163 0 l 1,52,-1
 75 0 l 1,53,-1
 75 525 l 2,54,55
 75 572 75 572 87.5 610.5 c 128,-1,56
 100 649 100 649 122 676.5 c 128,-1,57
 144 704 144 704 176.5 719.5 c 128,-1,58
 209 735 209 735 249 735 c 0,59,60
 298 735 298 735 332 722.5 c 128,-1,61
 366 710 366 710 386 689 c 128,-1,62
 406 668 406 668 415 640.5 c 128,-1,63
 424 613 424 613 424 583 c 0,0,1
EndSplineSet
EndChar

StartChar: agrave
Encoding: 224 224 187
Width: 500
Flags: W
LayerCount: 2
Fore
SplineSet
262 504 m 0,0,1
 317 504 317 504 354.5 490 c 128,-1,2
 392 476 392 476 415.5 451.5 c 128,-1,3
 439 427 439 427 448.5 392 c 128,-1,4
 458 357 458 357 458 316 c 2,5,-1
 458 8 l 1,6,7
 427 3 427 3 376.5 -4.5 c 128,-1,8
 326 -12 326 -12 273 -12 c 0,9,10
 233 -12 233 -12 195 -5 c 128,-1,11
 157 2 157 2 127.5 19.5 c 128,-1,12
 98 37 98 37 79.5 68 c 128,-1,13
 61 99 61 99 61 146 c 0,14,15
 61 188 61 188 80 217.5 c 128,-1,16
 99 247 99 247 128 265 c 128,-1,17
 157 283 157 283 194.5 291 c 128,-1,18
 232 299 232 299 270 299 c 0,19,20
 322 299 322 299 372 287 c 1,21,-1
 372 312 l 2,22,23
 372 334 372 334 367.5 354.5 c 128,-1,24
 363 375 363 375 349.5 392 c 128,-1,25
 336 409 336 409 313 419 c 128,-1,26
 290 429 290 429 254 429 c 0,27,28
 208 429 208 429 174.5 423 c 128,-1,29
 141 417 141 417 123 410 c 1,30,-1
 112 482 l 1,31,32
 130 490 130 490 172 497 c 128,-1,33
 214 504 214 504 262 504 c 0,0,1
270 63 m 0,34,35
 303 63 303 63 329 65 c 128,-1,36
 355 67 355 67 372 70 c 1,37,-1
 372 216 l 1,38,39
 355 221 355 221 331 224.5 c 128,-1,40
 307 228 307 228 281 228 c 0,41,42
 257 228 257 228 233.5 224 c 128,-1,43
 210 220 210 220 192 210.5 c 128,-1,44
 174 201 174 201 162.5 186 c 128,-1,45
 151 171 151 171 151 147 c 0,46,47
 151 99 151 99 183 81 c 128,-1,48
 215 63 215 63 270 63 c 0,34,35
229 735 m 1,49,-1
 350 588 l 1,50,-1
 305 549 l 1,51,-1
 173 678 l 1,52,-1
 229 735 l 1,49,-1
EndSplineSet
Substitution2: "'case' +WSdlh1tXfUQwf3UoMGuKv2V0MFcwX1tXX2IA lookup 18 +MLUw1jDGMPww1jDr" Agrave
EndChar

StartChar: aacute
Encoding: 225 225 188
Width: 500
Flags: W
LayerCount: 2
Fore
SplineSet
262 504 m 0,0,1
 317 504 317 504 354.5 490 c 128,-1,2
 392 476 392 476 415.5 451.5 c 128,-1,3
 439 427 439 427 448.5 392 c 128,-1,4
 458 357 458 357 458 316 c 2,5,-1
 458 8 l 1,6,7
 427 3 427 3 376.5 -4.5 c 128,-1,8
 326 -12 326 -12 273 -12 c 0,9,10
 233 -12 233 -12 195 -5 c 128,-1,11
 157 2 157 2 127.5 19.5 c 128,-1,12
 98 37 98 37 79.5 68 c 128,-1,13
 61 99 61 99 61 146 c 0,14,15
 61 188 61 188 80 217.5 c 128,-1,16
 99 247 99 247 128 265 c 128,-1,17
 157 283 157 283 194.5 291 c 128,-1,18
 232 299 232 299 270 299 c 0,19,20
 322 299 322 299 372 287 c 1,21,-1
 372 312 l 2,22,23
 372 334 372 334 367.5 354.5 c 128,-1,24
 363 375 363 375 349.5 392 c 128,-1,25
 336 409 336 409 313 419 c 128,-1,26
 290 429 290 429 254 429 c 0,27,28
 208 429 208 429 174.5 423 c 128,-1,29
 141 417 141 417 123 410 c 1,30,-1
 112 482 l 1,31,32
 130 490 130 490 172 497 c 128,-1,33
 214 504 214 504 262 504 c 0,0,1
270 63 m 0,34,35
 303 63 303 63 329 65 c 128,-1,36
 355 67 355 67 372 70 c 1,37,-1
 372 216 l 1,38,39
 355 221 355 221 331 224.5 c 128,-1,40
 307 228 307 228 281 228 c 0,41,42
 257 228 257 228 233.5 224 c 128,-1,43
 210 220 210 220 192 210.5 c 128,-1,44
 174 201 174 201 162.5 186 c 128,-1,45
 151 171 151 171 151 147 c 0,46,47
 151 99 151 99 183 81 c 128,-1,48
 215 63 215 63 270 63 c 0,34,35
377 678 m 1,49,-1
 244 549 l 1,50,-1
 199 588 l 1,51,-1
 320 735 l 1,52,-1
 377 678 l 1,49,-1
EndSplineSet
Substitution2: "'case' +WSdlh1tXfUQwf3UoMGuKv2V0MFcwX1tXX2IA lookup 18 +MLUw1jDGMPww1jDr" Aacute
EndChar

StartChar: acircumflex
Encoding: 226 226 189
Width: 500
Flags: W
LayerCount: 2
Fore
SplineSet
262 504 m 0,0,1
 317 504 317 504 354.5 490 c 128,-1,2
 392 476 392 476 415.5 451.5 c 128,-1,3
 439 427 439 427 448.5 392 c 128,-1,4
 458 357 458 357 458 316 c 2,5,-1
 458 8 l 1,6,7
 427 3 427 3 376.5 -4.5 c 128,-1,8
 326 -12 326 -12 273 -12 c 0,9,10
 233 -12 233 -12 195 -5 c 128,-1,11
 157 2 157 2 127.5 19.5 c 128,-1,12
 98 37 98 37 79.5 68 c 128,-1,13
 61 99 61 99 61 146 c 0,14,15
 61 188 61 188 80 217.5 c 128,-1,16
 99 247 99 247 128 265 c 128,-1,17
 157 283 157 283 194.5 291 c 128,-1,18
 232 299 232 299 270 299 c 0,19,20
 322 299 322 299 372 287 c 1,21,-1
 372 312 l 2,22,23
 372 334 372 334 367.5 354.5 c 128,-1,24
 363 375 363 375 349.5 392 c 128,-1,25
 336 409 336 409 313 419 c 128,-1,26
 290 429 290 429 254 429 c 0,27,28
 208 429 208 429 174.5 423 c 128,-1,29
 141 417 141 417 123 410 c 1,30,-1
 112 482 l 1,31,32
 130 490 130 490 172 497 c 128,-1,33
 214 504 214 504 262 504 c 0,0,1
270 63 m 0,34,35
 303 63 303 63 329 65 c 128,-1,36
 355 67 355 67 372 70 c 1,37,-1
 372 216 l 1,38,39
 355 221 355 221 331 224.5 c 128,-1,40
 307 228 307 228 281 228 c 0,41,42
 257 228 257 228 233.5 224 c 128,-1,43
 210 220 210 220 192 210.5 c 128,-1,44
 174 201 174 201 162.5 186 c 128,-1,45
 151 171 151 171 151 147 c 0,46,47
 151 99 151 99 183 81 c 128,-1,48
 215 63 215 63 270 63 c 0,34,35
275 728 m 1,49,-1
 403 593 l 1,50,-1
 367 551 l 1,51,-1
 275 634 l 1,52,-1
 182 551 l 1,53,-1
 146 593 l 1,54,-1
 275 728 l 1,49,-1
EndSplineSet
Substitution2: "'case' +WSdlh1tXfUQwf3UoMGuKv2V0MFcwX1tXX2IA lookup 18 +MLUw1jDGMPww1jDr" Acircumflex
EndChar

StartChar: atilde
Encoding: 227 227 190
Width: 500
Flags: W
LayerCount: 2
Fore
SplineSet
262 504 m 0,0,1
 317 504 317 504 354.5 490 c 128,-1,2
 392 476 392 476 415.5 451.5 c 128,-1,3
 439 427 439 427 448.5 392 c 128,-1,4
 458 357 458 357 458 316 c 2,5,-1
 458 8 l 1,6,7
 427 3 427 3 376.5 -4.5 c 128,-1,8
 326 -12 326 -12 273 -12 c 0,9,10
 233 -12 233 -12 195 -5 c 128,-1,11
 157 2 157 2 127.5 19.5 c 128,-1,12
 98 37 98 37 79.5 68 c 128,-1,13
 61 99 61 99 61 146 c 0,14,15
 61 188 61 188 80 217.5 c 128,-1,16
 99 247 99 247 128 265 c 128,-1,17
 157 283 157 283 194.5 291 c 128,-1,18
 232 299 232 299 270 299 c 0,19,20
 322 299 322 299 372 287 c 1,21,-1
 372 312 l 2,22,23
 372 334 372 334 367.5 354.5 c 128,-1,24
 363 375 363 375 349.5 392 c 128,-1,25
 336 409 336 409 313 419 c 128,-1,26
 290 429 290 429 254 429 c 0,27,28
 208 429 208 429 174.5 423 c 128,-1,29
 141 417 141 417 123 410 c 1,30,-1
 112 482 l 1,31,32
 130 490 130 490 172 497 c 128,-1,33
 214 504 214 504 262 504 c 0,0,1
270 63 m 0,34,35
 303 63 303 63 329 65 c 128,-1,36
 355 67 355 67 372 70 c 1,37,-1
 372 216 l 1,38,39
 355 221 355 221 331 224.5 c 128,-1,40
 307 228 307 228 281 228 c 0,41,42
 257 228 257 228 233.5 224 c 128,-1,43
 210 220 210 220 192 210.5 c 128,-1,44
 174 201 174 201 162.5 186 c 128,-1,45
 151 171 151 171 151 147 c 0,46,47
 151 99 151 99 183 81 c 128,-1,48
 215 63 215 63 270 63 c 0,34,35
411 673 m 1,49,50
 408 661 408 661 400 646.5 c 128,-1,51
 392 632 392 632 380.5 619 c 128,-1,52
 369 606 369 606 353 597 c 128,-1,53
 337 588 337 588 317 588 c 0,54,55
 303 588 303 588 284.5 595.5 c 128,-1,56
 266 603 266 603 254 608 c 0,57,58
 226 623 226 623 210 623 c 0,59,60
 196 623 196 623 183.5 609.5 c 128,-1,61
 171 596 171 596 164 581 c 1,62,-1
 119 605 l 1,63,64
 122 617 122 617 130 632 c 128,-1,65
 138 647 138 647 149.5 659.5 c 128,-1,66
 161 672 161 672 177 681 c 128,-1,67
 193 690 193 690 212 690 c 0,68,69
 226 690 226 690 244.5 682 c 128,-1,70
 263 674 263 674 275 669 c 0,71,72
 303 654 303 654 319 654 c 0,73,74
 333 654 333 654 346 668 c 128,-1,75
 359 682 359 682 366 696 c 1,76,-1
 411 673 l 1,49,50
EndSplineSet
Substitution2: "'case' +WSdlh1tXfUQwf3UoMGuKv2V0MFcwX1tXX2IA lookup 18 +MLUw1jDGMPww1jDr" Atilde
EndChar

StartChar: adieresis
Encoding: 228 228 191
Width: 500
Flags: W
LayerCount: 2
Fore
SplineSet
262 504 m 0,0,1
 317 504 317 504 354.5 490 c 128,-1,2
 392 476 392 476 415.5 451.5 c 128,-1,3
 439 427 439 427 448.5 392 c 128,-1,4
 458 357 458 357 458 316 c 2,5,-1
 458 8 l 1,6,7
 427 3 427 3 376.5 -4.5 c 128,-1,8
 326 -12 326 -12 273 -12 c 0,9,10
 233 -12 233 -12 195 -5 c 128,-1,11
 157 2 157 2 127.5 19.5 c 128,-1,12
 98 37 98 37 79.5 68 c 128,-1,13
 61 99 61 99 61 146 c 0,14,15
 61 188 61 188 80 217.5 c 128,-1,16
 99 247 99 247 128 265 c 128,-1,17
 157 283 157 283 194.5 291 c 128,-1,18
 232 299 232 299 270 299 c 0,19,20
 322 299 322 299 372 287 c 1,21,-1
 372 312 l 2,22,23
 372 334 372 334 367.5 354.5 c 128,-1,24
 363 375 363 375 349.5 392 c 128,-1,25
 336 409 336 409 313 419 c 128,-1,26
 290 429 290 429 254 429 c 0,27,28
 208 429 208 429 174.5 423 c 128,-1,29
 141 417 141 417 123 410 c 1,30,-1
 112 482 l 1,31,32
 130 490 130 490 172 497 c 128,-1,33
 214 504 214 504 262 504 c 0,0,1
270 63 m 0,34,35
 303 63 303 63 329 65 c 128,-1,36
 355 67 355 67 372 70 c 1,37,-1
 372 216 l 1,38,39
 355 221 355 221 331 224.5 c 128,-1,40
 307 228 307 228 281 228 c 0,41,42
 257 228 257 228 233.5 224 c 128,-1,43
 210 220 210 220 192 210.5 c 128,-1,44
 174 201 174 201 162.5 186 c 128,-1,45
 151 171 151 171 151 147 c 0,46,47
 151 99 151 99 183 81 c 128,-1,48
 215 63 215 63 270 63 c 0,34,35
355 583 m 128,-1,50
 333 583 333 583 316.5 599 c 128,-1,51
 300 615 300 615 300 639.5 c 128,-1,52
 300 664 300 664 316.5 679 c 128,-1,53
 333 694 333 694 355 694 c 128,-1,54
 377 694 377 694 393.5 679 c 128,-1,55
 410 664 410 664 410 639.5 c 128,-1,56
 410 615 410 615 393.5 599 c 128,-1,49
 377 583 377 583 355 583 c 128,-1,50
175 583 m 0,57,58
 154 583 154 583 137 599 c 128,-1,59
 120 615 120 615 120 639.5 c 128,-1,60
 120 664 120 664 137 679 c 128,-1,61
 154 694 154 694 175 694 c 0,62,63
 197 694 197 694 213.5 679 c 128,-1,64
 230 664 230 664 230 639.5 c 128,-1,65
 230 615 230 615 213.5 599 c 128,-1,66
 197 583 197 583 175 583 c 0,57,58
EndSplineSet
Substitution2: "'case' +WSdlh1tXfUQwf3UoMGuKv2V0MFcwX1tXX2IA lookup 18 +MLUw1jDGMPww1jDr" Adieresis
EndChar

StartChar: aring
Encoding: 229 229 192
Width: 500
Flags: W
LayerCount: 2
Fore
SplineSet
262 504 m 0,0,1
 317 504 317 504 354.5 490 c 128,-1,2
 392 476 392 476 415.5 451.5 c 128,-1,3
 439 427 439 427 448.5 392 c 128,-1,4
 458 357 458 357 458 316 c 2,5,-1
 458 8 l 1,6,7
 427 3 427 3 376.5 -4.5 c 128,-1,8
 326 -12 326 -12 273 -12 c 0,9,10
 233 -12 233 -12 195 -5 c 128,-1,11
 157 2 157 2 127.5 19.5 c 128,-1,12
 98 37 98 37 79.5 68 c 128,-1,13
 61 99 61 99 61 146 c 0,14,15
 61 188 61 188 80 217.5 c 128,-1,16
 99 247 99 247 128 265 c 128,-1,17
 157 283 157 283 194.5 291 c 128,-1,18
 232 299 232 299 270 299 c 0,19,20
 322 299 322 299 372 287 c 1,21,-1
 372 312 l 2,22,23
 372 334 372 334 367.5 354.5 c 128,-1,24
 363 375 363 375 349.5 392 c 128,-1,25
 336 409 336 409 313 419 c 128,-1,26
 290 429 290 429 254 429 c 0,27,28
 208 429 208 429 174.5 423 c 128,-1,29
 141 417 141 417 123 410 c 1,30,-1
 112 482 l 1,31,32
 130 490 130 490 172 497 c 128,-1,33
 214 504 214 504 262 504 c 0,0,1
270 63 m 0,34,35
 303 63 303 63 329 65 c 128,-1,36
 355 67 355 67 372 70 c 1,37,-1
 372 216 l 1,38,39
 355 221 355 221 331 224.5 c 128,-1,40
 307 228 307 228 281 228 c 0,41,42
 257 228 257 228 233.5 224 c 128,-1,43
 210 220 210 220 192 210.5 c 128,-1,44
 174 201 174 201 162.5 186 c 128,-1,45
 151 171 151 171 151 147 c 0,46,47
 151 99 151 99 183 81 c 128,-1,48
 215 63 215 63 270 63 c 0,34,35
315 641 m 0,49,50
 315 665 315 665 300.5 679 c 128,-1,51
 286 693 286 693 265 693 c 128,-1,52
 244 693 244 693 229.5 679.5 c 128,-1,53
 215 666 215 666 215 641 c 128,-1,54
 215 616 215 616 229.5 602 c 128,-1,55
 244 588 244 588 265 588 c 128,-1,56
 286 588 286 588 300.5 602 c 128,-1,57
 315 616 315 616 315 641 c 0,49,50
363 641 m 0,58,59
 363 595 363 595 333.5 569.5 c 128,-1,60
 304 544 304 544 265 544 c 128,-1,61
 226 544 226 544 196.5 570 c 128,-1,62
 167 596 167 596 167 641 c 128,-1,63
 167 686 167 686 196.5 712 c 128,-1,64
 226 738 226 738 265 738 c 128,-1,65
 304 738 304 738 333.5 712 c 128,-1,66
 363 686 363 686 363 641 c 0,58,59
EndSplineSet
Substitution2: "'case' +WSdlh1tXfUQwf3UoMGuKv2V0MFcwX1tXX2IA lookup 18 +MLUw1jDGMPww1jDr" Aring
EndChar

StartChar: ae
Encoding: 230 230 193
Width: 500
Flags: W
LayerCount: 2
Fore
SplineSet
427 294 m 1,0,1
 427 333 427 333 422.5 359 c 128,-1,2
 418 385 418 385 410 401 c 128,-1,3
 402 417 402 417 392.5 423 c 128,-1,4
 383 429 383 429 374 429 c 0,5,6
 350 429 350 429 331 398.5 c 128,-1,7
 312 368 312 368 312 294 c 1,8,-1
 427 294 l 1,0,1
182 228 m 0,9,10
 147 228 147 228 129.5 205.5 c 128,-1,11
 112 183 112 183 112 145 c 0,12,13
 112 113 112 113 128.5 88 c 128,-1,14
 145 63 145 63 179 63 c 0,15,16
 197 63 197 63 217.5 71.5 c 128,-1,17
 238 80 238 80 253 93 c 1,18,19
 241 119 241 119 235 150.5 c 128,-1,20
 229 182 229 182 227 216 c 1,21,22
 205 228 205 228 182 228 c 0,9,10
159 504 m 0,23,24
 206 504 206 504 235.5 485.5 c 128,-1,25
 265 467 265 467 281 436 c 1,26,27
 298 468 298 468 320 486 c 128,-1,28
 342 504 342 504 370 504 c 0,29,30
 507 504 507 504 507 253 c 0,31,32
 507 248 507 248 507 239 c 128,-1,33
 507 230 507 230 506 223 c 1,34,-1
 310 223 l 1,35,36
 310 147 310 147 337.5 107 c 128,-1,37
 365 67 365 67 408 67 c 0,38,39
 442 67 442 67 481 90 c 1,40,-1
 493 16 l 1,41,42
 489 12 489 12 479 7 c 128,-1,43
 469 2 469 2 456 -2 c 128,-1,44
 443 -6 443 -6 428 -9 c 128,-1,45
 413 -12 413 -12 400 -12 c 0,46,47
 365 -12 365 -12 338 0.5 c 128,-1,48
 311 13 311 13 290 34 c 1,49,50
 261 10 261 10 231.5 -1 c 128,-1,51
 202 -12 202 -12 172 -12 c 0,52,53
 137 -12 137 -12 111 1.5 c 128,-1,54
 85 15 85 15 67.5 36 c 128,-1,55
 50 57 50 57 41.5 84 c 128,-1,56
 33 111 33 111 33 140 c 0,57,58
 33 173 33 173 42 202 c 128,-1,59
 51 231 51 231 69 253 c 128,-1,60
 87 275 87 275 113 287 c 128,-1,61
 139 299 139 299 174 299 c 0,62,63
 187 299 187 299 202 296.5 c 128,-1,64
 217 294 217 294 230 287 c 1,65,-1
 230 312 l 2,66,67
 230 362 230 362 211 395.5 c 128,-1,68
 192 429 192 429 152 429 c 0,69,70
 129 429 129 429 106.5 423 c 128,-1,71
 84 417 84 417 75 410 c 1,72,-1
 66 482 l 1,73,74
 76 490 76 490 103.5 497 c 128,-1,75
 131 504 131 504 159 504 c 0,23,24
EndSplineSet
Substitution2: "'case' +WSdlh1tXfUQwf3UoMGuKv2V0MFcwX1tXX2IA lookup 18 +MLUw1jDGMPww1jDr" AE
EndChar

StartChar: ccedilla
Encoding: 231 231 194
Width: 500
Flags: W
LayerCount: 2
Fore
SplineSet
312 -35 m 1,0,1
 340 -48 340 -48 352 -64 c 128,-1,2
 364 -80 364 -80 364 -110 c 0,3,4
 364 -121 364 -121 359 -133 c 128,-1,5
 354 -145 354 -145 343 -155 c 128,-1,6
 332 -165 332 -165 313.5 -172 c 128,-1,7
 295 -179 295 -179 267 -179 c 0,8,9
 243 -179 243 -179 221.5 -175.5 c 128,-1,10
 200 -172 200 -172 189 -166 c 1,11,-1
 199 -112 l 1,12,13
 211 -116 211 -116 223.5 -119 c 128,-1,14
 236 -122 236 -122 252 -122 c 0,15,16
 286 -122 286 -122 286 -101 c 128,-1,17
 286 -80 286 -80 247 -68 c 2,18,-1
 240 -66 l 1,19,20
 244 -54 244 -54 251 -38 c 128,-1,21
 258 -22 258 -22 265 -7 c 1,22,23
 169 7 169 7 110.5 69.5 c 128,-1,24
 52 132 52 132 52 245 c 0,25,26
 52 312 52 312 73 360.5 c 128,-1,27
 94 409 94 409 131.5 441 c 128,-1,28
 169 473 169 473 218 488.5 c 128,-1,29
 267 504 267 504 323 504 c 0,30,31
 359 504 359 504 394.5 499 c 128,-1,32
 430 494 430 494 471 481 c 1,33,-1
 450 406 l 1,34,35
 415 419 415 419 386 422.5 c 128,-1,36
 357 426 357 426 328 426 c 0,37,38
 290 426 290 426 256 416 c 128,-1,39
 222 406 222 406 197 384.5 c 128,-1,40
 172 363 172 363 157 328.5 c 128,-1,41
 142 294 142 294 142 245 c 0,42,43
 142 198 142 198 156 164.5 c 128,-1,44
 170 131 170 131 194.5 109.5 c 128,-1,45
 219 88 219 88 254 77.5 c 128,-1,46
 289 67 289 67 332 67 c 0,47,48
 366 67 366 67 397 70.5 c 128,-1,49
 428 74 428 74 465 87 c 1,50,-1
 478 14 l 1,51,52
 442 1 442 1 405 -5 c 128,-1,53
 368 -11 368 -11 323 -12 c 1,54,-1
 312 -35 l 1,0,1
EndSplineSet
Substitution2: "'case' +WSdlh1tXfUQwf3UoMGuKv2V0MFcwX1tXX2IA lookup 18 +MLUw1jDGMPww1jDr" Ccedilla
EndChar

StartChar: egrave
Encoding: 232 232 195
Width: 500
Flags: W
LayerCount: 2
Fore
SplineSet
393 294 m 1,0,1
 393 357 393 357 360.5 393 c 128,-1,2
 328 429 328 429 273 429 c 0,3,4
 242 429 242 429 217.5 417.5 c 128,-1,5
 193 406 193 406 175 387 c 128,-1,6
 157 368 157 368 146.5 343.5 c 128,-1,7
 136 319 136 319 132 294 c 1,8,-1
 393 294 l 1,0,1
275 504 m 0,9,10
 375 504 375 504 428.5 441.5 c 128,-1,11
 482 379 482 379 482 253 c 2,12,-1
 482 223 l 1,13,-1
 130 223 l 1,14,15
 135 147 135 147 180.5 107 c 128,-1,16
 226 67 226 67 307 67 c 0,17,18
 354 67 354 67 387 74.5 c 128,-1,19
 420 82 420 82 437 90 c 1,20,-1
 448 16 l 1,21,22
 432 8 432 8 391 -2 c 128,-1,23
 350 -12 350 -12 298 -12 c 0,24,25
 234 -12 234 -12 186 8 c 128,-1,26
 138 28 138 28 106 61.5 c 128,-1,27
 74 95 74 95 58 142.5 c 128,-1,28
 42 190 42 190 42 245 c 0,29,30
 42 311 42 311 62.5 359.5 c 128,-1,31
 83 408 83 408 115.5 440 c 128,-1,32
 148 472 148 472 190 488 c 128,-1,33
 232 504 232 504 275 504 c 0,9,10
229 735 m 1,34,-1
 350 588 l 1,35,-1
 305 549 l 1,36,-1
 173 678 l 1,37,-1
 229 735 l 1,34,-1
EndSplineSet
Substitution2: "'case' +WSdlh1tXfUQwf3UoMGuKv2V0MFcwX1tXX2IA lookup 18 +MLUw1jDGMPww1jDr" Egrave
EndChar

StartChar: eacute
Encoding: 233 233 196
Width: 500
Flags: W
LayerCount: 2
Fore
SplineSet
393 294 m 1,0,1
 393 357 393 357 360.5 393 c 128,-1,2
 328 429 328 429 273 429 c 0,3,4
 242 429 242 429 217.5 417.5 c 128,-1,5
 193 406 193 406 175 387 c 128,-1,6
 157 368 157 368 146.5 343.5 c 128,-1,7
 136 319 136 319 132 294 c 1,8,-1
 393 294 l 1,0,1
275 504 m 0,9,10
 375 504 375 504 428.5 441.5 c 128,-1,11
 482 379 482 379 482 253 c 2,12,-1
 482 223 l 1,13,-1
 130 223 l 1,14,15
 135 147 135 147 180.5 107 c 128,-1,16
 226 67 226 67 307 67 c 0,17,18
 354 67 354 67 387 74.5 c 128,-1,19
 420 82 420 82 437 90 c 1,20,-1
 448 16 l 1,21,22
 432 8 432 8 391 -2 c 128,-1,23
 350 -12 350 -12 298 -12 c 0,24,25
 234 -12 234 -12 186 8 c 128,-1,26
 138 28 138 28 106 61.5 c 128,-1,27
 74 95 74 95 58 142.5 c 128,-1,28
 42 190 42 190 42 245 c 0,29,30
 42 311 42 311 62.5 359.5 c 128,-1,31
 83 408 83 408 115.5 440 c 128,-1,32
 148 472 148 472 190 488 c 128,-1,33
 232 504 232 504 275 504 c 0,9,10
377 678 m 1,34,-1
 244 549 l 1,35,-1
 199 588 l 1,36,-1
 320 735 l 1,37,-1
 377 678 l 1,34,-1
EndSplineSet
Substitution2: "'case' +WSdlh1tXfUQwf3UoMGuKv2V0MFcwX1tXX2IA lookup 18 +MLUw1jDGMPww1jDr" Eacute
EndChar

StartChar: ecircumflex
Encoding: 234 234 197
Width: 500
Flags: W
LayerCount: 2
Fore
SplineSet
393 294 m 1,0,1
 393 357 393 357 360.5 393 c 128,-1,2
 328 429 328 429 273 429 c 0,3,4
 242 429 242 429 217.5 417.5 c 128,-1,5
 193 406 193 406 175 387 c 128,-1,6
 157 368 157 368 146.5 343.5 c 128,-1,7
 136 319 136 319 132 294 c 1,8,-1
 393 294 l 1,0,1
275 504 m 0,9,10
 375 504 375 504 428.5 441.5 c 128,-1,11
 482 379 482 379 482 253 c 2,12,-1
 482 223 l 1,13,-1
 130 223 l 1,14,15
 135 147 135 147 180.5 107 c 128,-1,16
 226 67 226 67 307 67 c 0,17,18
 354 67 354 67 387 74.5 c 128,-1,19
 420 82 420 82 437 90 c 1,20,-1
 448 16 l 1,21,22
 432 8 432 8 391 -2 c 128,-1,23
 350 -12 350 -12 298 -12 c 0,24,25
 234 -12 234 -12 186 8 c 128,-1,26
 138 28 138 28 106 61.5 c 128,-1,27
 74 95 74 95 58 142.5 c 128,-1,28
 42 190 42 190 42 245 c 0,29,30
 42 311 42 311 62.5 359.5 c 128,-1,31
 83 408 83 408 115.5 440 c 128,-1,32
 148 472 148 472 190 488 c 128,-1,33
 232 504 232 504 275 504 c 0,9,10
279 728 m 1,34,-1
 407 593 l 1,35,-1
 371 551 l 1,36,-1
 279 634 l 1,37,-1
 187 551 l 1,38,-1
 151 593 l 1,39,-1
 279 728 l 1,34,-1
EndSplineSet
Substitution2: "'case' +WSdlh1tXfUQwf3UoMGuKv2V0MFcwX1tXX2IA lookup 18 +MLUw1jDGMPww1jDr" Ecircumflex
EndChar

StartChar: edieresis
Encoding: 235 235 198
Width: 500
Flags: W
LayerCount: 2
Fore
SplineSet
393 294 m 1,0,1
 393 357 393 357 360.5 393 c 128,-1,2
 328 429 328 429 273 429 c 0,3,4
 242 429 242 429 217.5 417.5 c 128,-1,5
 193 406 193 406 175 387 c 128,-1,6
 157 368 157 368 146.5 343.5 c 128,-1,7
 136 319 136 319 132 294 c 1,8,-1
 393 294 l 1,0,1
275 504 m 0,9,10
 375 504 375 504 428.5 441.5 c 128,-1,11
 482 379 482 379 482 253 c 2,12,-1
 482 223 l 1,13,-1
 130 223 l 1,14,15
 135 147 135 147 180.5 107 c 128,-1,16
 226 67 226 67 307 67 c 0,17,18
 354 67 354 67 387 74.5 c 128,-1,19
 420 82 420 82 437 90 c 1,20,-1
 448 16 l 1,21,22
 432 8 432 8 391 -2 c 128,-1,23
 350 -12 350 -12 298 -12 c 0,24,25
 234 -12 234 -12 186 8 c 128,-1,26
 138 28 138 28 106 61.5 c 128,-1,27
 74 95 74 95 58 142.5 c 128,-1,28
 42 190 42 190 42 245 c 0,29,30
 42 311 42 311 62.5 359.5 c 128,-1,31
 83 408 83 408 115.5 440 c 128,-1,32
 148 472 148 472 190 488 c 128,-1,33
 232 504 232 504 275 504 c 0,9,10
369 583 m 128,-1,35
 347 583 347 583 330.5 599 c 128,-1,36
 314 615 314 615 314 639.5 c 128,-1,37
 314 664 314 664 330.5 679 c 128,-1,38
 347 694 347 694 369 694 c 128,-1,39
 391 694 391 694 407.5 679 c 128,-1,40
 424 664 424 664 424 639.5 c 128,-1,41
 424 615 424 615 407.5 599 c 128,-1,34
 391 583 391 583 369 583 c 128,-1,35
189 583 m 0,42,43
 168 583 168 583 151 599 c 128,-1,44
 134 615 134 615 134 639.5 c 128,-1,45
 134 664 134 664 150.5 679 c 128,-1,46
 167 694 167 694 189 694 c 128,-1,47
 211 694 211 694 227.5 679 c 128,-1,48
 244 664 244 664 244 639.5 c 128,-1,49
 244 615 244 615 227.5 599 c 128,-1,50
 211 583 211 583 189 583 c 0,42,43
EndSplineSet
Substitution2: "'case' +WSdlh1tXfUQwf3UoMGuKv2V0MFcwX1tXX2IA lookup 18 +MLUw1jDGMPww1jDr" Edieresis
EndChar

StartChar: igrave
Encoding: 236 236 199
Width: 500
Flags: W
LayerCount: 2
Fore
SplineSet
199 419 m 1,0,-1
 57 419 l 1,1,-1
 57 492 l 1,2,-1
 286 492 l 1,3,-1
 286 190 l 2,4,5
 286 117 286 117 306 92 c 128,-1,6
 326 67 326 67 367 67 c 0,7,8
 398 67 398 67 423.5 74.5 c 128,-1,9
 449 82 449 82 464 90 c 1,10,-1
 477 16 l 1,11,12
 471 13 471 13 459 8 c 128,-1,13
 447 3 447 3 432 -1 c 128,-1,14
 417 -5 417 -5 398 -8.5 c 128,-1,15
 379 -12 379 -12 359 -12 c 0,16,17
 312 -12 312 -12 281.5 1 c 128,-1,18
 251 14 251 14 232.5 39.5 c 128,-1,19
 214 65 214 65 206.5 102.5 c 128,-1,20
 199 140 199 140 199 190 c 2,21,-1
 199 419 l 1,0,-1
192 735 m 1,22,-1
 313 588 l 1,23,-1
 268 549 l 1,24,-1
 136 678 l 1,25,-1
 192 735 l 1,22,-1
EndSplineSet
Substitution2: "'case' +WSdlh1tXfUQwf3UoMGuKv2V0MFcwX1tXX2IA lookup 18 +MLUw1jDGMPww1jDr" Igrave
EndChar

StartChar: iacute
Encoding: 237 237 200
Width: 500
Flags: W
LayerCount: 2
Fore
SplineSet
199 419 m 1,0,-1
 57 419 l 1,1,-1
 57 492 l 1,2,-1
 286 492 l 1,3,-1
 286 190 l 2,4,5
 286 117 286 117 306 92 c 128,-1,6
 326 67 326 67 367 67 c 0,7,8
 398 67 398 67 423.5 74.5 c 128,-1,9
 449 82 449 82 464 90 c 1,10,-1
 477 16 l 1,11,12
 471 13 471 13 459 8 c 128,-1,13
 447 3 447 3 432 -1 c 128,-1,14
 417 -5 417 -5 398 -8.5 c 128,-1,15
 379 -12 379 -12 359 -12 c 0,16,17
 312 -12 312 -12 281.5 1 c 128,-1,18
 251 14 251 14 232.5 39.5 c 128,-1,19
 214 65 214 65 206.5 102.5 c 128,-1,20
 199 140 199 140 199 190 c 2,21,-1
 199 419 l 1,0,-1
331 678 m 1,22,-1
 197 549 l 1,23,-1
 153 588 l 1,24,-1
 273 735 l 1,25,-1
 331 678 l 1,22,-1
EndSplineSet
Substitution2: "'case' +WSdlh1tXfUQwf3UoMGuKv2V0MFcwX1tXX2IA lookup 18 +MLUw1jDGMPww1jDr" Iacute
EndChar

